{
.appVersion = FontCreator15.0.0.3024;
.formatVersion = 3;
axes = (
{
name = Weight;
tag = wght;
},
{
name = "Dots Style";
tag = DSTY;
}
);
customParameters = (
{
name = fsType;
value = (
8
);
},
{
name = "Use Typo Metrics";
value = 1;
},
{
name = "Variable Font Origin";
value = m006;
}
);
date = "2024-04-26 18:30:00";
familyName = AradBetaVF;
featurePrefixes = (
{
automatic = 1;
code = "languagesystem DFLT dflt;
languagesystem latn dflt; # Latin default
languagesystem latn AZE;  # Latin Azerbaijani
languagesystem latn TRK;  # Latin Turkish
languagesystem arab dflt; # Arabic default
languagesystem arab FAR;  # Arabic Persian
languagesystem arab KUR;  # Arabic Kurdish
languagesystem arab URD;  # Arabic Urdu
";
name = Languagesystems;
},
{
code = "
#
# Global glyph class definitions
#

@group-dotless-3 = [peh-arab.init peh-arab.medi farsiyeh-arab.init farsiyeh-arab.medi uE028 uE029];
@group-dotless-4 = [peh-arab.init.1 peh-arab.medi.1 farsiyeh-arab.init.1 farsiyeh-arab.medi.1 uE046 uE062];
@CG_4 = [alefhamzabelow-arab alefhamzabelow-arab.fina peh-arab.init peh-arab.medi peh-arab.init.1 peh-arab.medi.1 reh-arab reh-arab.fina zain-arab zain-arab.fina jeh-arab jeh-arab.fina farsiyeh-arab.init farsiyeh-arab.medi farsiyeh-arab.init.1 farsiyeh-arab.medi.1 farsiyeh-arab.init.2 farsiyeh-arab.medi.2 uE028 uE029 uE046 uE062 uE080 uE081 uE082 uE083 uE084 uE085 uE086 uE087 uE088 uE089];

glyphs = (
{
glyphname = .notdef;
layers = (
{
anchors = (
{
name = "top-arab";
pos = (650,1400);
}
);
layerId = m006;
shapes = (
{
closed = 1;
nodes = (
(1150,0,l),
(150,0,l),
(150,1400,l),
(1150,1400,l)
);
},
{
closed = 1;
nodes = (
(250,1300,l),
(250,100,l),
(1050,100,l),
(1050,1300,l)
);
}
);
width = 1300;
},
{
anchors = (
{
name = "top-arab";
pos = (650,1400);
}
);
associatedMasterId = m006;
attr = {
coordinates = (
800,
1
);
};
layerId = m007;
name = ExtraBold;
shapes = (
{
closed = 1;
nodes = (
(1200,0,l),
(100,0,l),
(100,1400,l),
(1200,1400,l)
);
},
{
closed = 1;
nodes = (
(350,1150,l),
(350,250,l),
(950,250,l),
(950,1150,l)
);
}
);
width = 1300;
}
);
},
{
glyphname = "rialsign-arab.isol";
layers = (
{
layerId = m006;
shapes = (
{
closed = 1;
nodes = (
(2539.719,-477,l),
(2571.771,-471,l),
(2763.19,-435.371,o),
(3019.353,-173.57,o),
(3019.353,6.712,qs),
(3019.438,632.085,l),
(3078,632.085,l),
(3077.915,4.556,l),
(3077.915,-199.126,o),
(2788.303,-492.25,o),
(2571.771,-531,qs),
(2548.719,-535,l)
);
},
{
closed = 1;
nodes = (
(1738.444,-519,l),
(1738.444,-434,l),
(2246.615,-434,l),
(2246.615,-519,l)
);
},
{
closed = 1;
nodes = (
(1315,1453,l),
(1889.562,1513,l),
(1889.843,328.758,l),
(1889.843,217.102,o),
(2046.417,60,o),
(2157.948,60,qs),
(2326.654,60,l),
(2438.209,60,o),
(2595.412,217.176,o),
(2595.412,328.758,qs),
(2595.412,631.765,l),
(2653.974,631.765,l),
(2653.974,325.948,l),
(2653.974,190.716,o),
(2462.412,0,o),
(2326.654,0,qs),
(2157.948,0,l),
(2021.082,0,o),
(1831.281,190.645,o),
(1831.281,325.948,qs),
(1831.008,1451.392,l),
(1373.528,1404.002,l),
(1372.729,44.08,l),
(1373.591,-137.632,o),
(1230.21,-394.341,o),
(990.727,-530.88,o),
(852.699,-540.923,qs),
(697.928,-550.923,l),
(478.901,-560.923,o),
(260.763,-395.239,o),
(157,-132.923,o),
(157,14.914,qs),
(157,162.077,o),
(235.881,390.922,o),
(266.118,468.188,q),
(322.68,443.188,l),
(295.119,381.742,o),
(216,155.077,o),
(215.562,17.79,qs),
(216,-177.923,o),
(424.855,-509.433,o),
(697.928,-490.923,qs),
(852.699,-480.913,l),
(976.702,-470.913,o),
(1186.114,-352.392,o),
(1312.719,-128.903,o),
(1312.719,47.097,qs)
);
}
);
width = 3249;
},
{
associatedMasterId = m006;
attr = {
coordinates = (
800,
1
);
};
layerId = m007;
name = ExtraBold;
shapes = (
{
closed = 1;
nodes = (
(2805,-220,l),
(2960.784,-186,l),
(3070.722,-164.167,o),
(3213.51,14.851,o),
(3213.51,116.686,qs),
(3213.51,816.275,l),
(3531.941,816.275,l),
(3531.941,94.333,l),
(3531.941,-138.558,o),
(3259.691,-474.213,o),
(3017.784,-526,qs),
(2880,-555,l)
);
},
{
closed = 1;
nodes = (
(1900.53,-511,l),
(1900.482,-250,l),
(2591.409,-250,l),
(2591.458,-511,l)
);
},
{
closed = 1;
nodes = (
(1195,1473,l),
(2132.431,1564,l),
(2132.647,451.373,l),
(2132.647,404.994,o),
(2197.8,340,o),
(2244.216,340,qs),
(2460.804,340,l),
(2506.635,340,o),
(2572.176,405.144,o),
(2572.176,451.373,qs),
(2572.176,816.471,l),
(2890.608,816.471,l),
(2890.608,409.216,l),
(2891,246,o),
(2657.391,0,o),
(2460.804,0,qs),
(2244.216,0,l),
(2048.744,0,o),
(1814.216,246.319,o),
(1814.216,409.216,qs),
(1814.009,1259.726,l),
(1512.79,1231.146,l),
(1513,80,l),
(1511.603,-73.214,o),
(1363.609,-345.923,o),
(1084.008,-529.056,o),
(892.414,-539.056,qs),
(773.922,-548.056,l),
(559.625,-558.056,o),
(270.409,-366.083,o),
(110,-64.685,o),
(110,64.493,qs),
(110.905,240.766,o),
(162.094,505.811,o),
(220,667.473,q),
(512.431,549.473,l),
(484.086,462.448,o),
(427.811,234.779,o),
(428.431,107.63,qs),
(429.871,-33.888,o),
(572.732,-225.056,o),
(773.922,-208.056,qs),
(892.412,-199.056,l),
(992,-192.056,o),
(1116.233,-113.299,o),
(1195.505,16.989,o),
(1195.505,116.437,qs)
);
}
);
width = 3651;
}
);
unicode = 65020;
},
{
glyphname = "percentsign-arab";
layers = (
{
layerId = m006;
shapes = (
{
closed = 1;
nodes = (
(254.157,-11.242,l),
(1018.229,1220.281,l),
(971.941,1246.444,l),
(207.869,14.856,l)
);
},
{
closed = 1;
nodes = (
(230.294,1145.922,cs),
(197.327,1145.922,o),
(171.34,1119.869,o),
(171.34,1086.902,cs),
(171.34,1054,o),
(197.327,1027.948,o),
(230.294,1027.948,cs),
(263.131,1027.948,o),
(289.248,1054.065,o),
(289.248,1086.902,cs),
(289.248,1119.869,o),
(263.261,1145.922,o)
);
},
{
closed = 1;
nodes = (
(995.869,207.255,cs),
(962.902,207.255,o),
(936.915,181.203,o),
(936.915,148.235,cs),
(936.915,115.268,o),
(962.902,89.281,o),
(995.869,89.281,cs),
(1028.771,89.281,o),
(1054.824,115.333,o),
(1054.824,148.235,cs),
(1054.824,181.203,o),
(1028.837,207.255,o)
);
}
);
width = 1226;
},
{
associatedMasterId = m006;
attr = {
coordinates = (
800,
1
);
};
layerId = m007;
name = ExtraBold;
shapes = (
{
closed = 1;
nodes = (
(424.353,-28.627,l),
(1091.431,1350.216,l),
(873.118,1448.667,l),
(206.039,68.843,l)
);
},
{
closed = 1;
nodes = (
(304.412,1340.824,cs),
(201.902,1340.824,o),
(120.098,1258.039,o),
(120.098,1155.529,cs),
(120.098,1054,o),
(201.902,971.216,o),
(304.412,971.216,cs),
(404.961,971.216,o),
(488.725,1054.98,o),
(488.725,1155.529,cs),
(488.725,1258.039,o),
(406.922,1340.824,o)
);
},
{
closed = 1;
nodes = (
(994.039,448.824,cs),
(891.529,448.824,o),
(809.725,366.039,o),
(809.725,263.529,cs),
(809.725,161.02,o),
(891.529,79.216,o),
(994.039,79.216,cs),
(1095.569,79.216,o),
(1178.353,162,o),
(1178.353,263.529,cs),
(1178.353,366.039,o),
(1096.549,448.824,o)
);
}
);
width = 1298;
}
);
unicode = 1642;
},
{
glyphname = "fivepointedstar-arab";
layers = (
{
layerId = m006;
shapes = (
{
closed = 1;
nodes = (
(554.366,767.052,l),
(171.34,767.052,l),
(480.974,539.81,l),
(361.32,175.915,l),
(673.954,401.092,l),
(986.588,175.915,l),
(867,539.81,l),
(1176.634,767.052,l),
(793.608,767.052,l),
(673.954,1130.948,l)
);
}
);
width = 1348;
},
{
associatedMasterId = m006;
attr = {
coordinates = (
800,
1
);
};
layerId = m007;
name = ExtraBold;
shapes = (
{
closed = 1;
nodes = (
(531.49,823.784,l),
(120.098,823.784,l),
(452.608,579.157,l),
(323.804,188.725,l),
(659.314,430.373,l),
(994.824,188.725,l),
(867,579.157,l),
(1199.51,823.784,l),
(788.118,823.784,l),
(659.314,1214.216,l)
);
}
);
width = 1319;
}
);
unicode = 1645;
},
{
glyphname = arabiccomma;
layers = (
{
layerId = m006;
shapes = (
{
closed = 1;
nodes = (
(419.7,94.608,cs),
(419.7,164.183,o),
(338.719,210.882,o),
(256.758,145.458,c),
(256.758,359.712,l),
(255.824,461.484,o),
(333.837,542.974,o),
(410.674,558.059,cs),
(423.366,560.235,l),
(415.948,611.007,l),
(406.412,609.895,l),
(294.752,599.242,o),
(200.072,487.039,o),
(201.007,356.248,cs),
(201.007,103.954,l),
(201.007,44.118,o),
(249.406,-5,o),
(310.026,-5,cs),
(370.582,-5,o),
(419.7,33.837,o)
);
}
);
width = 623;
},
{
associatedMasterId = m006;
attr = {
coordinates = (
800,
1
);
};
layerId = m007;
name = ExtraBold;
shapes = (
{
closed = 1;
nodes = (
(560.49,219.118,cs),
(560.49,372.745,o),
(485.784,403.235,o),
(376.373,401.863,c),
(376.373,467.686,l),
(376.353,496.255,o),
(394.549,520.608,o),
(424.098,524.882,cs),
(561.49,546.529,l),
(531.216,773.098,l),
(433.176,756.431,l),
(252.275,726.627,o),
(120.078,569.588,o),
(120.098,385.725,cs),
(120.098,229.314,l),
(120.098,91.765,o),
(216.078,-5,o),
(335.392,-5,cs),
(453.725,-5,o),
(560.49,61.549,o)
);
}
);
width = 680;
}
);
unicode = 1548;
},
{
glyphname = arabicsemicolon;
layers = (
{
layerId = m006;
metricLeft = "base()";
metricRight = "base()";
shapes = (
{
pos = (0,299);
ref = arabiccomma;
},
{
closed = 1;
nodes = (
(372,0,l),
(252,0,l),
(252,100,l),
(372,100,l)
);
}
);
width = 622;
},
{
associatedMasterId = m006;
attr = {
coordinates = (
800,
1
);
};
layerId = m007;
metricLeft = "base()";
metricRight = "base()";
name = ExtraBold;
shapes = (
{
pos = (0,418);
ref = arabiccomma;
},
{
closed = 1;
nodes = (
(495.981,0,l),
(204.019,0,l),
(204.019,281.336,l),
(495.981,281.336,l)
);
}
);
width = 680;
}
);
unicode = 1563;
},
{
glyphname = arabicquestionmark;
layers = (
{
layerId = m006;
shapes = (
{
closed = 1;
nodes = (
(654.683,396.65,l),
(654.683,500,o),
(589.09,634.55,o),
(489.274,739.85,o),
(371.397,829.55,o),
(271.581,929.975,o),
(205.988,1056.725,o),
(205.988,1146.425,qs),
(205.988,1241.975,o),
(261.124,1375.55,o),
(359.039,1453.55,o),
(493.077,1488.65,o),
(573.88,1488.65,qs),
(666.091,1488.65,o),
(841.956,1451.6,o),
(904.698,1416.5,q),
(923.71,1467.2,l),
(848.611,1514.975,o),
(654.683,1548.125,o),
(570.078,1548.125,qs),
(477.867,1548.125,o),
(322.915,1504.25,o),
(211.692,1410.65,o),
(148,1257.575,o),
(148,1146.425,qs),
(148,1049.9,o),
(214.544,919.25,o),
(314.359,813.95,o),
(429.385,724.25,o),
(529.201,623.825,o),
(595.744,491.225,o),
(595.744,396.65,q)
);
},
{
closed = 1;
nodes = (
(681.301,12.5,l),
(681.301,110,l),
(567.226,110,l),
(567.226,12.5,l)
);
}
);
width = 1089;
},
{
associatedMasterId = m006;
attr = {
coordinates = (
800,
1
);
};
layerId = m007;
name = ExtraBold;
shapes = (
{
closed = 1;
nodes = (
(769.017,470.75,l),
(769.017,551.675,o),
(725.289,667.7,o),
(646.387,771.05,o),
(566.534,850.025,o),
(487.633,929,o),
(436.299,999.2,o),
(436.299,1053.8,qs),
(436.299,1115.225,o),
(480.978,1183.475,o),
(553.226,1215.65,o),
(640.683,1224.425,o),
(683.461,1224.425,qs),
(762.363,1224.425,o),
(893.989,1188.577,o),
(937.091,1169.893,q),
(1000.97,1453.55,l),
(906.858,1506.2,o),
(693.918,1548.125,o),
(589.349,1548.125,qs),
(491.435,1548.125,o),
(341.236,1502.3,o),
(214.803,1398.95,o),
(134,1229.3,o),
(134,1104.5,qs),
(134,1007.975,o),
(168.223,875.375,o),
(237.618,757.4,o),
(321.273,681.35,o),
(404.928,604.325,o),
(461.966,522.425,o),
(461.966,470.75,q)
);
},
{
closed = 1;
nodes = (
(781.376,12.5,l),
(781.376,312.8,l),
(451.509,312.8,l),
(451.509,12.5,l)
);
}
);
width = 1135;
}
);
unicode = 1567;
},
{
glyphname = "decimalseparator-arab";
layers = (
{
layerId = m006;
shapes = (
{
closed = 1;
nodes = (
(47.458,-402.092,l),
(393.072,359.725,l),
(345.68,380.431,l),
(0,-380.386,l)
);
}
);
width = 564;
},
{
associatedMasterId = m006;
attr = {
coordinates = (
800,
1
);
};
layerId = m007;
name = ExtraBold;
shapes = (
{
closed = 1;
nodes = (
(193.863,-431.373,l),
(576.078,411.882,l),
(383.196,498.471,l),
(0,-343.784,l)
);
}
);
width = 696;
}
);
unicode = 1643;
},
{
glyphname = "thousandsseparator-arab";
layers = (
{
layerId = m006;
shapes = (
{
closed = 1;
nodes = (
(120.83,-208.105,l),
(143.863,-195.359,l),
(229.301,-148.641,o),
(279.02,-53.268,o),
(279.02,67.105,cs),
(279.02,239.941,l),
(227.516,239.941,l),
(227.516,67.105,l),
(227.516,-31.928,o),
(188.869,-112.078,o),
(119.307,-150.229,cs),
(96.275,-162.974,l)
);
}
);
width = 450;
},
{
associatedMasterId = m006;
attr = {
coordinates = (
800,
1
);
};
layerId = m007;
name = ExtraBold;
shapes = (
{
closed = 1;
nodes = (
(146.451,-321.569,l),
(239.941,-270.392,l),
(345.51,-213.608,o),
(405.294,-99.02,o),
(405.294,40.569,cs),
(405.294,281.118,l),
(192.745,281.118,l),
(192.745,40.569,l),
(192.745,11.078,o),
(187.039,-57.176,o),
(137.608,-83.431,cs),
(44.118,-134.608,l)
);
}
);
width = 525;
}
);
unicode = 1644;
},
{
glyphname = "symboldotaccentmod-arab";
layers = (
{
associatedMasterId = m006;
attr = {
coordinates = (
100,
3
);
};
layerId = m000;
name = "Thin Dots3";
shapes = (
{
closed = 1;
nodes = (
(0,-42,c),
(22.627,-19.373,o),
(67.109,25.109,o),
(89.095,47.095,c),
(64.668,71.524,o),
(20.185,116.006,o),
(0,136.191,c),
(-21.989,114.197,o),
(-66.471,69.725,o),
(-89.095,47.095,c),
(-66.789,24.789,o),
(-22.307,-19.693,o)
);
}
);
},
{
associatedMasterId = m006;
attr = {
coordinates = (
100,
2
);
};
layerId = m001;
name = "Thin Dots2";
shapes = (
{
closed = 1;
nodes = (
(65.73,0,c),
(65.995,41,o),
(65.995,61,o),
(65.73,101.13,c),
(9.995,101,o),
(-10.005,101,o),
(-65.699,101.13,c),
(-66.005,61,o),
(-66.005,41,o),
(-65.699,0,c),
(-10.005,0,o),
(9.995,0,o)
);
}
);
},
{
associatedMasterId = m006;
attr = {
coordinates = (
800,
3
);
};
layerId = m002;
name = "ExtraBold Dots3";
shapes = (
{
closed = 1;
nodes = (
(0,-77,c),
(53.968,-23.032,o),
(160.061,83.061,o),
(212.5,135.5,c),
(154.238,193.763,o),
(48.144,299.856,o),
(0,348,c),
(-52.445,295.543,o),
(-158.538,189.474,o),
(-212.5,135.5,c),
(-159.296,82.296,o),
(-53.204,-23.796,o)
);
}
);
},
{
associatedMasterId = m006;
attr = {
coordinates = (
800,
2
);
};
layerId = m003;
name = "ExtraBold Dots2";
shapes = (
{
closed = 1;
nodes = (
(165.56,0,c),
(166.147,112.571,o),
(166.147,162.606,o),
(165.56,273,c),
(22.134,272.675,o),
(-22.157,272.675,o),
(-165.491,273,c),
(-166.17,162.606,o),
(-166.17,112.571,o),
(-165.491,0,c),
(-22.157,0,o),
(22.134,0,o)
);
}
);
},
{
associatedMasterId = m006;
attr = {
coordinates = (
100,
4
);
};
layerId = m004;
name = "Thin Dots4";
shapes = (
{
closed = 1;
nodes = (
(70,50,cs),
(70,88.66,o),
(38.66,120,o),
(0,120,cs),
(-38.66,120,o),
(-70,88.66,o),
(-70,50,cs),
(-70,11.34,o),
(-38.66,-20,o),
(0,-20,cs),
(38.66,-20,o),
(70,11.34,o)
);
}
);
},
{
associatedMasterId = m006;
attr = {
coordinates = (
800,
4
);
};
layerId = m005;
name = "ExtraBold Dots4";
shapes = (
{
closed = 1;
nodes = (
(162.5,132.5,cs),
(162.5,222.246,o),
(89.746,295,o),
(0,295,cs),
(-89.746,295,o),
(-162.5,222.246,o),
(-162.5,132.5,cs),
(-162.5,42.754,o),
(-89.746,-30,o),
(0,-30,cs),
(89.746,-30,o),
(162.5,42.754,o)
);
}
);
},
{
layerId = m006;
shapes = (
{
closed = 1;
nodes = (
(65.73,0,c),
(65.995,41,o),
(65.995,61,o),
(65.73,101.13,c),
(9.995,101,o),
(-10.005,101,o),
(-65.699,101.13,c),
(-66.005,61,o),
(-66.005,41,o),
(-65.699,0,c),
(-10.005,0,o),
(9.995,0,o)
);
}
);
},
{
associatedMasterId = m006;
attr = {
coordinates = (
800,
1
);
};
layerId = m007;
name = ExtraBold;
shapes = (
{
closed = 1;
nodes = (
(165.56,0,c),
(166.147,112.571,o),
(166.147,162.606,o),
(165.56,273,c),
(22.134,272.675,o),
(-22.157,272.675,o),
(-165.491,273,c),
(-166.17,162.606,o),
(-166.17,112.571,o),
(-165.491,0,c),
(-22.157,0,o),
(22.134,0,o)
);
}
);
}
);
unicode = 64434;
},
{
glyphname = "symboldotbelowmod-arab";
layers = (
{
associatedMasterId = m006;
attr = {
coordinates = (
100,
3
);
};
layerId = m000;
name = "Thin Dots3";
shapes = (
{
closed = 1;
nodes = (
(0,-136.191,c),
(22.627,-113.564,o),
(67.109,-69.082,o),
(89.095,-47.095,c),
(64.668,-22.667,o),
(20.185,21.815,o),
(0,42,c),
(-21.989,20.006,o),
(-66.471,-24.466,o),
(-89.095,-47.095,c),
(-66.789,-69.402,o),
(-22.307,-113.884,o)
);
}
);
},
{
associatedMasterId = m006;
attr = {
coordinates = (
100,
2
);
};
layerId = m001;
name = "Thin Dots2";
shapes = (
{
closed = 1;
nodes = (
(65.73,-101.13,c),
(65.995,-60.13,o),
(65.995,-40.13,o),
(65.73,0,c),
(9.995,-0.13,o),
(-10.005,-0.13,o),
(-65.699,0,c),
(-66.005,-40.13,o),
(-66.005,-60.13,o),
(-65.699,-101.13,c),
(-10.005,-101.13,o),
(9.995,-101.13,o)
);
}
);
},
{
associatedMasterId = m006;
attr = {
coordinates = (
800,
3
);
};
layerId = m002;
name = "ExtraBold Dots3";
shapes = (
{
closed = 1;
nodes = (
(0,-348,c),
(53.968,-294.032,o),
(160.061,-187.939,o),
(212.5,-135.5,c),
(154.238,-77.237,o),
(48.144,28.856,o),
(0,77,c),
(-52.445,24.543,o),
(-158.538,-81.526,o),
(-212.5,-135.5,c),
(-159.296,-188.704,o),
(-53.204,-294.796,o)
);
}
);
},
{
associatedMasterId = m006;
attr = {
coordinates = (
800,
2
);
};
layerId = m003;
name = "ExtraBold Dots2";
shapes = (
{
closed = 1;
nodes = (
(165.56,-273,c),
(166.147,-160.429,o),
(166.147,-110.394,o),
(165.56,0,c),
(22.134,-0.325,o),
(-22.157,-0.325,o),
(-165.491,0,c),
(-166.17,-110.394,o),
(-166.17,-160.429,o),
(-165.491,-273,c),
(-22.157,-273,o),
(22.134,-273,o)
);
}
);
},
{
associatedMasterId = m006;
attr = {
coordinates = (
100,
4
);
};
layerId = m004;
name = "Thin Dots4";
shapes = (
{
closed = 1;
nodes = (
(70,-50,cs),
(70,-11.34,o),
(38.66,20,o),
(0,20,cs),
(-38.66,20,o),
(-70,-11.34,o),
(-70,-50,cs),
(-70,-88.66,o),
(-38.66,-120,o),
(0,-120,cs),
(38.66,-120,o),
(70,-88.66,o)
);
}
);
},
{
associatedMasterId = m006;
attr = {
coordinates = (
800,
4
);
};
layerId = m005;
name = "ExtraBold Dots4";
shapes = (
{
closed = 1;
nodes = (
(162.5,-132.5,cs),
(162.5,-42.754,o),
(89.746,30,o),
(0,30,cs),
(-89.746,30,o),
(-162.5,-42.754,o),
(-162.5,-132.5,cs),
(-162.5,-222.246,o),
(-89.746,-295,o),
(0,-295,cs),
(89.746,-295,o),
(162.5,-222.246,o)
);
}
);
},
{
layerId = m006;
shapes = (
{
closed = 1;
nodes = (
(65.73,-101.13,c),
(65.995,-60.13,o),
(65.995,-40.13,o),
(65.73,0,c),
(9.995,-0.13,o),
(-10.005,-0.13,o),
(-65.699,0,c),
(-66.005,-40.13,o),
(-66.005,-60.13,o),
(-65.699,-101.13,c),
(-10.005,-101.13,o),
(9.995,-101.13,o)
);
}
);
},
{
associatedMasterId = m006;
attr = {
coordinates = (
800,
1
);
};
layerId = m007;
name = ExtraBold;
shapes = (
{
closed = 1;
nodes = (
(165.525,-266,c),
(166.147,-160.429,o),
(166.147,-110.394,o),
(165.56,0,c),
(22.134,-0.325,o),
(-22.157,-0.325,o),
(-165.491,0,c),
(-166.17,-110.394,o),
(-166.17,-160.429,o),
(-165.525,-266,c),
(-22.191,-266,o),
(22.1,-266,o)
);
}
);
}
);
unicode = 64435;
},
{
glyphname = "symboltwodotsabovemod-arab";
layers = (
{
associatedMasterId = m006;
attr = {
coordinates = (
100,
3
);
};
layerId = m000;
name = "Thin Dots3";
shapes = (
{
closed = 1;
nodes = (
(-161,-42,c),
(-138.373,-19.373,o),
(-93.891,25.109,o),
(-71.905,47.095,c),
(-96.332,71.524,o),
(-140.815,116.006,o),
(-161,136.191,c),
(-182.989,114.197,o),
(-227.471,69.725,o),
(-250.095,47.095,c),
(-227.789,24.789,o),
(-183.307,-19.693,o)
);
},
{
closed = 1;
nodes = (
(161,-42,c),
(183.627,-19.373,o),
(228.109,25.109,o),
(250.095,47.095,c),
(225.668,71.524,o),
(181.185,116.006,o),
(161,136.191,c),
(139.011,114.197,o),
(94.529,69.725,o),
(71.905,47.095,c),
(94.211,24.789,o),
(138.693,-19.693,o)
);
}
);
},
{
associatedMasterId = m006;
attr = {
coordinates = (
100,
2
);
};
layerId = m001;
name = "Thin Dots2";
shapes = (
{
closed = 1;
nodes = (
(10.115,-0.5,c),
(10.628,29.906,o),
(10.628,34.739,o),
(10.115,84.5,c),
(-97.671,84.404,o),
(-136.349,84.404,o),
(-254.056,84.5,c),
(-254.648,34.739,o),
(-254.648,29.906,o),
(-254.056,-0.5,c),
(-136.349,-0.5,o),
(-97.671,-0.5,o)
);
},
{
closed = 1;
nodes = (
(254.115,-0.5,c),
(254.628,29.906,o),
(254.628,34.739,o),
(254.115,84.5,c),
(136.329,84.404,o),
(97.651,84.404,o),
(-10.056,84.5,c),
(-10.648,34.739,o),
(-10.648,29.906,o),
(-10.056,-0.5,c),
(97.651,-0.5,o),
(136.329,-0.5,o)
);
}
);
},
{
associatedMasterId = m006;
attr = {
coordinates = (
800,
3
);
};
layerId = m002;
name = "ExtraBold Dots3";
shapes = (
{
closed = 1;
nodes = (
(-180,-67,c),
(-129.206,-16.206,o),
(-29.354,83.646,o),
(20,133,c),
(-34.835,187.836,o),
(-134.688,287.688,o),
(-180,333,c),
(-229.36,283.629,o),
(-329.212,183.799,o),
(-380,133,c),
(-329.926,82.926,o),
(-230.074,-16.926,o)
);
},
{
closed = 1;
nodes = (
(180,-67,c),
(230.794,-16.206,o),
(330.646,83.646,o),
(380,133,c),
(325.165,187.836,o),
(225.312,287.688,o),
(180,333,c),
(130.64,283.629,o),
(30.788,183.799,o),
(-20,133,c),
(30.074,82.926,o),
(129.926,-16.926,o)
);
}
);
},
{
associatedMasterId = m006;
attr = {
coordinates = (
800,
2
);
};
layerId = m003;
name = "ExtraBold Dots2";
shapes = (
{
closed = 1;
nodes = (
(0,0,c),
(20.563,99.733,o),
(20.563,148.384,o),
(-0.114,261,c),
(-174.89,260.684,o),
(-217.36,260.684,o),
(-345.464,261,c),
(-346,148.384,o),
(-346,99.733,o),
(-345.35,0,c),
(-217.246,0,o),
(-174.776,0,o)
);
},
{
closed = 1;
nodes = (
(345.578,0,c),
(346.141,99.733,o),
(346.141,148.384,o),
(345.464,261,c),
(217.11,260.684,o),
(174.64,260.684,o),
(-0.114,261,c),
(-20,148.384,o),
(-20,99.733,o),
(0,0,c),
(174.754,0,o),
(217.224,0,o)
);
}
);
},
{
associatedMasterId = m006;
attr = {
coordinates = (
100,
4
);
};
layerId = m004;
name = "Thin Dots4";
shapes = (
{
closed = 1;
nodes = (
(-80,50,cs),
(-80,88.66,o),
(-111.34,120,o),
(-150,120,cs),
(-188.66,120,o),
(-220,88.66,o),
(-220,50,cs),
(-220,11.34,o),
(-188.66,-20,o),
(-150,-20,cs),
(-111.34,-20,o),
(-80,11.34,o)
);
},
{
closed = 1;
nodes = (
(220,50,cs),
(220,88.66,o),
(188.66,120,o),
(150,120,cs),
(111.34,120,o),
(80,88.66,o),
(80,50,cs),
(80,11.34,o),
(111.34,-20,o),
(150,-20,cs),
(188.66,-20,o),
(220,11.34,o)
);
}
);
},
{
associatedMasterId = m006;
attr = {
coordinates = (
800,
4
);
};
layerId = m005;
name = "ExtraBold Dots4";
shapes = (
{
closed = 1;
nodes = (
(-17.5,132.5,cs),
(-17.5,222.246,o),
(-90.254,295,o),
(-180,295,cs),
(-269.746,295,o),
(-342.5,222.246,o),
(-342.5,132.5,cs),
(-342.5,42.754,o),
(-269.746,-30,o),
(-180,-30,cs),
(-90.254,-30,o),
(-17.5,42.754,o)
);
},
{
closed = 1;
nodes = (
(342.5,132.5,cs),
(342.5,222.246,o),
(269.746,295,o),
(180,295,cs),
(90.254,295,o),
(17.5,222.246,o),
(17.5,132.5,cs),
(17.5,42.754,o),
(90.254,-30,o),
(180,-30,cs),
(269.746,-30,o),
(342.5,42.754,o)
);
}
);
},
{
layerId = m006;
shapes = (
{
closed = 1;
nodes = (
(-86.265,0,c),
(-86,41,o),
(-86,61,o),
(-86.265,101.13,c),
(-142,101,o),
(-162,101,o),
(-217.694,101.13,c),
(-218,61,o),
(-218,41,o),
(-217.694,0,c),
(-162,0,o),
(-142,0,o)
);
},
{
closed = 1;
nodes = (
(217.73,0.435,c),
(217.995,41.435,o),
(217.995,61.435,o),
(217.73,101.565,c),
(161.995,101.435,o),
(141.995,101.435,o),
(86.301,101.565,c),
(85.995,61.435,o),
(85.995,41.435,o),
(86.301,0.435,c),
(141.995,0.435,o),
(161.995,0.435,o)
);
}
);
},
{
associatedMasterId = m006;
attr = {
coordinates = (
800,
1
);
};
layerId = m007;
name = ExtraBold;
shapes = (
{
closed = 1;
nodes = (
(-51.282,0,c),
(-50.718,99.733,o),
(-50.718,148.384,o),
(-51.396,271,c),
(-164.89,270.684,o),
(-207.36,270.684,o),
(-345.464,271,c),
(-346,148.384,o),
(-346,99.733,o),
(-345.35,0,c),
(-207.246,0,o),
(-164.776,0,o)
);
},
{
closed = 1;
nodes = (
(345.578,0,c),
(346.141,99.733,o),
(346.141,148.384,o),
(345.464,271,c),
(207.11,270.684,o),
(164.64,270.684,o),
(51.211,271,c),
(50.675,148.384,o),
(50.675,99.733,o),
(51.325,0,c),
(164.754,0,o),
(207.224,0,o)
);
}
);
}
);
unicode = 64436;
},
{
glyphname = "symboltwodotsbelowmod-arab";
layers = (
{
associatedMasterId = m006;
attr = {
coordinates = (
100,
3
);
};
layerId = m000;
name = "Thin Dots3";
shapes = (
{
closed = 1;
nodes = (
(-161,-136.191,c),
(-138.373,-113.564,o),
(-93.891,-69.082,o),
(-71.905,-47.095,c),
(-96.332,-22.667,o),
(-140.815,21.815,o),
(-161,42,c),
(-182.989,20.006,o),
(-227.471,-24.466,o),
(-250.095,-47.095,c),
(-227.789,-69.402,o),
(-183.307,-113.884,o)
);
},
{
closed = 1;
nodes = (
(161,-136.191,c),
(183.627,-113.564,o),
(228.109,-69.082,o),
(250.095,-47.095,c),
(225.668,-22.667,o),
(181.185,21.815,o),
(161,42,c),
(139.011,20.006,o),
(94.529,-24.466,o),
(71.905,-47.095,c),
(94.211,-69.402,o),
(138.693,-113.884,o)
);
}
);
},
{
associatedMasterId = m006;
attr = {
coordinates = (
100,
2
);
};
layerId = m001;
name = "Thin Dots2";
shapes = (
{
closed = 1;
nodes = (
(10.115,-85,c),
(10.628,-34.594,o),
(10.628,-29.761,o),
(10.115,0,c),
(-97.671,-0.096,o),
(-136.349,-0.096,o),
(-254.056,0,c),
(-254.648,-29.761,o),
(-254.648,-34.594,o),
(-254.056,-85,c),
(-136.349,-85,o),
(-97.671,-85,o)
);
},
{
closed = 1;
nodes = (
(254.115,-85,c),
(254.628,-34.594,o),
(254.628,-29.761,o),
(254.115,0,c),
(136.329,-0.096,o),
(97.651,-0.096,o),
(-10.056,0,c),
(-10.648,-29.761,o),
(-10.648,-34.594,o),
(-10.056,-85,c),
(97.651,-85,o),
(136.329,-85,o)
);
}
);
},
{
associatedMasterId = m006;
attr = {
coordinates = (
800,
3
);
};
layerId = m002;
name = "ExtraBold Dots3";
shapes = (
{
closed = 1;
nodes = (
(-180,-333,c),
(-129.206,-282.206,o),
(-29.354,-182.354,o),
(20,-133,c),
(-34.835,-78.164,o),
(-134.688,21.688,o),
(-180,67,c),
(-229.36,17.629,o),
(-329.212,-82.201,o),
(-380,-133,c),
(-329.926,-183.074,o),
(-230.074,-282.926,o)
);
},
{
closed = 1;
nodes = (
(180,-333,c),
(230.794,-282.206,o),
(330.646,-182.354,o),
(380,-133,c),
(325.165,-78.164,o),
(225.312,21.688,o),
(180,67,c),
(130.64,17.629,o),
(30.788,-82.201,o),
(-20,-133,c),
(30.074,-183.074,o),
(129.926,-282.926,o)
);
}
);
},
{
associatedMasterId = m006;
attr = {
coordinates = (
800,
2
);
};
layerId = m003;
name = "ExtraBold Dots2";
shapes = (
{
closed = 1;
nodes = (
(-0.114,-261,c),
(20.401,-166.267,o),
(20.401,-117.616,o),
(-0.163,0,c),
(-174.938,-0.316,o),
(-217.409,-0.316,o),
(-345.512,0,c),
(-346.163,-117.616,o),
(-346.163,-166.267,o),
(-345.464,-261,c),
(-217.36,-261,o),
(-174.89,-261,o)
);
},
{
closed = 1;
nodes = (
(345.464,-261,c),
(345.978,-166.267,o),
(345.978,-117.616,o),
(345.415,0,c),
(217.062,-0.316,o),
(174.591,-0.316,o),
(-0.163,0,c),
(-20.163,-117.616,o),
(-20.163,-166.267,o),
(-0.114,-261,c),
(174.64,-261,o),
(217.11,-261,o)
);
}
);
},
{
associatedMasterId = m006;
attr = {
coordinates = (
100,
4
);
};
layerId = m004;
name = "Thin Dots4";
shapes = (
{
closed = 1;
nodes = (
(-80,-50,cs),
(-80,-11.34,o),
(-111.34,20,o),
(-150,20,cs),
(-188.66,20,o),
(-220,-11.34,o),
(-220,-50,cs),
(-220,-88.66,o),
(-188.66,-120,o),
(-150,-120,cs),
(-111.34,-120,o),
(-80,-88.66,o)
);
},
{
closed = 1;
nodes = (
(220,-50,cs),
(220,-11.34,o),
(188.66,20,o),
(150,20,cs),
(111.34,20,o),
(80,-11.34,o),
(80,-50,cs),
(80,-88.66,o),
(111.34,-120,o),
(150,-120,cs),
(188.66,-120,o),
(220,-88.66,o)
);
}
);
},
{
associatedMasterId = m006;
attr = {
coordinates = (
800,
4
);
};
layerId = m005;
name = "ExtraBold Dots4";
shapes = (
{
closed = 1;
nodes = (
(-17.5,-132.5,cs),
(-17.5,-42.754,o),
(-90.254,30,o),
(-180,30,cs),
(-269.746,30,o),
(-342.5,-42.754,o),
(-342.5,-132.5,cs),
(-342.5,-222.246,o),
(-269.746,-295,o),
(-180,-295,cs),
(-90.254,-295,o),
(-17.5,-222.246,o)
);
},
{
closed = 1;
nodes = (
(342.5,-132.5,cs),
(342.5,-42.754,o),
(269.746,30,o),
(180,30,cs),
(90.254,30,o),
(17.5,-42.754,o),
(17.5,-132.5,cs),
(17.5,-222.246,o),
(90.254,-295,o),
(180,-295,cs),
(269.746,-295,o),
(342.5,-222.246,o)
);
}
);
},
{
layerId = m006;
shapes = (
{
closed = 1;
nodes = (
(-86.268,-101.565,c),
(-86.003,-60.565,o),
(-86.003,-40.565,o),
(-86.268,-0.435,c),
(-142.003,-0.565,o),
(-162.003,-0.565,o),
(-217.696,-0.435,c),
(-218.003,-40.565,o),
(-218.003,-60.565,o),
(-217.696,-101.565,c),
(-162.003,-101.565,o),
(-142.003,-101.565,o)
);
},
{
closed = 1;
nodes = (
(217.727,-101.13,c),
(217.992,-60.13,o),
(217.992,-40.13,o),
(217.727,0,c),
(161.992,-0.13,o),
(141.992,-0.13,o),
(86.299,0,c),
(85.992,-40.13,o),
(85.992,-60.13,o),
(86.299,-101.13,c),
(141.992,-101.13,o),
(161.992,-101.13,o)
);
}
);
},
{
associatedMasterId = m006;
attr = {
coordinates = (
800,
1
);
};
layerId = m007;
name = ExtraBold;
shapes = (
{
closed = 1;
nodes = (
(-51.314,-271.322,c),
(-50.718,-148.384,o),
(-50.718,-99.733,o),
(-51.282,0,c),
(-164.776,0,o),
(-207.246,0,o),
(-345.512,0,c),
(-346.163,-99.733,o),
(-346.163,-148.384,o),
(-345.545,-271.322,c),
(-207.279,-271.007,o),
(-164.809,-271.007,o)
);
},
{
closed = 1;
nodes = (
(345.545,-271.322,c),
(346.141,-148.384,o),
(346.141,-99.733,o),
(345.578,0,c),
(207.224,0,o),
(164.754,0,o),
(51.325,0,c),
(50.675,-99.733,o),
(50.675,-148.384,o),
(51.292,-271.322,c),
(155.431,-271.032,o),
(204.438,-271,o)
);
}
);
}
);
unicode = 64437;
},
{
glyphname = "symbolthreedotsabovemod-arab";
layers = (
{
associatedMasterId = m006;
attr = {
coordinates = (
100,
3
);
};
layerId = m000;
name = "Thin Dots3";
shapes = (
{
closed = 1;
nodes = (
(-161,-42,c),
(-138.373,-19.373,o),
(-93.891,25.109,o),
(-71.905,47.095,c),
(-96.332,71.524,o),
(-140.815,116.006,o),
(-161,136.191,c),
(-182.989,114.197,o),
(-227.471,69.725,o),
(-250.095,47.095,c),
(-227.789,24.789,o),
(-183.307,-19.693,o)
);
},
{
closed = 1;
nodes = (
(161,-42,c),
(183.627,-19.373,o),
(228.109,25.109,o),
(250.095,47.095,c),
(225.668,71.524,o),
(181.185,116.006,o),
(161,136.191,c),
(139.011,114.197,o),
(94.529,69.725,o),
(71.905,47.095,c),
(94.211,24.789,o),
(138.693,-19.693,o)
);
},
{
closed = 1;
nodes = (
(0,233.809,c),
(22.627,256.436,o),
(67.109,300.918,o),
(89.095,322.905,c),
(64.668,347.333,o),
(20.185,391.815,o),
(0,412,c),
(-21.989,390.006,o),
(-66.471,345.534,o),
(-89.095,322.905,c),
(-66.789,300.598,o),
(-22.307,256.116,o)
);
}
);
},
{
associatedMasterId = m006;
attr = {
coordinates = (
800,
3
);
};
layerId = m002;
name = "ExtraBold Dots3";
shapes = (
{
closed = 1;
nodes = (
(-180,-67,c),
(-131.746,-18.746,o),
(-36.887,76.113,o),
(10,123,c),
(-42.093,175.094,o),
(-136.954,269.954,o),
(-180,313,c),
(-226.892,266.097,o),
(-321.751,171.259,o),
(-370,123,c),
(-322.43,75.43,o),
(-227.57,-19.43,o)
);
},
{
closed = 1;
nodes = (
(180,-67,c),
(228.254,-18.746,o),
(323.113,76.113,o),
(370,123,c),
(317.907,175.094,o),
(223.046,269.954,o),
(180,313,c),
(133.108,266.097,o),
(38.249,171.259,o),
(-10,123,c),
(37.57,75.43,o),
(132.43,-19.43,o)
);
},
{
closed = 1;
nodes = (
(0,277,c),
(44.444,321.444,o),
(131.815,408.815,o),
(175,452,c),
(127.019,499.982,o),
(39.648,587.352,o),
(0,627,c),
(-43.19,583.8,o),
(-130.56,496.449,o),
(-175,452,c),
(-131.185,408.185,o),
(-43.815,320.815,o)
);
}
);
},
{
associatedMasterId = m006;
attr = {
coordinates = (
100,
2
);
};
layerId = m001;
name = "Thin Dots2";
shapes = (
{
closed = 1;
nodes = (
(10.115,-0.5,c),
(10.628,29.906,o),
(10.628,34.739,o),
(10.115,84.5,c),
(-97.671,84.404,o),
(-136.349,84.404,o),
(-254.056,84.5,c),
(-254.648,34.739,o),
(-254.648,29.906,o),
(-254.056,-0.5,c),
(-136.349,-0.5,o),
(-97.671,-0.5,o)
);
},
{
closed = 1;
nodes = (
(254.115,-0.5,c),
(254.628,29.906,o),
(254.628,34.739,o),
(254.115,84.5,c),
(136.329,84.404,o),
(97.651,84.404,o),
(-10.056,84.5,c),
(-10.648,34.739,o),
(-10.648,29.906,o),
(-10.056,-0.5,c),
(97.651,-0.5,o),
(136.329,-0.5,o)
);
},
{
closed = 1;
nodes = (
(65.73,286.435,c),
(65.995,327.435,o),
(65.995,347.435,o),
(65.73,387.565,c),
(9.995,387.435,o),
(-10.005,387.435,o),
(-65.699,387.565,c),
(-66.005,347.435,o),
(-66.005,327.435,o),
(-65.699,286.435,c),
(-10.005,286.435,o),
(9.995,286.435,o)
);
}
);
},
{
associatedMasterId = m006;
attr = {
coordinates = (
800,
2
);
};
layerId = m003;
name = "ExtraBold Dots2";
shapes = (
{
closed = 1;
nodes = (
(0,0,c),
(20.635,102.977,o),
(20.635,153.209,o),
(0.633,261,c),
(-168.436,261,o),
(-216.367,261,o),
(-344.633,261,c),
(-346,153.209,o),
(-346,102.977,o),
(-345.266,0,c),
(-217,0.326,o),
(-169.069,0.326,o)
);
},
{
closed = 1;
nodes = (
(346,0,c),
(346.635,102.977,o),
(346.635,153.209,o),
(346.633,261,c),
(217.633,261,o),
(169.702,261,o),
(1.367,261,c),
(-20,153.209,o),
(-20,102.977,o),
(0.734,0,c),
(169.069,0.326,o),
(217,0.326,o)
);
},
{
closed = 1;
nodes = (
(145,376,c),
(145.563,475.733,o),
(145.563,524.384,o),
(145,622,c),
(21.224,621.684,o),
(-21.246,621.684,o),
(-144.35,622,c),
(-145,524.384,o),
(-145,475.733,o),
(-144.35,376,c),
(-21.246,376,o),
(21.224,376,o)
);
}
);
},
{
associatedMasterId = m006;
attr = {
coordinates = (
100,
4
);
};
layerId = m004;
name = "Thin Dots4";
shapes = (
{
closed = 1;
nodes = (
(-80,50,cs),
(-80,88.66,o),
(-111.34,120,o),
(-150,120,cs),
(-188.66,120,o),
(-220,88.66,o),
(-220,50,cs),
(-220,11.34,o),
(-188.66,-20,o),
(-150,-20,cs),
(-111.34,-20,o),
(-80,11.34,o)
);
},
{
closed = 1;
nodes = (
(220,50,cs),
(220,88.66,o),
(188.66,120,o),
(150,120,cs),
(111.34,120,o),
(80,88.66,o),
(80,50,cs),
(80,11.34,o),
(111.34,-20,o),
(150,-20,cs),
(188.66,-20,o),
(220,11.34,o)
);
},
{
closed = 1;
nodes = (
(70,330,cs),
(70,368.66,o),
(38.66,400,o),
(0,400,cs),
(-38.66,400,o),
(-70,368.66,o),
(-70,330,cs),
(-70,291.34,o),
(-38.66,260,o),
(0,260,cs),
(38.66,260,o),
(70,291.34,o)
);
}
);
},
{
associatedMasterId = m006;
attr = {
coordinates = (
800,
4
);
};
layerId = m005;
name = "ExtraBold Dots4";
shapes = (
{
closed = 1;
nodes = (
(-17.5,132.5,cs),
(-17.5,222.246,o),
(-90.254,295,o),
(-180,295,cs),
(-269.746,295,o),
(-342.5,222.246,o),
(-342.5,132.5,cs),
(-342.5,42.754,o),
(-269.746,-30,o),
(-180,-30,cs),
(-90.254,-30,o),
(-17.5,42.754,o)
);
},
{
closed = 1;
nodes = (
(342.5,132.5,cs),
(342.5,222.246,o),
(269.746,295,o),
(180,295,cs),
(90.254,295,o),
(17.5,222.246,o),
(17.5,132.5,cs),
(17.5,42.754,o),
(90.254,-30,o),
(180,-30,cs),
(269.746,-30,o),
(342.5,42.754,o)
);
},
{
closed = 1;
nodes = (
(162.5,452.5,cs),
(162.5,542.246,o),
(89.746,615,o),
(0,615,cs),
(-89.746,615,o),
(-162.5,542.246,o),
(-162.5,452.5,cs),
(-162.5,362.754,o),
(-89.746,290,o),
(0,290,cs),
(89.746,290,o),
(162.5,362.754,o)
);
}
);
},
{
layerId = m006;
shapes = (
{
closed = 1;
nodes = (
(-86.265,0,c),
(-86,41,o),
(-86,61,o),
(-86.265,101.13,c),
(-142,101,o),
(-162,101,o),
(-217.694,101.13,c),
(-218,61,o),
(-218,41,o),
(-217.694,0,c),
(-162,0,o),
(-142,0,o)
);
},
{
closed = 1;
nodes = (
(217.73,0.435,c),
(217.995,41.435,o),
(217.995,61.435,o),
(217.73,101.565,c),
(161.995,101.435,o),
(141.995,101.435,o),
(86.301,101.565,c),
(85.995,61.435,o),
(85.995,41.435,o),
(86.301,0.435,c),
(141.995,0.435,o),
(161.995,0.435,o)
);
},
{
closed = 1;
nodes = (
(65.73,286.435,c),
(65.995,327.435,o),
(65.995,347.435,o),
(65.73,387.565,c),
(9.995,387.435,o),
(-10.005,387.435,o),
(-65.699,387.565,c),
(-66.005,347.435,o),
(-66.005,327.435,o),
(-65.699,286.435,c),
(-10.005,286.435,o),
(9.995,286.435,o)
);
}
);
},
{
associatedMasterId = m006;
attr = {
coordinates = (
800,
1
);
};
layerId = m007;
name = ExtraBold;
shapes = (
{
closed = 1;
nodes = (
(-51.282,0,c),
(-50.718,99.733,o),
(-50.718,148.384,o),
(-51.314,271,c),
(-164.809,270.684,o),
(-207.279,270.684,o),
(-345.545,271,c),
(-346.163,148.384,o),
(-346.163,99.733,o),
(-345.512,0,c),
(-207.246,0,o),
(-164.776,0,o)
);
},
{
closed = 1;
nodes = (
(345.578,0,c),
(346.141,99.733,o),
(346.141,148.384,o),
(345.545,271,c),
(207.191,270.684,o),
(164.721,270.684,o),
(51.292,271,c),
(50.675,148.384,o),
(50.675,99.733,o),
(51.325,0,c),
(164.754,0,o),
(207.224,0,o)
);
},
{
closed = 1;
nodes = (
(145,376,c),
(145.563,475.733,o),
(145.563,524.384,o),
(145,622,c),
(21.224,621.684,o),
(-21.246,621.684,o),
(-144.35,622,c),
(-145,524.384,o),
(-145,475.733,o),
(-144.35,376,c),
(-21.246,376,o),
(21.224,376,o)
);
}
);
}
);
unicode = 64438;
},
{
glyphname = "symbolthreedotspointingdownwardsbelowmod-arab";
layers = (
{
associatedMasterId = m006;
attr = {
coordinates = (
100,
3
);
};
layerId = m000;
name = "Thin Dots3";
shapes = (
{
closed = 1;
nodes = (
(-161,-136.191,c),
(-138.373,-113.564,o),
(-93.891,-69.082,o),
(-71.905,-47.095,c),
(-96.332,-22.667,o),
(-140.815,21.815,o),
(-161,42,c),
(-182.989,20.006,o),
(-227.471,-24.466,o),
(-250.095,-47.095,c),
(-227.789,-69.402,o),
(-183.307,-113.884,o)
);
},
{
closed = 1;
nodes = (
(161,-136.191,c),
(183.627,-113.564,o),
(228.109,-69.082,o),
(250.095,-47.095,c),
(225.668,-22.667,o),
(181.185,21.815,o),
(161,42,c),
(139.011,20.006,o),
(94.529,-24.466,o),
(71.905,-47.095,c),
(94.211,-69.402,o),
(138.693,-113.884,o)
);
},
{
closed = 1;
nodes = (
(0,-418.191,c),
(22.627,-395.564,o),
(67.109,-351.082,o),
(89.095,-329.095,c),
(64.668,-304.667,o),
(20.185,-260.185,o),
(0,-240,c),
(-21.989,-261.994,o),
(-66.471,-306.466,o),
(-89.095,-329.095,c),
(-66.789,-351.402,o),
(-22.307,-395.884,o)
);
}
);
},
{
associatedMasterId = m006;
attr = {
coordinates = (
100,
2
);
};
layerId = m001;
name = "Thin Dots2";
shapes = (
{
closed = 1;
nodes = (
(10.115,-85,c),
(10.628,-34.594,o),
(10.628,-29.761,o),
(10.115,0,c),
(-97.671,-0.096,o),
(-136.349,-0.096,o),
(-254.056,0,c),
(-254.648,-29.761,o),
(-254.648,-34.594,o),
(-254.056,-85,c),
(-136.349,-85,o),
(-97.671,-85,o)
);
},
{
closed = 1;
nodes = (
(254.115,-85,c),
(254.628,-34.594,o),
(254.628,-29.761,o),
(254.115,0,c),
(136.329,-0.096,o),
(97.651,-0.096,o),
(-10.056,0,c),
(-10.648,-29.761,o),
(-10.648,-34.594,o),
(-10.056,-85,c),
(97.651,-85,o),
(136.329,-85,o)
);
},
{
closed = 1;
nodes = (
(65.73,-393.13,c),
(65.995,-352.13,o),
(65.995,-332.13,o),
(65.73,-292,c),
(9.995,-292.13,o),
(-10.005,-292.13,o),
(-65.699,-292,c),
(-66.005,-332.13,o),
(-66.005,-352.13,o),
(-65.699,-393.13,c),
(-10.005,-393.13,o),
(9.995,-393.13,o)
);
}
);
},
{
associatedMasterId = m006;
attr = {
coordinates = (
800,
3
);
};
layerId = m002;
name = "ExtraBold Dots3";
shapes = (
{
closed = 1;
nodes = (
(-180,-313,c),
(-131.746,-264.746,o),
(-36.887,-169.887,o),
(10,-123,c),
(-42.093,-70.906,o),
(-136.954,23.954,o),
(-180,67,c),
(-226.892,20.097,o),
(-321.751,-74.741,o),
(-370,-123,c),
(-322.43,-170.57,o),
(-227.57,-265.43,o)
);
},
{
closed = 1;
nodes = (
(180,-313,c),
(228.254,-264.746,o),
(323.113,-169.887,o),
(370,-123,c),
(317.907,-70.906,o),
(223.046,23.954,o),
(180,67,c),
(133.108,20.097,o),
(38.249,-74.741,o),
(-10,-123,c),
(37.57,-170.57,o),
(132.43,-265.43,o)
);
},
{
closed = 1;
nodes = (
(0,-627,c),
(44.444,-582.556,o),
(131.815,-495.185,o),
(175,-452,c),
(127.019,-404.018,o),
(39.648,-316.648,o),
(0,-277,c),
(-43.19,-320.2,o),
(-130.56,-407.551,o),
(-175,-452,c),
(-131.185,-495.815,o),
(-43.815,-583.185,o)
);
}
);
},
{
associatedMasterId = m006;
attr = {
coordinates = (
800,
2
);
};
layerId = m003;
name = "ExtraBold Dots2";
shapes = (
{
closed = 1;
nodes = (
(0.633,-261,c),
(20.635,-153.209,o),
(20.635,-102.977,o),
(0,0,c),
(-169.069,-0.326,o),
(-217,-0.326,o),
(-345.266,0,c),
(-346,-102.977,o),
(-346,-153.209,o),
(-344.633,-261,c),
(-216.367,-261,o),
(-168.436,-261,o)
);
},
{
closed = 1;
nodes = (
(346.633,-261,c),
(346.635,-153.209,o),
(346.635,-102.977,o),
(346,0,c),
(216.734,-0.326,o),
(168.803,-0.326,o),
(0.734,0,c),
(-20,-102.977,o),
(-20,-153.209,o),
(1.367,-261,c),
(169.436,-261,o),
(217.367,-261,o)
);
},
{
closed = 1;
nodes = (
(145,-622,c),
(145.563,-524.384,o),
(145.563,-475.733,o),
(145,-376,c),
(21.224,-376,o),
(-21.246,-376,o),
(-144.35,-376,c),
(-145,-475.733,o),
(-145,-524.384,o),
(-144.35,-622,c),
(-21.246,-621.684,o),
(21.224,-621.684,o)
);
}
);
},
{
associatedMasterId = m006;
attr = {
coordinates = (
100,
4
);
};
layerId = m004;
name = "Thin Dots4";
shapes = (
{
closed = 1;
nodes = (
(-80,-50,cs),
(-80,-11.34,o),
(-111.34,20,o),
(-150,20,cs),
(-188.66,20,o),
(-220,-11.34,o),
(-220,-50,cs),
(-220,-88.66,o),
(-188.66,-120,o),
(-150,-120,cs),
(-111.34,-120,o),
(-80,-88.66,o)
);
},
{
closed = 1;
nodes = (
(220,-50,cs),
(220,-11.34,o),
(188.66,20,o),
(150,20,cs),
(111.34,20,o),
(80,-11.34,o),
(80,-50,cs),
(80,-88.66,o),
(111.34,-120,o),
(150,-120,cs),
(188.66,-120,o),
(220,-88.66,o)
);
},
{
closed = 1;
nodes = (
(70,-330,cs),
(70,-291.34,o),
(38.66,-260,o),
(0,-260,cs),
(-38.66,-260,o),
(-70,-291.34,o),
(-70,-330,cs),
(-70,-368.66,o),
(-38.66,-400,o),
(0,-400,cs),
(38.66,-400,o),
(70,-368.66,o)
);
}
);
},
{
associatedMasterId = m006;
attr = {
coordinates = (
800,
4
);
};
layerId = m005;
name = "ExtraBold Dots4";
shapes = (
{
closed = 1;
nodes = (
(-30,-120,cs),
(-30,-37.157,o),
(-97.157,30,o),
(-180,30,cs),
(-262.843,30,o),
(-330,-37.157,o),
(-330,-120,cs),
(-330,-202.843,o),
(-262.843,-270,o),
(-180,-270,cs),
(-97.157,-270,o),
(-30,-202.843,o)
);
},
{
closed = 1;
nodes = (
(330,-120,cs),
(330,-37.157,o),
(262.843,30,o),
(180,30,cs),
(97.157,30,o),
(30,-37.157,o),
(30,-120,cs),
(30,-202.843,o),
(97.157,-270,o),
(180,-270,cs),
(262.843,-270,o),
(330,-202.843,o)
);
},
{
closed = 1;
nodes = (
(150,-440,cs),
(150,-357.157,o),
(82.843,-290,o),
(0,-290,cs),
(-82.843,-290,o),
(-150,-357.157,o),
(-150,-440,cs),
(-150,-522.843,o),
(-82.843,-590,o),
(0,-590,cs),
(82.843,-590,o),
(150,-522.843,o)
);
}
);
},
{
layerId = m006;
shapes = (
{
closed = 1;
nodes = (
(-86.268,-101.565,c),
(-86.003,-60.565,o),
(-86.003,-40.565,o),
(-86.268,-0.435,c),
(-142.003,-0.565,o),
(-162.003,-0.565,o),
(-217.696,-0.435,c),
(-218.003,-40.565,o),
(-218.003,-60.565,o),
(-217.696,-101.565,c),
(-162.003,-101.565,o),
(-142.003,-101.565,o)
);
},
{
closed = 1;
nodes = (
(217.727,-101.13,c),
(217.992,-60.13,o),
(217.992,-40.13,o),
(217.727,0,c),
(161.992,-0.13,o),
(141.992,-0.13,o),
(86.299,0,c),
(85.992,-40.13,o),
(85.992,-60.13,o),
(86.299,-101.13,c),
(141.992,-101.13,o),
(161.992,-101.13,o)
);
},
{
closed = 1;
nodes = (
(65.73,-393.13,c),
(65.995,-352.13,o),
(65.995,-332.13,o),
(65.73,-292,c),
(9.995,-292.13,o),
(-10.005,-292.13,o),
(-65.699,-292,c),
(-66.005,-332.13,o),
(-66.005,-352.13,o),
(-65.699,-393.13,c),
(-10.005,-393.13,o),
(9.995,-393.13,o)
);
}
);
},
{
associatedMasterId = m006;
attr = {
coordinates = (
800,
1
);
};
layerId = m007;
name = ExtraBold;
shapes = (
{
closed = 1;
nodes = (
(-51.314,-271.316,c),
(-50.718,-148.384,o),
(-50.718,-99.733,o),
(-51.282,0,c),
(-164.776,0,o),
(-207.246,0,o),
(-345.512,0,c),
(-346.163,-99.733,o),
(-346.163,-148.384,o),
(-345.545,-271.316,c),
(-207.279,-271,o),
(-164.809,-271,o)
);
},
{
closed = 1;
nodes = (
(345.545,-271.316,c),
(346.141,-148.384,o),
(346.141,-99.733,o),
(345.578,0,c),
(207.224,0,o),
(164.754,0,o),
(51.325,0,c),
(50.675,-99.733,o),
(50.675,-148.384,o),
(51.292,-271.316,c),
(164.721,-271,o),
(207.191,-271,o)
);
},
{
closed = 1;
nodes = (
(145,-622,c),
(145.563,-524.384,o),
(145.563,-475.733,o),
(145,-376,c),
(21.224,-376,o),
(-21.246,-376,o),
(-144.35,-376,c),
(-145,-475.733,o),
(-145,-524.384,o),
(-144.35,-622,c),
(-21.246,-621.684,o),
(21.224,-621.684,o)
);
}
);
}
);
unicode = 64441;
},
{
glyphname = uniE000;
layers = (
{
associatedMasterId = m006;
attr = {
coordinates = (
100,
3
);
};
layerId = m000;
name = "Thin Dots3";
shapes = (
{
closed = 1;
nodes = (
(-124.395,-122.789,c),
(-108.395,-95.076,o),
(-76.941,-40.597,o),
(-61.395,-13.67,c),
(-91.313,3.604,o),
(-145.792,35.057,o),
(-170.514,49.33,c),
(-186.061,22.395,o),
(-217.517,-32.074,o),
(-233.514,-59.789,c),
(-206.194,-75.562,o),
(-151.715,-107.016,o)
);
},
{
closed = 1;
nodes = (
(175.633,-45.449,c),
(191.633,-17.737,o),
(223.087,36.742,o),
(238.633,63.67,c),
(208.715,80.943,o),
(154.236,112.397,o),
(129.514,126.67,c),
(113.967,99.734,o),
(82.511,45.265,o),
(66.514,17.551,c),
(93.834,1.777,o),
(148.313,-29.676,o)
);
},
{
closed = 1;
nodes = (
(80.106,-294.51,c),
(96.106,-266.797,o),
(127.56,-212.319,o),
(143.106,-185.391,c),
(113.188,-168.118,o),
(58.709,-136.664,o),
(33.987,-122.391,c),
(18.44,-149.327,o),
(-13.016,-203.796,o),
(-29.013,-231.51,c),
(-1.693,-247.284,o),
(52.786,-278.737,o)
);
}
);
},
{
associatedMasterId = m006;
attr = {
coordinates = (
100,
2
);
};
layerId = m001;
name = "Thin Dots2";
shapes = (
{
closed = 1;
nodes = (
(10.115,-85,c),
(10.628,-34.594,o),
(10.628,-29.761,o),
(10.115,0,c),
(-97.671,-0.096,o),
(-136.349,-0.096,o),
(-254.056,0,c),
(-254.648,-29.761,o),
(-254.648,-34.594,o),
(-254.056,-85,c),
(-136.349,-85,o),
(-97.671,-85,o)
);
},
{
closed = 1;
nodes = (
(254.115,-85,c),
(254.628,-34.594,o),
(254.628,-29.761,o),
(254.115,0,c),
(136.329,-0.096,o),
(97.651,-0.096,o),
(-10.056,0,c),
(-10.648,-29.761,o),
(-10.648,-34.594,o),
(-10.056,-85,c),
(97.651,-85,o),
(136.329,-85,o)
);
},
{
closed = 1;
nodes = (
(65.73,-313.13,c),
(65.995,-272.13,o),
(65.995,-252.13,o),
(65.73,-212,c),
(9.995,-212.13,o),
(-10.005,-212.13,o),
(-65.699,-212,c),
(-66.005,-252.13,o),
(-66.005,-272.13,o),
(-65.699,-313.13,c),
(-10.005,-313.13,o),
(9.995,-313.13,o)
);
}
);
},
{
associatedMasterId = m006;
attr = {
coordinates = (
800,
3
);
};
layerId = m002;
name = "ExtraBold Dots3";
shapes = (
{
closed = 1;
nodes = (
(-130.116,-263.587,c),
(-104.738,-219.632,o),
(-54.85,-133.222,o),
(-30.191,-90.512,c),
(-77.644,-63.115,o),
(-164.054,-13.226,o),
(-203.266,9.413,c),
(-227.926,-33.31,o),
(-277.818,-119.704,o),
(-303.191,-163.662,c),
(-259.858,-188.681,o),
(-173.449,-238.569,o)
);
},
{
closed = 1;
nodes = (
(159.884,-185.587,c),
(185.262,-141.632,o),
(235.15,-55.222,o),
(259.809,-12.512,c),
(212.356,14.885,o),
(125.946,64.774,o),
(86.734,87.413,c),
(62.074,44.69,o),
(12.182,-41.704,o),
(-13.191,-85.662,c),
(30.142,-110.681,o),
(116.551,-160.569,o)
);
},
{
closed = 1;
nodes = (
(60.597,-382.587,c),
(83,-343.784,o),
(127.041,-267.503,o),
(148.809,-229.8,c),
(106.918,-205.613,o),
(30.637,-161.573,o),
(-3.979,-141.587,c),
(-25.748,-179.302,o),
(-69.792,-255.57,o),
(-92.191,-294.375,c),
(-53.937,-316.461,o),
(22.343,-360.502,o)
);
}
);
},
{
associatedMasterId = m006;
attr = {
coordinates = (
800,
2
);
};
layerId = m003;
name = "ExtraBold Dots2";
shapes = (
{
closed = 1;
nodes = (
(3.698,-156,c),
(4.101,-96.161,o),
(4.101,-61.354,o),
(3.698,0,c),
(-110.84,0,o),
(-141.176,0,o),
(-225.652,0,c),
(-226.116,-61.354,o),
(-226.116,-96.161,o),
(-225.652,-156,c),
(-141.176,-155.774,o),
(-110.84,-155.774,o)
);
},
{
closed = 1;
nodes = (
(225.698,-156,c),
(226.101,-96.161,o),
(226.101,-61.354,o),
(225.698,0,c),
(141.16,0,o),
(110.824,0,o),
(-3.652,0,c),
(-4.116,-61.354,o),
(-4.116,-96.161,o),
(-3.652,-156,c),
(110.824,-155.774,o),
(141.16,-155.774,o)
);
},
{
closed = 1;
nodes = (
(99.698,-374,c),
(100.101,-311.303,o),
(100.101,-280.056,o),
(99.698,-216,c),
(15.16,-216,o),
(-15.176,-216,o),
(-99.652,-216,c),
(-100.116,-280.056,o),
(-100.116,-311.303,o),
(-99.652,-374,c),
(-15.176,-373.797,o),
(15.16,-373.797,o)
);
}
);
},
{
associatedMasterId = m006;
attr = {
coordinates = (
100,
4
);
};
layerId = m004;
name = "Thin Dots4";
shapes = (
{
closed = 1;
nodes = (
(-79,-36,cs),
(-79,2.66,o),
(-110.34,34,o),
(-149,34,cs),
(-187.66,34,o),
(-219,2.66,o),
(-219,-36,cs),
(-219,-74.66,o),
(-187.66,-106,o),
(-149,-106,cs),
(-110.34,-106,o),
(-79,-74.66,o)
);
},
{
closed = 1;
nodes = (
(214,44,cs),
(214,82.66,o),
(182.66,114,o),
(144,114,cs),
(105.34,114,o),
(74,82.66,o),
(74,44,cs),
(74,5.34,o),
(105.34,-26,o),
(144,-26,cs),
(182.66,-26,o),
(214,5.34,o)
);
},
{
closed = 1;
nodes = (
(128,-213,cs),
(128,-174.34,o),
(96.66,-143,o),
(58,-143,cs),
(19.34,-143,o),
(-12,-174.34,o),
(-12,-213,cs),
(-12,-251.66,o),
(19.34,-283,o),
(58,-283,cs),
(96.66,-283,o),
(128,-251.66,o)
);
}
);
},
{
associatedMasterId = m006;
attr = {
coordinates = (
800,
4
);
};
layerId = m005;
name = "ExtraBold Dots4";
shapes = (
{
closed = 1;
nodes = (
(-54,-94,cs),
(-54,-33.249,o),
(-103.249,16,o),
(-164,16,cs),
(-224.751,16,o),
(-274,-33.249,o),
(-274,-94,cs),
(-274,-154.751,o),
(-224.751,-204,o),
(-164,-204,cs),
(-103.249,-204,o),
(-54,-154.751,o)
);
},
{
closed = 1;
nodes = (
(234,-48,cs),
(234,12.751,o),
(184.751,62,o),
(124,62,cs),
(63.249,62,o),
(14,12.751,o),
(14,-48,cs),
(14,-108.751,o),
(63.249,-158,o),
(124,-158,cs),
(184.751,-158,o),
(234,-108.751,o)
);
},
{
closed = 1;
nodes = (
(140,-267,cs),
(140,-206.249,o),
(90.751,-157,o),
(30,-157,cs),
(-30.751,-157,o),
(-80,-206.249,o),
(-80,-267,cs),
(-80,-327.751,o),
(-30.751,-377,o),
(30,-377,cs),
(90.751,-377,o),
(140,-327.751,o)
);
}
);
},
{
layerId = m006;
shapes = (
{
closed = 1;
nodes = (
(-86.268,-101.565,c),
(-86.003,-60.565,o),
(-86.003,-40.565,o),
(-86.268,-0.435,c),
(-142.003,-0.565,o),
(-162.003,-0.565,o),
(-217.696,-0.435,c),
(-218.003,-40.565,o),
(-218.003,-60.565,o),
(-217.696,-101.565,c),
(-162.003,-101.565,o),
(-142.003,-101.565,o)
);
},
{
closed = 1;
nodes = (
(217.727,-101.13,c),
(217.992,-60.13,o),
(217.992,-40.13,o),
(217.727,0,c),
(161.992,-0.13,o),
(141.992,-0.13,o),
(86.299,0,c),
(85.992,-40.13,o),
(85.992,-60.13,o),
(86.299,-101.13,c),
(141.992,-101.13,o),
(161.992,-101.13,o)
);
},
{
closed = 1;
nodes = (
(65.73,-313.13,c),
(65.995,-272.13,o),
(65.995,-252.13,o),
(65.73,-212,c),
(9.995,-212.13,o),
(-10.005,-212.13,o),
(-65.699,-212,c),
(-66.005,-252.13,o),
(-66.005,-272.13,o),
(-65.699,-313.13,c),
(-10.005,-313.13,o),
(9.995,-313.13,o)
);
}
);
},
{
associatedMasterId = m006;
attr = {
coordinates = (
800,
1
);
};
layerId = m007;
name = ExtraBold;
shapes = (
{
closed = 1;
nodes = (
(-26.302,-176,c),
(-25.899,-106.161,o),
(-25.899,-71.354,o),
(-26.302,0,c),
(-110.84,0,o),
(-141.176,0,o),
(-225.652,0,c),
(-226.116,-71.354,o),
(-226.116,-106.161,o),
(-225.652,-176,c),
(-141.176,-175.774,o),
(-110.84,-175.774,o)
);
},
{
closed = 1;
nodes = (
(225.698,-176,c),
(226.101,-106.161,o),
(226.101,-71.354,o),
(225.698,0,c),
(141.16,0,o),
(110.824,0,o),
(26.348,0,c),
(25.884,-71.354,o),
(25.884,-106.161,o),
(26.348,-176,c),
(110.824,-175.774,o),
(141.16,-175.774,o)
);
},
{
closed = 1;
nodes = (
(99.698,-374,c),
(100.101,-311.303,o),
(100.101,-280.056,o),
(99.698,-216,c),
(15.16,-216,o),
(-15.176,-216,o),
(-99.652,-216,c),
(-100.116,-280.056,o),
(-100.116,-311.303,o),
(-99.652,-374,c),
(-15.176,-373.797,o),
(15.16,-373.797,o)
);
}
);
}
);
unicode = 57344;
},
{
glyphname = "hamza-arab";
layers = (
{
anchors = (
{
name = "top-arab";
pos = (560,752);
},
{
name = "bottom-arab";
pos = (0,0);
}
);
layerId = m006;
shapes = (
{
closed = 1;
nodes = (
(215,41.641,l),
(234.948,-10.784,l),
(908.699,247.634,l),
(888.752,300.059,l),
(562.346,175.366,l),
(404.876,173.216,o),
(311.386,303.641,o),
(311.386,437.954,cs),
(311.386,570.399,o),
(405.614,714.516,o),
(559.144,715.693,cs),
(666.941,716.869,o),
(738.549,670.719,o),
(776.052,641.477,c),
(789.784,701.987,l),
(761.327,723.314,o),
(681.02,772.163,o),
(560.255,772.163,cs),
(372.268,772.163,o),
(254.915,598.895,o),
(254.915,437.954,cs),
(254.915,303.765,o),
(333.712,174.922,o),
(467.333,138.092,c)
);
}
);
width = 1063;
},
{
anchors = (
{
name = "top-arab";
pos = (567,984);
},
{
name = "bottom-arab";
pos = (500,0);
}
);
associatedMasterId = m006;
attr = {
coordinates = (
800,
1
);
};
layerId = m007;
name = ExtraBold;
shapes = (
{
closed = 1;
nodes = (
(120.588,246.608,l),
(223.804,-21.765,l),
(978.078,270.51,l),
(874.863,538.882,l),
(598.784,432.49,l),
(490.725,442.235,o),
(460.373,508.608,o),
(460.373,563.314,cs),
(460.373,617.98,o),
(487.804,679.745,o),
(550.745,697.392,cs),
(613.706,715.039,o),
(679.824,680.784,o),
(738.373,634.157,c),
(846.353,897.804,l),
(811.49,923.706,o),
(712.882,984.451,o),
(567.412,984.451,cs),
(323.608,984.451,o),
(173.314,765.431,o),
(173.314,563.314,cs),
(173.314,468.471,o),
(207.275,369.824,o),
(279.588,307.373,c)
);
}
);
width = 1097;
}
);
unicode = (1569,65152);
},
{
glyphname = uni0627_alt.short;
layers = (
{
anchors = (
{
name = "top-arab";
pos = (250,1279);
},
{
name = "bottom-arab";
pos = (0,0);
}
);
layerId = m006;
shapes = (
{
closed = 1;
nodes = (
(221,1279,l),
(221.281,0,l),
(279.843,0,l),
(279.562,1279,l)
);
}
);
width = 501;
},
{
anchors = (
{
name = "top-arab";
pos = (315,1364);
},
{
name = "bottom-arab";
pos = (315,0);
}
);
associatedMasterId = m006;
attr = {
coordinates = (
800,
1
);
};
layerId = m007;
name = ExtraBold;
shapes = (
{
closed = 1;
nodes = (
(156,1364,l),
(156.216,0,l),
(474.647,0,l),
(474.431,1364,l)
);
}
);
width = 631;
}
);
},
{
glyphname = "alef-arab.fina.short";
layers = (
{
anchors = (
{
name = "top-arab";
pos = (250,1279);
},
{
name = "bottom-arab";
pos = (0,0);
}
);
layerId = m006;
shapes = (
{
closed = 1;
nodes = (
(601.739,0,l),
(601.739,60,l),
(547.948,60,l),
(399.157,60,o),
(279.843,179.967,o),
(279.843,328.758,cs),
(279.562,1279,l),
(221,1279,l),
(221.281,325.948,l),
(221.281,146.268,o),
(364.739,0,o),
(547.948,0,cs)
);
}
);
width = 602;
},
{
anchors = (
{
name = "top-arab";
pos = (315,1364);
},
{
name = "bottom-arab";
pos = (315,0);
}
);
associatedMasterId = m006;
attr = {
coordinates = (
800,
1
);
};
layerId = m007;
name = ExtraBold;
shapes = (
{
closed = 1;
nodes = (
(653.078,0,l),
(653.078,340,l),
(586.216,340,l),
(524.353,340,o),
(474.647,389.51,o),
(474.647,451.373,cs),
(474.216,1364,l),
(155.784,1364,l),
(156.216,409.216,l),
(156.216,192.02,o),
(316.078,0,o),
(586.216,0,cs)
);
}
);
width = 653;
}
);
},
{
glyphname = "alef-arab";
layers = (
{
anchors = (
{
name = "top-arab";
pos = (250,1483);
},
{
name = "bottom-arab";
pos = (0,0);
}
);
layerId = m006;
shapes = (
{
closed = 1;
nodes = (
(221,1483,l),
(221.281,0,l),
(279.843,0,l),
(279.562,1483,l)
);
}
);
width = 501;
},
{
anchors = (
{
name = "top-arab";
pos = (315,1524);
},
{
name = "bottom-arab";
pos = (315,0);
}
);
associatedMasterId = m006;
attr = {
coordinates = (
800,
1
);
};
layerId = m007;
name = ExtraBold;
shapes = (
{
closed = 1;
nodes = (
(156,1524,l),
(156.216,0,l),
(474.647,0,l),
(474.431,1524,l)
);
}
);
width = 631;
}
);
unicode = (1575,65165);
},
{
glyphname = "alef-arab.fina";
layers = (
{
anchors = (
{
name = "top-arab";
pos = (250,1483);
},
{
name = "bottom-arab";
pos = (0,0);
}
);
layerId = m006;
shapes = (
{
closed = 1;
nodes = (
(641.739,0,l),
(641.739,60,l),
(547.948,60,l),
(399.157,60,o),
(279.843,179.967,o),
(279.843,328.758,cs),
(279.562,1483,l),
(221,1483,l),
(221.281,325.948,l),
(221.281,146.268,o),
(364.739,0,o),
(547.948,0,cs)
);
}
);
width = 642;
},
{
anchors = (
{
name = "top-arab";
pos = (315,1524);
},
{
name = "bottom-arab";
pos = (315,0);
}
);
associatedMasterId = m006;
attr = {
coordinates = (
800,
1
);
};
layerId = m007;
name = ExtraBold;
shapes = (
{
closed = 1;
nodes = (
(653.078,0,l),
(653.078,340,l),
(586.216,340,l),
(524.353,340,o),
(474.647,389.51,o),
(474.647,451.373,cs),
(474.431,1524,l),
(156,1524,l),
(156.216,409.216,l),
(156.216,192.02,o),
(316.078,0,o),
(586.216,0,cs)
);
}
);
width = 653;
}
);
unicode = 65166;
},
{
glyphname = arabictatweelmod;
layers = (
{
anchors = (
{
name = "top-arab";
pos = (151,252);
},
{
name = "bottom-arab";
pos = (0,0);
}
);
layerId = m006;
shapes = (
{
closed = 1;
nodes = (
(0.294,60,l),
(-80.098,54.314,o),
(-80.098,5.621,o),
(0.294,0,c),
(302.908,0,l),
(302.908,60,l)
);
}
);
width = 303;
},
{
anchors = (
{
name = "top-arab";
pos = (150,416);
},
{
name = "bottom-arab";
pos = (150,0);
}
);
associatedMasterId = m006;
attr = {
coordinates = (
800,
1
);
};
layerId = m007;
name = ExtraBold;
shapes = (
{
closed = 1;
nodes = (
(0,340,l),
(-85.882,254.706,o),
(-85.882,84.314,o),
(0,0,c),
(299.216,0,l),
(299.216,340,l)
);
}
);
width = 299;
}
);
unicode = (1600,57525);
},
{
glyphname = "dotlessbeh-arab.fina";
layers = (
{
anchors = (
{
name = "top-arab";
pos = (928,433);
},
{
name = "bottom-arab";
pos = (0,0);
}
);
layerId = m006;
shapes = (
{
closed = 1;
nodes = (
(508.802,60,l),
(330.076,60,o),
(192.043,230.967,o),
(241.043,431.758,cs),
(291.988,624,l),
(234.481,641.765,l),
(183.481,443.948,l),
(122.481,196.614,o),
(297.749,0,o),
(508.802,0,cs),
(1317.31,0,l),
(1454.265,0,o),
(1568.977,83.712,o),
(1615.349,203.098,c),
(1661.722,83.712,o),
(1776.434,0,o),
(1913.389,0,cs),
(2005.676,0,l),
(2005.676,60,l),
(1913.389,60,l),
(1764.598,60,o),
(1644.631,179.967,o),
(1644.631,328.758,cs),
(1644.774,632,l),
(1586.212,632,l),
(1586.068,328.758,l),
(1586.068,179.967,o),
(1466.036,60,o),
(1317.31,60,cs)
);
}
);
width = 2006;
},
{
anchors = (
{
name = "top-arab";
pos = (948,616);
},
{
name = "bottom-arab";
pos = (948,0);
}
);
associatedMasterId = m006;
attr = {
coordinates = (
800,
1
);
};
layerId = m007;
name = ExtraBold;
shapes = (
{
closed = 1;
nodes = (
(583.168,340,l),
(452.286,340,o),
(425.796,461.51,o),
(454.796,565.373,cs),
(517.011,772.551,l),
(198.039,861.246,l),
(140.563,627.216,l),
(58.563,282.216,o),
(270.583,0,o),
(578.367,0,cs),
(1306.118,0,l),
(1428.431,0,o),
(1511.118,51.686,o),
(1576.706,134.471,c),
(1642.294,51.686,o),
(1724.98,0,o),
(1847.294,0,cs),
(1911.608,0,l),
(1911.608,340,l),
(1847.294,340,l),
(1786.412,340,o),
(1735.922,389.51,o),
(1735.922,451.373,cs),
(1735.216,816,l),
(1416.784,816,l),
(1417.49,451.373,l),
(1417.49,389.51,o),
(1367,340,o),
(1306.118,340,cs)
);
}
);
width = 1912;
}
);
},
{
glyphname = "uighurkazakhkirghizalefmaksura-arab.init";
layers = (
{
anchors = (
{
name = "top-arab";
pos = (266,632);
},
{
name = "bottom-arab";
pos = (0,0);
}
);
layerId = m006;
shapes = (
{
closed = 1;
nodes = (
(0.294,60,l),
(-80.098,54.314,o),
(-80.098,5.621,o),
(0.294,0,c),
(168,0,l),
(349.052,0,o),
(495.32,145.614,o),
(495.32,325.948,cs),
(495.32,631.765,l),
(436.758,631.765,l),
(436.758,328.758,l),
(436.758,179.967,o),
(316.725,60,o),
(168,60,cs)
);
}
);
width = 666;
},
{
anchors = (
{
name = "top-arab";
pos = (453,816);
},
{
name = "bottom-arab";
pos = (185,0);
}
);
associatedMasterId = m006;
attr = {
coordinates = (
800,
1
);
};
layerId = m007;
name = ExtraBold;
shapes = (
{
closed = 1;
nodes = (
(0,340,l),
(-85.882,254.706,o),
(-85.882,84.314,o),
(0,0,c),
(184.706,0,l),
(422.49,0,o),
(614.51,182.216,o),
(614.51,409.216,cs),
(614.51,816.471,l),
(296.078,816.471,l),
(296.078,451.373,l),
(296.078,389.51,o),
(245.588,340,o),
(184.706,340,cs)
);
}
);
width = 735;
}
);
unicode = 64488;
},
{
glyphname = "uighurkazakhkirghizalefmaksura-arab.medi";
layers = (
{
anchors = (
{
name = "top-arab";
pos = (266,632);
},
{
name = "bottom-arab";
pos = (0,0);
}
);
layerId = m006;
shapes = (
{
closed = 1;
nodes = (
(0.294,60,l),
(-80.098,54.314,o),
(-80.098,5.621,o),
(0.294,0,c),
(167.941,0,l),
(304.895,0,o),
(419.608,83.712,o),
(465.98,203.098,c),
(512.353,83.712,o),
(627.065,0,o),
(764.02,0,cs),
(856.307,0,l),
(856.307,60,l),
(764.02,60,l),
(615.294,60,o),
(495.261,179.967,o),
(495.261,328.758,cs),
(495.281,632,l),
(436.719,632,l),
(436.699,328.758,l),
(436.699,179.967,o),
(316.667,60,o),
(167.941,60,cs)
);
}
);
width = 856;
},
{
anchors = (
{
name = "top-arab";
pos = (453,816);
},
{
name = "bottom-arab";
pos = (185,0);
}
);
associatedMasterId = m006;
attr = {
coordinates = (
800,
1
);
};
layerId = m007;
name = ExtraBold;
shapes = (
{
closed = 1;
nodes = (
(0,340,l),
(-85.882,254.706,o),
(-85.882,84.314,o),
(0,0,c),
(184.706,0,l),
(307.02,0,o),
(389.706,51.686,o),
(455.294,134.471,c),
(520.882,51.686,o),
(603.569,0,o),
(725.882,0,cs),
(790.196,0,l),
(790.196,340,l),
(725.882,340,l),
(665,340,o),
(614.51,389.51,o),
(614.51,451.373,cs),
(614.216,816,l),
(295.784,816,l),
(296.078,451.373,l),
(296.078,389.51,o),
(245.588,340,o),
(184.706,340,cs)
);
}
);
width = 790;
}
);
unicode = 64489;
},
{
glyphname = uniE002;
layers = (
{
layerId = m006;
shapes = (
{
closed = 1;
nodes = (
(0.294,60,l),
(-80.098,54.314,o),
(-80.098,5.621,o),
(0.294,0,c),
(142.124,0,l),
(323.176,0,o),
(469.444,145.614,o),
(469.444,325.948,cs),
(469.444,631.765,l),
(410.882,631.765,l),
(410.882,328.758,l),
(410.882,179.967,o),
(290.85,60,o),
(142.124,60,cs)
);
}
);
width = 640;
},
{
associatedMasterId = m006;
attr = {
coordinates = (
800,
1
);
};
layerId = m007;
name = ExtraBold;
shapes = (
{
closed = 1;
nodes = (
(0,340,l),
(-85.882,254.706,o),
(-85.882,84.314,o),
(0,0,c),
(187.451,0,l),
(425.235,0,o),
(617.255,182.216,o),
(617.255,409.216,cs),
(617.255,816.471,l),
(298.824,816.471,l),
(298.824,451.373,l),
(298.824,389.51,o),
(248.333,340,o),
(187.451,340,cs)
);
}
);
width = 737;
}
);
unicode = 57346;
},
{
glyphname = uniE003;
layers = (
{
layerId = m006;
shapes = (
{
closed = 1;
nodes = (
(0.294,60,l),
(-80.098,54.314,o),
(-80.098,5.621,o),
(0.294,0,c),
(162.124,0,l),
(299.078,0,o),
(413.791,83.712,o),
(460.163,203.098,c),
(506.536,83.712,o),
(621.248,0,o),
(758.203,0,cs),
(850.49,0,l),
(850.49,60,l),
(758.203,60,l),
(609.477,60,o),
(489.444,179.967,o),
(489.444,328.758,cs),
(489.281,632,l),
(430.719,632,l),
(430.882,328.758,l),
(430.882,179.967,o),
(310.85,60,o),
(162.124,60,cs)
);
}
);
width = 850;
},
{
associatedMasterId = m006;
attr = {
coordinates = (
800,
1
);
};
layerId = m007;
name = ExtraBold;
shapes = (
{
closed = 1;
nodes = (
(0,340,l),
(-85.882,254.706,o),
(-85.882,84.314,o),
(0,0,c),
(187.451,0,l),
(309.765,0,o),
(392.451,51.686,o),
(458.039,134.471,c),
(523.627,51.686,o),
(606.314,0,o),
(728.627,0,cs),
(792.941,0,l),
(792.941,340,l),
(728.627,340,l),
(667.745,340,o),
(617.255,389.51,o),
(617.255,451.373,cs),
(617.216,816,l),
(298.784,816,l),
(298.824,451.373,l),
(298.824,389.51,o),
(248.333,340,o),
(187.451,340,cs)
);
}
);
width = 793;
}
);
unicode = 57347;
},
{
glyphname = uniE006;
layers = (
{
layerId = m006;
shapes = (
{
closed = 1;
nodes = (
(0.294,60,l),
(-80.098,54.314,o),
(-80.098,5.621,o),
(0.294,0,c),
(400.163,0,l),
(581.216,0,o),
(727.484,145.614,o),
(727.484,325.948,cs),
(727.484,631.765,l),
(668.922,631.765,l),
(668.922,328.758,l),
(668.922,179.967,o),
(548.889,60,o),
(400.163,60,cs)
);
}
);
width = 898;
},
{
associatedMasterId = m006;
attr = {
coordinates = (
800,
1
);
};
layerId = m007;
name = ExtraBold;
shapes = (
{
closed = 1;
nodes = (
(0,340,l),
(-85.882,254.706,o),
(-85.882,84.314,o),
(0,0,c),
(508.039,0,l),
(745.824,0,o),
(937.843,182.216,o),
(937.843,409.216,cs),
(937.843,816.471,l),
(619.412,816.471,l),
(619.412,451.373,l),
(619.412,389.51,o),
(568.922,340,o),
(508.039,340,cs)
);
}
);
width = 1058;
}
);
unicode = 57350;
},
{
glyphname = uniE007;
layers = (
{
layerId = m006;
shapes = (
{
closed = 1;
nodes = (
(0.294,60,l),
(-80.098,54.314,o),
(-80.098,5.621,o),
(0.294,0,c),
(400.294,0,l),
(537.248,0,o),
(651.961,83.712,o),
(698.333,203.098,c),
(744.706,83.712,o),
(859.418,0,o),
(996.373,0,cs),
(1088.66,0,l),
(1088.66,60,l),
(996.373,60,l),
(847.647,60,o),
(727.614,179.967,o),
(727.614,328.758,cs),
(727.281,632,l),
(668.719,632,l),
(669.052,328.758,l),
(669.052,179.967,o),
(549.02,60,o),
(400.294,60,cs)
);
}
);
width = 1089;
},
{
associatedMasterId = m006;
attr = {
coordinates = (
800,
1
);
};
layerId = m007;
name = ExtraBold;
shapes = (
{
closed = 1;
nodes = (
(0,340,l),
(-85.882,254.706,o),
(-85.882,84.314,o),
(0,0,c),
(400,0,l),
(522.314,0,o),
(605,51.686,o),
(670.588,134.471,c),
(736.176,51.686,o),
(818.863,0,o),
(941.176,0,cs),
(1005.49,0,l),
(1005.49,340,l),
(941.176,340,l),
(880.294,340,o),
(829.804,389.51,o),
(829.804,451.373,cs),
(830.216,816,l),
(511.784,816,l),
(511.373,451.373,l),
(511.373,389.51,o),
(460.882,340,o),
(400,340,cs)
);
}
);
width = 1005;
}
);
unicode = 57351;
},
{
glyphname = "hah-arab";
layers = (
{
anchors = (
{
name = "top-arab";
pos = (694,957);
},
{
name = "bottom-arab";
pos = (800,-721);
}
);
layerId = m006;
shapes = (
{
closed = 1;
nodes = (
(1289.415,513.614,c),
(459.513,157.268,l),
(303.834,87.876,o),
(161,-81.392,o),
(161,-267.268,cs),
(161,-510.061,o),
(379.996,-720.065,o),
(602.722,-721,cs),
(1237,-721,l),
(1237,-661.065,l),
(602.722,-661.065,l),
(402.06,-661.065,o),
(217.73,-464.522,o),
(219.349,-266.733,cs),
(220.618,-111.682,o),
(345.333,42.898,o),
(481.115,103.752,cs),
(1356.428,482.634,l),
(1359.147,538.418,l),
(1329.147,538.418,o),
(899.245,799.327,o),
(694.396,916.366,cs),
(539.559,1004.693,o),
(351.964,931.732,o),
(279.808,731.444,cs),
(271.043,708.784,l),
(325.906,687.007,l),
(334.67,709.667,l),
(395.272,882.471,o),
(547.755,933.824,o),
(667.598,865.046,cs),
(830.239,771.098,o),
(1100.651,569.484,o)
);
}
);
width = 1486;
},
{
anchors = (
{
name = "top-arab";
pos = (747,1110);
},
{
name = "bottom-arab";
pos = (748,-684);
}
);
associatedMasterId = m006;
attr = {
coordinates = (
800,
1
);
};
layerId = m007;
name = ExtraBold;
shapes = (
{
closed = 1;
nodes = (
(1118.61,593.098,c),
(576.159,442.765,l),
(236.884,341.02,o),
(93.727,65.216,o),
(108.433,-162.49,cs),
(127.041,-469.725,o),
(332.473,-683.98,o),
(713.237,-684,cs),
(1280,-684,l),
(1280,-364.98,l),
(713.237,-364.98,l),
(553.884,-364.98,o),
(457.767,-276.706,o),
(441.041,-198.333,cs),
(415.824,-80.172,o),
(450.316,46.529,o),
(690.178,145,cs),
(1379.806,408.392,l),
(1392.59,755.157,l),
(1392.59,755.157,o),
(984.061,1006.784,o),
(767.316,1096.373,cs),
(544.767,1189.275,o),
(306.845,1088.863,o),
(204.492,856.549,cs),
(171.022,782.647,l),
(461.963,651.98,l),
(495.433,725.882,l),
(519,778,o),
(578.708,830.235,o),
(645.355,802.569,cs),
(712.002,774.902,o),
(885.139,667.137,o)
);
}
);
width = 1475;
}
);
unicode = (1581,65185);
},
{
glyphname = "hah-arab.fina";
layers = (
{
anchors = (
{
name = "top-arab";
pos = (694,957);
},
{
name = "bottom-arab";
pos = (800,-721);
}
);
layerId = m006;
shapes = (
{
closed = 1;
nodes = (
(1137.46,387.853,l),
(1356.428,482.634,l),
(1359.147,538.418,l),
(1329.147,538.418,o),
(899.245,799.327,o),
(694.396,916.366,cs),
(539.559,1004.693,o),
(351.964,931.732,o),
(279.808,731.444,cs),
(271.043,708.784,l),
(325.906,687.007,l),
(334.67,709.667,l),
(395.272,882.471,o),
(547.755,933.824,o),
(667.598,865.046,cs),
(830.239,771.098,o),
(1100.651,569.484,o),
(1289.415,513.614,c),
(459.513,157.268,l),
(303.834,87.876,o),
(161,-81.392,o),
(161,-267.268,cs),
(161,-510.061,o),
(379.996,-720.065,o),
(602.722,-721,cs),
(1237,-721,l),
(1237,-661.065,l),
(602.722,-661.065,l),
(402.06,-661.065,o),
(217.73,-464.522,o),
(219.349,-266.733,cs),
(220.618,-111.682,o),
(345.333,42.898,o),
(481.115,103.752,cs),
(1085.607,365.408,l),
(1119.065,191,l),
(1150.065,33,o),
(1306.065,0,o),
(1382.765,0,cs),
(1538.065,0,l),
(1538.065,60,l),
(1382.765,60,l),
(1320.229,60,o),
(1198.065,79,o),
(1172.065,210,cs)
);
}
);
width = 1538;
},
{
anchors = (
{
name = "top-arab";
pos = (747,1110);
},
{
name = "bottom-arab";
pos = (748,-684);
}
);
associatedMasterId = m006;
attr = {
coordinates = (
800,
1
);
};
layerId = m007;
name = ExtraBold;
shapes = (
{
closed = 1;
nodes = (
(1281.194,364.341,l),
(1379.806,408.392,l),
(1392.59,755.157,l),
(1392.59,755.157,o),
(984.061,1006.784,o),
(767.316,1096.373,cs),
(544.767,1189.275,o),
(306.845,1088.863,o),
(204.492,856.549,cs),
(171.022,782.647,l),
(461.963,651.98,l),
(495.433,725.882,l),
(517.453,777.941,o),
(578.708,830.235,o),
(645.355,802.569,cs),
(712.002,774.902,o),
(885.139,667.137,o),
(1118.61,593.098,c),
(576.159,442.765,l),
(236.884,341.02,o),
(93.727,65.216,o),
(108.433,-162.49,cs),
(127.041,-469.725,o),
(332.473,-683.98,o),
(713.237,-684,cs),
(1280,-684,l),
(1280,-364.98,l),
(713.237,-364.98,l),
(553.884,-364.98,o),
(457.767,-276.706,o),
(441.041,-198.333,cs),
(415.824,-80.172,o),
(450.316,46.529,o),
(690.178,145,cs),
(1028.175,275.549,l),
(1056.731,158.627,l),
(1085.182,39.608,o),
(1204,0,o),
(1344.49,0,cs),
(1509.857,0,l),
(1509.857,340,l),
(1354.49,340,l),
(1330.451,340,o),
(1289.28,342.333,o),
(1285.516,352.804,cs)
);
}
);
width = 1490;
}
);
unicode = 65186;
},
{
glyphname = "hah-arab.init";
layers = (
{
anchors = (
{
name = "top-arab";
pos = (649,833);
},
{
name = "bottom-arab";
pos = (649,40);
}
);
layerId = m006;
shapes = (
{
closed = 1;
nodes = (
(0.294,60,l),
(-80.098,54.314,o),
(-80.098,5.621,o),
(0.294,0,c),
(237.902,0,l),
(735.922,0,o),
(1281.856,389.497,o),
(1317.902,394.216,c),
(1314.922,445.778,l),
(1274.922,445.778,o),
(853.843,676.163,o),
(648.928,793.203,cs),
(494.092,881.464,o),
(306.562,808.569,o),
(234.34,608.281,cs),
(225.967,586.405,l),
(280.83,564.627,l),
(289.268,586.503,l),
(349.804,759.307,o),
(502.288,810.66,o),
(622.131,741.882,cs),
(789.294,645.739,o),
(1127.686,469.732,o),
(1252.627,416.34,c),
(1109.791,344.078,o),
(642.425,60,o),
(237.902,60,cs)
);
}
);
width = 1427;
},
{
anchors = (
{
name = "top-arab";
pos = (682,1020);
},
{
name = "bottom-arab";
pos = (682,20);
}
);
associatedMasterId = m006;
attr = {
coordinates = (
800,
1
);
};
layerId = m007;
name = ExtraBold;
shapes = (
{
closed = 1;
nodes = (
(0.412,340,l),
(-85.471,254.706,o),
(-85.471,84.314,o),
(0.412,0,c),
(242.529,0,l),
(866.824,0,o),
(1291.843,388.451,o),
(1312.529,403.235,c),
(1305.824,674.667,l),
(1305.824,674.667,o),
(899.647,888.451,o),
(681.922,978.039,cs),
(459.373,1069.961,o),
(222.431,970.529,o),
(119.098,738.216,cs),
(81.51,656.078,l),
(372.451,525.412,l),
(411.02,607.549,l),
(445.059,683.608,o),
(499.314,709.902,o),
(559.961,684.235,cs),
(659.436,642.136,o),
(883.294,553.98,o),
(1019.412,495.098,c),
(868.863,449.176,o),
(514.373,340,o),
(242.529,340,cs)
);
}
);
width = 1395;
}
);
unicode = 65187;
},
{
glyphname = "hah-arab.medi";
layers = (
{
anchors = (
{
name = "top-arab";
pos = (649,833);
},
{
name = "bottom-arab";
pos = (0,0);
}
);
layerId = m006;
shapes = (
{
closed = 1;
nodes = (
(1005.347,230.036,c),
(1183.013,78.203,l),
(1239.183,28.242,o),
(1313.817,0,o),
(1390.582,0,cs),
(1529,0,l),
(1529,60,l),
(1390.582,60,l),
(1328.111,60,o),
(1267.444,81.497,o),
(1219.928,120.882,cs),
(1058.398,257.291,l),
(1038.233,258.406,o),
(1013.047,243.568,o)
);
},
{
closed = 1;
nodes = (
(0.294,60,l),
(-80.098,54.314,o),
(-80.098,5.621,o),
(0.294,0,c),
(237.902,0,l),
(735.922,0,o),
(1281.856,389.497,o),
(1317.902,394.216,c),
(1314.922,445.778,l),
(1274.922,445.778,o),
(853.843,676.163,o),
(648.928,793.203,cs),
(494.092,881.464,o),
(306.562,808.569,o),
(234.34,608.281,cs),
(225.967,586.405,l),
(280.83,564.627,l),
(289.268,586.503,l),
(349.804,759.307,o),
(502.288,810.66,o),
(622.131,741.882,cs),
(789.294,645.739,o),
(1127.686,469.732,o),
(1252.627,416.34,c),
(1109.791,344.078,o),
(642.425,60,o),
(237.902,60,cs)
);
}
);
width = 1529;
},
{
anchors = (
{
name = "top-arab";
pos = (682,1020);
},
{
name = "bottom-arab";
pos = (682,0);
}
);
associatedMasterId = m006;
attr = {
coordinates = (
800,
1
);
};
layerId = m007;
name = ExtraBold;
shapes = (
{
closed = 1;
nodes = (
(1022.765,205.235,c),
(1053.196,123.039,l),
(1083.745,45.627,o),
(1181.255,0,o),
(1282.725,0,cs),
(1442.51,0,l),
(1442.51,340,l),
(1282.725,340,l),
(1269.667,340,o),
(1255.667,340.451,o),
(1242.922,343.235,c),
(1235.216,347.529,l),
(1158.207,343.119,o),
(1063.061,264.099,o)
);
},
{
closed = 1;
nodes = (
(0.412,340,l),
(-85.471,254.706,o),
(-85.471,84.314,o),
(0.412,0,c),
(242.529,0,l),
(866.824,0,o),
(1291.843,388.451,o),
(1312.529,403.235,c),
(1305.824,674.667,l),
(1305.824,674.667,o),
(899.647,888.451,o),
(681.922,978.039,cs),
(459.373,1069.961,o),
(222.431,970.529,o),
(119.098,738.216,cs),
(81.51,656.078,l),
(372.451,525.412,l),
(411.02,607.549,l),
(445.059,683.608,o),
(499.314,709.902,o),
(559.961,684.235,cs),
(659.436,642.136,o),
(883.294,553.98,o),
(1019.412,495.098,c),
(868.863,449.176,o),
(514.373,340,o),
(242.529,340,cs)
);
}
);
width = 1443;
}
);
unicode = 65188;
},
{
glyphname = "dal-arab";
layers = (
{
anchors = (
{
name = "top-arab";
pos = (480,844);
},
{
name = "bottom-arab";
pos = (0,0);
}
);
layerId = m006;
shapes = (
{
closed = 1;
nodes = (
(522.855,-5,cs),
(737.055,-6.977,o),
(994.536,174.19,o),
(857.614,355.353,c),
(480.15,897.863,l),
(433.444,862.556,l),
(810.843,320.111,l),
(912.549,187.039,o),
(700.705,53.562,o),
(522.855,53.562,cs),
(379.864,53.562,o),
(224.712,58.562,o),
(109,90.562,c),
(93,35,l),
(205.784,1.276,o),
(360.936,-3.506,o)
);
}
);
width = 1048;
},
{
anchors = (
{
name = "top-arab";
pos = (492,1075);
},
{
name = "bottom-arab";
pos = (480,0);
}
);
associatedMasterId = m006;
attr = {
coordinates = (
800,
1
);
};
layerId = m007;
name = ExtraBold;
shapes = (
{
closed = 1;
nodes = (
(515.078,-20,cs),
(936.216,-20,o),
(1139.039,387.843,o),
(947.216,641.294,cs),
(571.255,1133.941,l),
(318.667,940.333,l),
(693.647,448.667,l),
(733.235,397.588,o),
(684.824,298.431,o),
(515.078,298.431,cs),
(369.795,298.431,o),
(225.141,298.431,o),
(76,328.431,c),
(46,10,l),
(218.898,-22.476,o),
(372.94,-20,o)
);
}
);
width = 1136;
}
);
unicode = (1583,65193);
},
{
glyphname = "dal-arab.fina";
layers = (
{
anchors = (
{
name = "top-arab";
pos = (547,841);
},
{
name = "bottom-arab";
pos = (0,0);
}
);
layerId = m006;
shapes = (
{
closed = 1;
nodes = (
(801.115,149.921,o),
(707.288,53.385,o),
(525.124,53.385,cs),
(377.555,53.385,o),
(215.643,62.332,o),
(106.755,91.564,c),
(92.712,34.823,l),
(189.855,5.806,o),
(346.085,-4.354,o),
(518.065,-5.177,cs),
(690.046,-6,o),
(847.185,106.614,o),
(881.596,163.398,c),
(889.007,151.065,l),
(941.379,57.935,o),
(1038.575,0,o),
(1146.686,0,cs),
(1235.379,0,l),
(1235.379,60,l),
(1146.686,60,l),
(1058.085,60,o),
(977.876,107.19,o),
(935.51,185.379,cs),
(548.399,896.536,l),
(496.19,868.582,l),
(856.626,208.194,l)
);
}
);
width = 1235;
},
{
anchors = (
{
name = "top-arab";
pos = (562,1050);
},
{
name = "bottom-arab";
pos = (480,0);
}
);
associatedMasterId = m006;
attr = {
coordinates = (
800,
1
);
};
layerId = m007;
name = ExtraBold;
shapes = (
{
closed = 1;
nodes = (
(673.196,334.157,o),
(584.706,308.431,o),
(510.176,308.431,cs),
(409.069,308.431,o),
(254.37,308.431,o),
(77,336.431,c),
(46,20,l),
(180.767,-10,o),
(367.042,-10,o),
(484.294,-10,cs),
(656.667,-10,o),
(799.98,73.961,o),
(863.118,143.765,c),
(864.098,141.98,l),
(925.686,57.02,o),
(1025.627,0,o),
(1149.294,0,cs),
(1209.686,0,l),
(1209.686,340,l),
(1149.294,340,l),
(1108.275,340,o),
(1081.137,347.843,o),
(1061.647,386.686,c),
(658.98,1128.039,l),
(379.843,974.725,l),
(706.02,377.235,l)
);
}
);
width = 1210;
}
);
unicode = 65194;
},
{
glyphname = "reh-arab";
layers = (
{
anchors = (
{
name = "top-arab";
pos = (521,532);
},
{
name = "bottom-arab";
pos = (247,-547);
}
);
layerId = m006;
shapes = (
{
closed = 1;
nodes = (
(550.281,632,l),
(491.719,632,l),
(491.634,-33.373,l),
(491.634,-280.51,o),
(321.19,-472.085,o),
(124.052,-501.085,cs),
(-35,-521,l),
(-31,-578.085,l),
(124.052,-561.085,l),
(348.451,-534.085,o),
(550.196,-314.863,o),
(550.196,-35.529,cs)
);
}
);
width = 721;
},
{
anchors = (
{
name = "top-arab";
pos = (580,816);
},
{
name = "bottom-arab";
pos = (251,-530);
}
);
associatedMasterId = m006;
attr = {
coordinates = (
800,
1
);
};
layerId = m007;
name = ExtraBold;
shapes = (
{
closed = 1;
nodes = (
(739.986,816,l),
(421.554,816,l),
(420.809,67.686,l),
(420.809,-93.373,o),
(291.143,-192,o),
(158.084,-215,cs),
(-43,-245.606,l),
(7.299,-570,l),
(215.084,-545,l),
(458.064,-514,o),
(739.241,-260.667,o),
(739.241,85.333,cs)
);
}
);
width = 858;
}
);
unicode = (1585,65197);
},
{
glyphname = "reh-arab.fina";
layers = (
{
anchors = (
{
name = "top-arab";
pos = (521,532);
},
{
name = "bottom-arab";
pos = (247,-547);
}
);
layerId = m006;
shapes = (
{
closed = 1;
nodes = (
(550.281,632,l),
(491.719,632,l),
(491.634,-33.373,l),
(491.634,-280.51,o),
(321.19,-472.085,o),
(124.052,-501.085,cs),
(-35,-521,l),
(-31,-578.085,l),
(124.052,-561.085,l),
(348.451,-534.085,o),
(550.196,-314.863,o),
(550.196,-35.529,cs),
(550.226,200.635,l),
(611.861,81.402,o),
(735.196,0,o),
(877.582,0,cs),
(956.993,0,l),
(956.993,60,l),
(877.582,60,l),
(701.552,60,o),
(557.824,199.012,o),
(550.248,373.855,c)
);
}
);
width = 957;
},
{
anchors = (
{
name = "top-arab";
pos = (580,796);
},
{
name = "bottom-arab";
pos = (251,-530);
}
);
associatedMasterId = m006;
attr = {
coordinates = (
800,
1
);
};
layerId = m007;
name = ExtraBold;
shapes = (
{
closed = 1;
nodes = (
(739.986,816,l),
(421.554,816,l),
(420.809,67.686,l),
(420.809,-93.373,o),
(291.143,-192,o),
(158.084,-215,cs),
(-43,-245.606,l),
(7.299,-570,l),
(215.084,-545,l),
(456.483,-514.23,o),
(734.627,-264.859,o),
(739.19,78.325,cs),
(739.195,78.678,l),
(790.552,29.698,o),
(844.27,-0.333,o),
(904.003,-0.333,cs),
(964.395,-0.333,l),
(964.395,339.667,l),
(904.003,339.667,l),
(821.257,339.667,o),
(752.588,399.281,o),
(739.702,478.246,c)
);
}
);
width = 964;
}
);
unicode = 65198;
},
{
glyphname = "seen-arab";
layers = (
{
anchors = (
{
name = "top-arab";
pos = (1952,632);
},
{
name = "bottom-arab";
pos = (801,-551);
}
);
layerId = m006;
shapes = (
{
closed = 1;
nodes = (
(1335.157,632,l),
(1393.719,632,l),
(1393.575,328.758,l),
(1393.575,219.605,o),
(1537.898,60,o),
(1642.987,60,qs),
(1672.791,60,l),
(1783.795,60,o),
(1922.137,217.563,o),
(1922.137,328.758,qs),
(1922.281,632,l),
(1980.843,632,l),
(1980.699,328.758,l),
(1980.699,217.03,o),
(2118.901,60,o),
(2230.046,60,qs),
(2259.85,60,l),
(2370.898,60,o),
(2509.261,217.558,o),
(2509.261,328.758,qs),
(2509.261,631.765,l),
(2567.824,631.765,l),
(2567.824,327.32,l),
(2567.824,249.763,o),
(2498.278,98.807,o),
(2343.763,0,o),
(2259.85,0,qs),
(2230.046,0,l),
(2134.055,0,o),
(1985.745,105.754,o),
(1951.418,196.752,q),
(1917.721,107.456,o),
(1770.567,0,o),
(1672.791,0,qs),
(1642.987,0,l),
(1566.262,0,o),
(1431.372,86.253,o),
(1393.379,154.654,q),
(1392.729,44.003,l),
(1393.591,-137.709,o),
(1250.21,-394.418,o),
(1010.727,-530.958,o),
(872.699,-541,qs),
(697.928,-551,l),
(478.901,-561,o),
(260.763,-395.316,o),
(157,-133,o),
(157,14.837,qs),
(157,162,o),
(235.881,390.845,o),
(266.118,468.111,q),
(322.68,443.111,l),
(295.119,381.665,o),
(216,155,o),
(215.562,17.712,qs),
(216,-178,o),
(424.855,-509.51,o),
(697.928,-491,qs),
(872.699,-480.99,l),
(996.702,-470.99,o),
(1206.114,-352.469,o),
(1332.719,-128.98,o),
(1332.719,47.02,qs)
);
}
);
width = 2739;
},
{
anchors = (
{
name = "top-arab";
pos = (1940,796);
},
{
name = "bottom-arab";
pos = (852,-539);
}
);
associatedMasterId = m006;
attr = {
coordinates = (
800,
1
);
};
layerId = m007;
name = ExtraBold;
shapes = (
{
closed = 1;
nodes = (
(1215.245,816,l),
(1533.676,816,l),
(1533.411,448.917,l),
(1534.156,403.074,o),
(1589.249,340,o),
(1634.569,340,qs),
(1681.627,340,l),
(1726.412,340,o),
(1781.824,403.983,o),
(1781.824,451.373,qs),
(1782.324,816.941,l),
(2100.755,816.941,l),
(2100.255,451.373,l),
(2100.255,403.972,o),
(2155.663,340,o),
(2200.451,340,qs),
(2247.51,340,l),
(2292.954,340,o),
(2348.686,403.904,o),
(2348.686,451.373,qs),
(2348.686,816.471,l),
(2667.118,816.471,l),
(2667.118,429.804,l),
(2667.118,312.004,o),
(2556.132,114.892,o),
(2363.856,0,o),
(2247.51,0,qs),
(2200.451,0,l),
(2118.174,0,o),
(1990.207,73.713,o),
(1941.039,137.275,q),
(1887.685,69.008,o),
(1762.589,0,o),
(1681.627,0,qs),
(1634.569,0,l),
(1598.542,0,o),
(1545.743,16.11,o),
(1526.633,26.614,q),
(1526.435,24.914,l),
(1510.476,-99.912,o),
(1383.609,-345.866,o),
(1104.008,-529,o),
(912.414,-539,qs),
(773.922,-548,l),
(559.625,-558,o),
(270.409,-366.026,o),
(110,-64.629,o),
(110,64.549,qs),
(110.905,240.823,o),
(162.094,505.867,o),
(220,667.529,q),
(512.431,549.529,l),
(484.086,462.504,o),
(427.811,234.835,o),
(428.431,107.686,qs),
(429.871,-33.832,o),
(572.732,-218,o),
(773.922,-208,qs),
(912.412,-199,l),
(1012,-195,o),
(1136.233,-113.242,o),
(1215.505,17.045,o),
(1215.505,116.493,qs)
);
}
);
width = 2787;
}
);
unicode = (1587,65201);
},
{
glyphname = "seen-arab.fina";
layers = (
{
anchors = (
{
name = "top-arab";
pos = (1952,632);
},
{
name = "bottom-arab";
pos = (801,-551);
}
);
layerId = m006;
shapes = (
{
closed = 1;
nodes = (
(1393.575,328.758,l),
(1393.575,218.786,o),
(1544.573,60,o),
(1642.987,60,qs),
(1672.791,60,l),
(1781.949,60,o),
(1922.137,215.299,o),
(1922.137,328.758,qs),
(1921.719,632,l),
(1980.281,632,l),
(1980.699,328.758,l),
(1980.699,215.114,o),
(2120.348,60,o),
(2230.046,60,qs),
(2259.85,60,l),
(2369.592,60,o),
(2509.261,215.109,o),
(2509.261,328.758,qs),
(2508.843,632,l),
(2567.405,632,l),
(2567.824,328.758,l),
(2567.824,217.165,o),
(2724.989,60,o),
(2836.582,60,qs),
(2931.68,60,l),
(2931.68,0,l),
(2836.582,0,l),
(2736.707,0,o),
(2575.67,110.772,o),
(2539.739,200.229,q),
(2507.048,109.755,o),
(2358.803,0,o),
(2259.85,0,qs),
(2230.046,0,l),
(2132.207,0,o),
(1984.979,107.567,o),
(1951.418,196.752,q),
(1917.857,107.567,o),
(1770.629,0,o),
(1672.791,0,qs),
(1642.987,0,l),
(1566.622,0,o),
(1432.184,84.507,o),
(1393.379,154.654,q),
(1392.729,44.08,l),
(1393.591,-137.632,o),
(1250.21,-394.341,o),
(1010.727,-530.88,o),
(872.699,-540.923,qs),
(697.928,-550.923,l),
(478.901,-560.923,o),
(260.763,-395.239,o),
(157,-132.923,o),
(157,14.914,qs),
(157,162.077,o),
(235.881,390.922,o),
(266.118,468.188,q),
(322.68,443.188,l),
(295.119,381.742,o),
(216,155.077,o),
(215.562,17.79,qs),
(216,-177.923,o),
(424.855,-509.433,o),
(697.928,-490.923,qs),
(872.699,-480.913,l),
(996.702,-470.913,o),
(1206.114,-352.392,o),
(1332.719,-128.903,o),
(1332.719,47.097,qs),
(1335.157,632.077,l),
(1393.719,632.077,l)
);
}
);
width = 2932;
},
{
anchors = (
{
name = "top-arab";
pos = (1941,796);
},
{
name = "bottom-arab";
pos = (852,-539);
}
);
associatedMasterId = m006;
attr = {
coordinates = (
800,
1
);
};
layerId = m007;
name = ExtraBold;
shapes = (
{
closed = 1;
nodes = (
(1533.411,446.416,l),
(1533,402,o),
(1589.33,340,o),
(1634.51,340,qs),
(1681.569,340,l),
(1726.314,340,o),
(1781.765,403.936,o),
(1781.765,451.373,qs),
(1781.892,816.941,l),
(2100.324,816.941,l),
(2100.196,451.373,l),
(2100.196,403.932,o),
(2155.635,340,o),
(2200.392,340,qs),
(2247.451,340,l),
(2292.868,340,o),
(2348.627,403.853,o),
(2348.627,451.373,qs),
(2348.755,816.941,l),
(2667.186,816.941,l),
(2667.059,451.373,l),
(2667.059,404.975,o),
(2732.034,340,o),
(2778.431,340,qs),
(2844.902,340,l),
(2844.902,0,l),
(2778.431,0,l),
(2689.364,0,o),
(2558.819,73.008,o),
(2511.784,133.431,q),
(2461.971,68.336,o),
(2335.036,0,o),
(2247.451,0,qs),
(2200.392,0,l),
(2118.738,0,o),
(1990.585,73.183,o),
(1940.98,137.275,q),
(1895.226,78.158,o),
(1768.775,0,o),
(1681.569,0,qs),
(1634.51,0,l),
(1601.396,0,o),
(1548.055,14.15,o),
(1526.574,25.609,qs),
(1526.547,25.794,l),
(1510.476,-99.912,o),
(1383.609,-345.866,o),
(1104.008,-529,o),
(912.414,-539,qs),
(773.922,-548,l),
(559.625,-558,o),
(270.409,-366.026,o),
(110,-64.629,o),
(110,64.549,qs),
(110.905,240.823,o),
(162.094,505.867,o),
(220,667.529,q),
(512.431,549.529,l),
(484.086,462.504,o),
(427.811,234.835,o),
(428.431,107.686,qs),
(429.871,-33.832,o),
(572.732,-218,o),
(773.922,-208,qs),
(912.412,-199,l),
(1012,-195,o),
(1136.233,-113.242,o),
(1215.505,17.045,o),
(1215.505,116.493,qs),
(1214.814,816,l),
(1533.245,816,l)
);
}
);
width = 2845;
}
);
unicode = 65202;
},
{
glyphname = "seen-arab.init";
layers = (
{
anchors = (
{
name = "top-arab";
pos = (940,632);
},
{
name = "bottom-arab";
pos = (0,0);
}
);
layerId = m006;
shapes = (
{
closed = 1;
nodes = (
(0.294,60,l),
(-80.098,54.314,o),
(-80.098,5.621,o),
(0.294,0,c),
(55.392,0,l),
(192.281,0,o),
(306.993,83.647,o),
(353.301,202.902,c),
(399.477,83.647,o),
(510.19,0,o),
(632.124,0,cs),
(661.928,0,l),
(795.49,0,o),
(896.987,80.974,o),
(940.556,196.752,c),
(984.124,80.974,o),
(1085.621,0,o),
(1219.183,0,cs),
(1248.987,0,l),
(1430.039,0,o),
(1556.961,146.268,o),
(1556.961,327.32,cs),
(1556.961,631.765,l),
(1498.399,631.765,l),
(1498.399,328.758,l),
(1498.399,179.967,o),
(1397.778,60,o),
(1248.987,60,cs),
(1219.183,60,l),
(1070.458,60,o),
(969.837,179.967,o),
(969.837,328.758,cs),
(969.843,632,l),
(911.281,632,l),
(911.275,328.758,l),
(911.275,179.967,o),
(809.719,60,o),
(661.928,60,cs),
(632.124,60,l),
(502.026,60,o),
(382.712,179.967,o),
(382.712,328.758,cs),
(382.719,632,l),
(324.157,632,l),
(324.15,328.758,l),
(324.15,179.967,o),
(204.183,60,o),
(55.392,60,cs)
);
}
);
width = 1728;
},
{
anchors = (
{
name = "top-arab";
pos = (943,796);
},
{
name = "bottom-arab";
pos = (944,0);
}
);
associatedMasterId = m006;
attr = {
coordinates = (
800,
1
);
};
layerId = m007;
name = ExtraBold;
shapes = (
{
closed = 1;
nodes = (
(0,340,l),
(-85.882,254.706,o),
(-85.882,84.314,o),
(0,0,c),
(106.471,0,l),
(227.804,0,o),
(310.49,50.706,o),
(375.098,131.529,c),
(437.745,50.706,o),
(516.431,0,o),
(637.451,0,cs),
(684.51,0,l),
(797.941,0,o),
(878.392,52.608,o),
(943.922,137.275,c),
(1009.451,52.608,o),
(1089.902,0,o),
(1203.333,0,cs),
(1250.392,0,l),
(1488.176,0,o),
(1670,192.02,o),
(1670,429.804,cs),
(1670,816.471,l),
(1351.569,816.471,l),
(1351.569,451.373,l),
(1351.569,389.51,o),
(1312.255,340,o),
(1250.392,340,cs),
(1203.333,340,l),
(1142.451,340,o),
(1103.137,389.51,o),
(1103.137,451.373,cs),
(1102.647,816,l),
(784.216,816,l),
(784.706,451.373,l),
(784.706,389.51,o),
(745.373,340,o),
(684.51,340,cs),
(637.451,340,l),
(575.98,340,o),
(536.275,389.51,o),
(536.275,451.373,cs),
(535.784,816,l),
(217.353,816,l),
(217.843,451.373,l),
(217.843,389.51,o),
(168.333,340,o),
(106.471,340,cs)
);
}
);
width = 1790;
}
);
unicode = 65203;
},
{
glyphname = "seen-arab.medi";
layers = (
{
anchors = (
{
name = "top-arab";
pos = (940,632);
},
{
name = "bottom-arab";
pos = (0,0);
}
);
layerId = m006;
shapes = (
{
closed = 1;
nodes = (
(0.294,60,l),
(-80.098,54.314,o),
(-80.098,5.621,o),
(0.294,0,c),
(55.392,0,l),
(192.281,0,o),
(306.993,83.647,o),
(353.301,202.902,c),
(399.477,83.647,o),
(510.19,0,o),
(632.124,0,cs),
(661.928,0,l),
(795.49,0,o),
(896.987,80.974,o),
(940.556,196.752,c),
(984.124,80.974,o),
(1085.621,0,o),
(1219.183,0,cs),
(1248.987,0,l),
(1384.007,0,o),
(1486.307,82.712,o),
(1528.745,200.098,c),
(1575.987,82.712,o),
(1690.699,0,o),
(1825.719,0,cs),
(1920.817,0,l),
(1920.817,60,l),
(1825.719,60,l),
(1676.928,60,o),
(1556.961,179.967,o),
(1556.961,328.758,cs),
(1557.405,632,l),
(1498.843,632,l),
(1498.399,328.758,l),
(1498.399,179.967,o),
(1397.778,60,o),
(1248.987,60,cs),
(1219.183,60,l),
(1070.458,60,o),
(969.837,179.967,o),
(969.837,328.758,cs),
(970.281,632,l),
(911.719,632,l),
(911.275,328.758,l),
(911.275,179.967,o),
(809.719,60,o),
(661.928,60,cs),
(632.124,60,l),
(502.026,60,o),
(382.712,179.967,o),
(382.712,328.758,cs),
(383.157,632,l),
(324.595,632,l),
(324.15,328.758,l),
(324.15,179.967,o),
(204.183,60,o),
(55.392,60,cs)
);
}
);
width = 1921;
},
{
anchors = (
{
name = "top-arab";
pos = (944,796);
},
{
name = "bottom-arab";
pos = (944,0);
}
);
associatedMasterId = m006;
attr = {
coordinates = (
800,
1
);
};
layerId = m007;
name = ExtraBold;
shapes = (
{
closed = 1;
nodes = (
(0,340,l),
(-85.882,254.706,o),
(-85.882,84.314,o),
(0,0,c),
(106.471,0,l),
(227.804,0,o),
(310.49,50.706,o),
(375.098,131.529,c),
(437.745,50.706,o),
(516.431,0,o),
(637.451,0,cs),
(684.51,0,l),
(797.941,0,o),
(878.392,52.608,o),
(943.922,137.275,c),
(1009.451,52.608,o),
(1089.902,0,o),
(1203.333,0,cs),
(1250.392,0,l),
(1371.686,0,o),
(1450.196,50.686,o),
(1512.765,131.471,c),
(1577.392,50.686,o),
(1660.078,0,o),
(1781.373,0,cs),
(1847.843,0,l),
(1847.843,340,l),
(1781.373,340,l),
(1719.51,340,o),
(1670,389.51,o),
(1670,451.373,cs),
(1670.078,816,l),
(1351.647,816,l),
(1351.569,451.373,l),
(1351.569,389.51,o),
(1312.255,340,o),
(1250.392,340,cs),
(1203.333,340,l),
(1142.451,340,o),
(1103.137,389.51,o),
(1103.137,451.373,cs),
(1103.216,816,l),
(784.784,816,l),
(784.706,451.373,l),
(784.706,389.51,o),
(745.373,340,o),
(684.51,340,cs),
(637.451,340,l),
(575.98,340,o),
(536.275,389.51,o),
(536.275,451.373,cs),
(536.353,816,l),
(217.922,816,l),
(217.843,451.373,l),
(217.843,389.51,o),
(168.333,340,o),
(106.471,340,cs)
);
}
);
width = 1848;
}
);
unicode = 65204;
},
{
glyphname = "sad-arab";
layers = (
{
anchors = (
{
name = "top-arab";
pos = (2228,802);
},
{
name = "bottom-arab";
pos = (801,-551);
}
);
layerId = m006;
shapes = (
{
closed = 1;
nodes = (
(1393.641,327.32,l),
(1393.641,222.096,o),
(1537.961,68.477,o),
(1642.301,62.026,q),
(1701.288,298.31,o),
(1996.394,813.538,o),
(2227.412,821.987,qs),
(2357.875,826.433,o),
(2541.542,711.548,o),
(2633.536,520.09,o),
(2633.536,410.993,qs),
(2633.536,301.16,o),
(2526.563,112.309,o),
(2338.101,0,o),
(2221.739,0,qs),
(1669.458,0,l),
(1582.586,0,o),
(1436.458,85.988,o),
(1392.922,158.3,q),
(1392.729,44.08,l),
(1393.591,-137.632,o),
(1250.21,-394.341,o),
(1010.727,-530.88,o),
(872.699,-540.923,qs),
(697.928,-550.923,l),
(478.901,-560.923,o),
(260.763,-395.239,o),
(157,-132.923,o),
(157,14.914,qs),
(157,162.077,o),
(235.881,390.922,o),
(266.118,468.188,q),
(322.68,443.188,l),
(295.119,381.742,o),
(216,155.077,o),
(215.562,17.79,qs),
(216,-177.923,o),
(424.855,-509.433,o),
(697.928,-490.923,qs),
(872.699,-480.913,l),
(996.702,-470.913,o),
(1206.114,-352.392,o),
(1332.719,-128.903,o),
(1332.719,47.097,qs),
(1333,632,l),
(1393.719,632.077,l)
);
},
{
closed = 1;
nodes = (
(1703,60,l),
(1728.83,139.961,o),
(1912.078,751.882,o),
(2230.137,763.425,cs),
(2461.68,771.902,o),
(2575.111,595.66,o),
(2575.111,410.993,cs),
(2575.111,222.614,o),
(2425.098,60,o),
(2221.876,60,cs)
);
}
);
width = 2791;
},
{
anchors = (
{
name = "top-arab";
pos = (2174,978);
},
{
name = "bottom-arab";
pos = (872,-539);
}
);
associatedMasterId = m006;
attr = {
coordinates = (
800,
1
);
};
layerId = m007;
name = ExtraBold;
shapes = (
{
closed = 1;
nodes = (
(1533.403,424.669,l),
(1533.539,401.184,o),
(1566.426,351.371,o),
(1613.235,340.392,q),
(1682.882,576.931,o),
(1975.047,1009.337,o),
(2213.902,1017.804,qs),
(2391.149,1024.26,o),
(2618.563,867.144,o),
(2719.765,632.419,o),
(2719.765,518.902,qs),
(2719.765,382.753,o),
(2586.408,143.752,o),
(2353.951,0,o),
(2212.804,0,qs),
(1750.588,0,l),
(1687.333,0,o),
(1579.016,40.533,o),
(1532.982,78.262,q),
(1532.979,68.015,l),
(1531.146,-74.057,o),
(1383.609,-345.923,o),
(1104.008,-529.056,o),
(912.414,-539.056,qs),
(773.922,-548.056,l),
(559.625,-558.056,o),
(270.409,-366.083,o),
(110,-64.685,o),
(110,64.493,qs),
(110.905,240.766,o),
(162.094,505.811,o),
(220,667.473,q),
(512.431,549.473,l),
(484.086,462.448,o),
(427.811,234.779,o),
(428.431,107.63,qs),
(429.871,-33.888,o),
(572.732,-218.056,o),
(773.922,-208.056,qs),
(912.412,-199.056,l),
(1012,-195.056,o),
(1136.233,-113.299,o),
(1215.505,16.989,o),
(1215.505,116.437,qs),
(1215.245,815.944,l),
(1533,816,l)
);
},
{
closed = 1;
nodes = (
(1894,340,l),
(1965.451,447.412,o),
(2088.957,688.345,o),
(2225.039,699.188,cs),
(2339.957,708.345,o),
(2401.667,626.902,o),
(2401.667,518.902,cs),
(2401.667,409.216,o),
(2307.471,340,o),
(2213.137,340,cs)
);
}
);
width = 2830;
}
);
unicode = (1589,65209);
},
{
glyphname = "sad-arab.fina";
layers = (
{
anchors = (
{
name = "top-arab";
pos = (2228,802);
},
{
name = "bottom-arab";
pos = (801,-551);
}
);
layerId = m006;
shapes = (
{
closed = 1;
nodes = (
(2543.494,152.527,q),
(2594.152,109.349,o),
(2734.966,60,o),
(2841.804,60,qs),
(2972,60,l),
(2972,0,l),
(2841.739,0,l),
(2723.089,0,o),
(2561.44,59.521,o),
(2504.449,110.216,q),
(2462.111,70.47,o),
(2327.842,2.405,o),
(2221.739,0,qs),
(1669.458,0,l),
(1582.586,0,o),
(1436.458,85.988,o),
(1392.922,158.3,q),
(1392.729,44.08,l),
(1393.591,-137.632,o),
(1250.21,-394.341,o),
(1010.727,-530.88,o),
(872.699,-540.923,qs),
(697.928,-550.923,l),
(478.901,-560.923,o),
(260.763,-395.239,o),
(157,-132.923,o),
(157,14.914,qs),
(157,162.077,o),
(235.881,390.922,o),
(266.118,468.188,q),
(322.68,443.188,l),
(295.119,381.742,o),
(216,155.077,o),
(215.562,17.79,qs),
(216,-177.923,o),
(424.855,-509.433,o),
(697.928,-490.923,qs),
(872.699,-480.913,l),
(996.702,-470.913,o),
(1206.114,-352.392,o),
(1332.719,-128.903,o),
(1332.719,47.097,qs),
(1333,632,l),
(1393.719,632.077,l),
(1393.641,327.32,l),
(1393.641,222.096,o),
(1537.961,68.477,o),
(1642.301,62.026,q),
(1701.288,298.31,o),
(1996.394,813.538,o),
(2227.412,821.987,qs),
(2357.875,826.433,o),
(2541.542,711.548,o),
(2633.536,520.09,o),
(2633.536,410.993,qs),
(2631.666,264.179,o)
);
},
{
closed = 1;
nodes = (
(1703,60,l),
(1728.83,139.961,o),
(1912.078,751.882,o),
(2230.137,763.425,cs),
(2461.68,771.902,o),
(2575.111,595.66,o),
(2575.111,410.993,cs),
(2575.111,222.614,o),
(2425.098,60,o),
(2221.876,60,cs)
);
}
);
width = 2972;
},
{
anchors = (
{
name = "top-arab";
pos = (2174,978);
},
{
name = "bottom-arab";
pos = (872,-539);
}
);
associatedMasterId = m006;
attr = {
coordinates = (
800,
1
);
};
layerId = m007;
name = ExtraBold;
shapes = (
{
closed = 1;
nodes = (
(2695.415,361.487,q),
(2736.86,350.281,o),
(2825.143,340,o),
(2831.255,340,qs),
(2884.216,340,l),
(2884.216,0,l),
(2830.294,0,l),
(2772.508,0,o),
(2616.351,56.213,o),
(2522.927,108.846,q),
(2476.265,71.507,o),
(2327.178,0,o),
(2212.804,0,qs),
(1750.588,0,l),
(1676.797,0,o),
(1569.996,47.633,o),
(1530.677,90.117,q),
(1530.633,79.557,l),
(1531.603,-73.214,o),
(1383.609,-345.923,o),
(1104.008,-529.056,o),
(912.414,-539.056,qs),
(773.922,-548.056,l),
(559.625,-558.056,o),
(270.409,-366.083,o),
(110,-64.685,o),
(110,64.493,qs),
(110.905,240.766,o),
(162.094,505.811,o),
(220,667.473,q),
(512.431,549.473,l),
(484.086,462.448,o),
(427.811,234.779,o),
(428.431,107.63,qs),
(429.871,-33.888,o),
(572.732,-218.056,o),
(773.922,-208.056,qs),
(912.412,-199.056,l),
(1012,-195.056,o),
(1136.233,-113.299,o),
(1215.505,16.989,o),
(1215.505,116.437,qs),
(1215.245,815.944,l),
(1533.676,815.944,l),
(1533.403,424.669,l),
(1533,401,o),
(1566.426,351.371,o),
(1613.235,340.392,q),
(1682.882,576.931,o),
(1975.047,1009.337,o),
(2213.902,1017.804,qs),
(2391.149,1024.26,o),
(2618.563,867.144,o),
(2719.765,632.419,o),
(2719.765,518.902,qs),
(2719.765,438.602,o)
);
},
{
closed = 1;
nodes = (
(1894,340,l),
(1965.451,447.412,o),
(2088.957,688.345,o),
(2225.039,699.188,cs),
(2339.957,708.345,o),
(2401.667,626.902,o),
(2401.667,518.902,cs),
(2401.667,409.216,o),
(2307.471,340,o),
(2213.137,340,cs)
);
}
);
width = 2884;
}
);
unicode = 65210;
},
{
glyphname = "sad-arab.init";
layers = (
{
anchors = (
{
name = "top-arab";
pos = (1213,802);
},
{
name = "bottom-arab";
pos = (0,0);
}
);
layerId = m006;
shapes = (
{
closed = 1;
nodes = (
(688.405,60,l),
(714.235,139.961,o),
(897.484,751.882,o),
(1215.542,763.425,cs),
(1447.085,771.902,o),
(1560.516,595.66,o),
(1560.516,410.993,cs),
(1560.516,222.614,o),
(1410.503,60,o),
(1207.281,60,cs)
);
},
{
closed = 1;
nodes = (
(0.294,60,l),
(-80.098,54.314,o),
(-80.098,5.621,o),
(0.294,0,c),
(51.863,0,l),
(188.817,0,o),
(303.529,83.712,o),
(349.902,203.098,c),
(396.275,83.712,o),
(510.987,0,o),
(647.941,0,cs),
(1207.281,0,l),
(1445.941,0,o),
(1619.078,190.203,o),
(1619.078,410.993,cs),
(1619.078,620.275,o),
(1486.667,831.314,o),
(1212.954,821.987,cs),
(831.935,808.052,o),
(639.98,100.719,o),
(627.843,62.026,c),
(488.928,70.614,o),
(379.183,186.817,o),
(379.183,327.32,cs),
(379.562,632,l),
(321,632,l),
(320.621,328.758,l),
(320.621,179.967,o),
(200.588,60,o),
(51.863,60,cs)
);
}
);
width = 1776;
},
{
anchors = (
{
name = "top-arab";
pos = (1164,978);
},
{
name = "bottom-arab";
pos = (1051,0);
}
);
associatedMasterId = m006;
attr = {
coordinates = (
800,
1
);
};
layerId = m007;
name = ExtraBold;
shapes = (
{
closed = 1;
nodes = (
(844,340,l),
(915.451,447.412,o),
(1038.957,688.345,o),
(1175.039,699.188,cs),
(1289.957,708.345,o),
(1351.667,626.902,o),
(1351.667,518.902,cs),
(1351.667,409.216,o),
(1257.471,340,o),
(1163.137,340,cs)
);
},
{
closed = 1;
nodes = (
(0.412,340,l),
(-85.471,254.706,o),
(-85.471,84.314,o),
(0.412,0,c),
(53.941,0,l),
(176.255,0,o),
(258.941,51.686,o),
(324.529,134.471,c),
(390.118,51.686,o),
(472.804,0,o),
(595.118,0,cs),
(1163.216,0,l),
(1453.118,0,o),
(1670.176,245.039,o),
(1670.176,518.902,cs),
(1670.176,718.118,o),
(1546,1031.706,o),
(1164.314,1017.804,cs),
(797.02,1004.784,o),
(619.706,530.784,o),
(563.647,340.392,c),
(491.922,357.216,o),
(483.745,408.255,o),
(483.745,429.804,cs),
(484.216,816,l),
(165.784,816,l),
(165.314,451.373,l),
(165.314,389.51,o),
(114.824,340,o),
(53.941,340,cs)
);
}
);
width = 1780;
}
);
unicode = 65211;
},
{
glyphname = "sad-arab.medi";
layers = (
{
anchors = (
{
name = "top-arab";
pos = (1213,802);
},
{
name = "bottom-arab";
pos = (0,0);
}
);
layerId = m006;
shapes = (
{
closed = 1;
nodes = (
(688.405,60,l),
(714.235,139.961,o),
(897.484,751.882,o),
(1215.542,763.425,cs),
(1447.085,771.902,o),
(1560.516,595.66,o),
(1560.516,410.993,cs),
(1560.516,222.614,o),
(1410.503,60,o),
(1207.281,60,cs)
);
},
{
closed = 1;
nodes = (
(1586.147,224.226,o),
(1619.078,314.701,o),
(1619.078,410.993,cs),
(1619.078,620.275,o),
(1486.667,831.314,o),
(1212.954,821.987,cs),
(831.935,808.052,o),
(639.98,100.719,o),
(627.843,62.026,c),
(488.928,70.614,o),
(379.183,186.817,o),
(379.183,327.32,cs),
(379.562,632,l),
(321,632,l),
(320.621,328.758,l),
(320.621,179.967,o),
(200.588,60,o),
(51.863,60,cs),
(0.294,60,l),
(-80.098,54.314,o),
(-80.098,5.621,o),
(0.294,0,c),
(51.863,0,l),
(188.817,0,o),
(303.529,83.712,o),
(349.902,203.098,c),
(396.275,83.712,o),
(510.987,0,o),
(647.941,0,cs),
(1207.281,0,l),
(1319.986,0,o),
(1418.079,42.417,o),
(1490.215,110.43,c),
(1570.403,39.087,o),
(1688.495,0,o),
(1827.739,0,cs),
(1958,0,l),
(1958,60,l),
(1827.804,60,l),
(1709.892,60,o),
(1604.862,88.383,o),
(1529.199,152.796,c)
);
}
);
width = 1958;
},
{
anchors = (
{
name = "top-arab";
pos = (1164,978);
},
{
name = "bottom-arab";
pos = (1051,0);
}
);
associatedMasterId = m006;
attr = {
coordinates = (
800,
1
);
};
layerId = m007;
name = ExtraBold;
shapes = (
{
closed = 1;
nodes = (
(844,340,l),
(915.451,447.412,o),
(1038.957,688.345,o),
(1175.039,699.188,cs),
(1289.957,708.345,o),
(1351.667,626.902,o),
(1351.667,518.902,cs),
(1351.667,409.216,o),
(1257.471,340,o),
(1163.137,340,cs)
);
},
{
closed = 1;
nodes = (
(1661.639,411.407,o),
(1670.176,464.587,o),
(1670.176,518.902,cs),
(1670.176,718.118,o),
(1546,1031.706,o),
(1164.314,1017.804,cs),
(797.02,1004.784,o),
(619.706,530.784,o),
(563.647,340.392,c),
(491.922,357.216,o),
(483.745,408.255,o),
(483.745,429.804,cs),
(484.216,816,l),
(165.784,816,l),
(165.314,451.373,l),
(165.314,389.51,o),
(114.824,340,o),
(53.941,340,cs),
(0.412,340,l),
(-85.471,254.706,o),
(-85.471,84.314,o),
(0.412,0,c),
(53.941,0,l),
(176.255,0,o),
(258.941,51.686,o),
(324.529,134.471,c),
(390.118,51.686,o),
(472.804,0,o),
(595.118,0,cs),
(1163.216,0,l),
(1281.953,0,o),
(1388.47,41.106,o),
(1472.849,108.455,c),
(1570.832,53.258,o),
(1674.769,-0.314,o),
(1780.078,-0.314,cs),
(1834,-0.314,l),
(1834,339.686,l),
(1781.039,339.686,l),
(1756.102,339.686,o),
(1713.203,342.827,o),
(1645.686,361.041,c)
);
}
);
width = 1834;
}
);
unicode = 65212;
},
{
glyphname = "tah-arab";
layers = (
{
anchors = (
{
name = "top-arab";
pos = (1043,822);
},
{
name = "bottom-arab";
pos = (0,0);
}
);
layerId = m006;
shapes = (
{
closed = 1;
nodes = (
(421.719,1483,l),
(421.011,249.785,l),
(382.21,149.455,o),
(360.919,72.652,o),
(356.843,60.026,c),
(171,60,l),
(171,0,l),
(937.281,0,l),
(1175.941,0,o),
(1349.078,190.203,o),
(1349.078,410.993,cs),
(1349.078,620.275,o),
(1216.667,831.314,o),
(942.954,821.987,cs),
(729.79,814.191,o),
(575.802,589.367,o),
(479.192,385.656,c),
(479.928,904.771,l),
(480.281,1483,l)
);
},
{
closed = 1;
nodes = (
(937.281,60,cs),
(418.405,60,l),
(444.235,139.961,o),
(627.484,751.882,o),
(945.542,763.425,cs),
(1177.085,771.902,o),
(1290.516,595.66,o),
(1290.516,410.993,cs),
(1290.516,222.614,o),
(1140.503,60,o)
);
}
);
width = 1518;
},
{
anchors = (
{
name = "top-arab";
pos = (507,1504);
},
{
name = "bottom-arab";
pos = (799,0);
}
);
associatedMasterId = m006;
attr = {
coordinates = (
800,
1
);
};
layerId = m007;
name = ExtraBold;
shapes = (
{
closed = 1;
nodes = (
(347.686,1524,l),
(347.49,377.392,l),
(340.941,360.039,o),
(336.647,347.039,o),
(333.667,340,c),
(120,340,l),
(120,0,l),
(963.216,0,l),
(1253.118,0,o),
(1470.176,245.039,o),
(1470.176,518.902,cs),
(1470.176,738.118,o),
(1336,1031.706,o),
(964.314,1017.804,cs),
(853.432,1013.657,o),
(758.054,947.924,o),
(659.963,821.252,c),
(665.922,1041.569,l),
(666.118,1524,l)
);
},
{
closed = 1;
nodes = (
(963.216,340,cs),
(644.078,340,l),
(715.529,447.412,o),
(839.036,688.345,o),
(975.117,699.188,cs),
(1090.036,708.345,o),
(1151.745,626.902,o),
(1151.745,518.902,cs),
(1151.745,409.216,o),
(1057.549,340,o)
);
}
);
width = 1579;
}
);
unicode = (1591,65217);
},
{
glyphname = "tah-arab.fina";
layers = (
{
anchors = (
{
name = "top-arab";
pos = (1043,822);
},
{
name = "bottom-arab";
pos = (0,0);
}
);
layerId = m006;
shapes = (
{
closed = 1;
nodes = (
(937.281,60,cs),
(418.405,60,l),
(444.235,139.961,o),
(627.484,751.882,o),
(945.542,763.425,cs),
(1177.085,771.902,o),
(1290.516,595.66,o),
(1290.516,410.993,cs),
(1290.516,222.614,o),
(1140.503,60,o)
);
},
{
closed = 1;
nodes = (
(1315.832,223.365,o),
(1349.078,314.242,o),
(1349.078,410.993,cs),
(1349.078,620.275,o),
(1216.667,831.314,o),
(942.954,821.987,cs),
(729.79,814.191,o),
(575.802,589.367,o),
(479.192,385.656,c),
(479.928,904.771,l),
(480.281,1483,l),
(421.719,1483,l),
(421.011,249.785,l),
(382.21,149.455,o),
(360.919,72.652,o),
(356.843,60.026,c),
(171,60,l),
(171,0,l),
(937.281,0,l),
(1049.473,0,o),
(1147.185,42.032,o),
(1219.244,109.519,c),
(1299.419,38.751,o),
(1416.922,0,o),
(1555.739,0,cs),
(1686,0,l),
(1686,60,l),
(1555.804,60,l),
(1438.3,60,o),
(1333.963,88.086,o),
(1258.391,151.786,c)
);
}
);
width = 1686;
},
{
anchors = (
{
name = "top-arab";
pos = (507,1504);
},
{
name = "bottom-arab";
pos = (799,0);
}
);
associatedMasterId = m006;
attr = {
coordinates = (
800,
1
);
};
layerId = m007;
name = ExtraBold;
shapes = (
{
closed = 1;
nodes = (
(963.216,340,cs),
(644.078,340,l),
(715.529,447.412,o),
(839.036,688.345,o),
(975.117,699.188,cs),
(1090.036,708.345,o),
(1151.745,626.902,o),
(1151.745,518.902,cs),
(1151.745,409.216,o),
(1057.549,340,o)
);
},
{
closed = 1;
nodes = (
(1461.671,411.608,o),
(1470.176,464.69,o),
(1470.176,518.902,cs),
(1470.176,738.118,o),
(1336,1031.706,o),
(964.314,1017.804,cs),
(853.432,1013.657,o),
(758.054,947.924,o),
(659.963,821.252,c),
(665.922,1041.569,l),
(666.118,1524,l),
(347.686,1524,l),
(347.49,377.392,l),
(340.941,360.039,o),
(336.647,347.039,o),
(333.667,340,c),
(120,340,l),
(120,0,l),
(963.216,0,l),
(1082.059,0,o),
(1188.661,41.18,o),
(1273.08,108.639,c),
(1370.997,53.487,o),
(1474.884,0,o),
(1580.078,0,cs),
(1634,0,l),
(1634,340,l),
(1581.039,340,l),
(1536.132,340,o),
(1483.241,353.138,o),
(1425.778,381.33,c)
);
}
);
width = 1634;
}
);
unicode = 65218;
},
{
glyphname = "tah-arab.init";
layers = (
{
anchors = (
{
name = "top-arab";
pos = (993,822);
},
{
name = "bottom-arab";
pos = (0,0);
}
);
layerId = m006;
shapes = (
{
closed = 1;
nodes = (
(679.79,814.191,o),
(525.802,589.367,o),
(429.192,385.656,c),
(429.928,904.771,l),
(430.281,1483,l),
(371.719,1483,l),
(371.011,249.785,l),
(332.21,149.455,o),
(310.919,72.652,o),
(306.843,60.026,c),
(0,60,l),
(-80,54,o),
(-80,6,o),
(0,0,c),
(887.281,0,l),
(1125.941,0,o),
(1299.078,190.203,o),
(1299.078,410.993,cs),
(1299.078,620.275,o),
(1166.667,831.314,o),
(892.954,821.987,cs)
);
},
{
closed = 1;
nodes = (
(1240.516,222.614,o),
(1090.503,60,o),
(887.281,60,cs),
(368.405,60,l),
(394.235,139.961,o),
(577.484,751.882,o),
(895.542,763.425,cs),
(1127.085,771.902,o),
(1240.516,595.66,o),
(1240.516,410.993,cs)
);
}
);
width = 1468;
},
{
anchors = (
{
name = "top-arab";
pos = (357,1504);
},
{
name = "bottom-arab";
pos = (660,0);
}
);
associatedMasterId = m006;
attr = {
coordinates = (
800,
1
);
};
layerId = m007;
name = ExtraBold;
shapes = (
{
closed = 1;
nodes = (
(704.255,1013.657,o),
(608.878,947.924,o),
(510.787,821.252,c),
(516.745,1041.569,l),
(516.941,1524,l),
(198.51,1524,l),
(198.314,377.392,l),
(191.765,360.039,o),
(187.471,347.039,o),
(184.49,340,c),
(0,340,l),
(-85,255,o),
(-85,84,o),
(0,0,c),
(814.039,0,l),
(1103.941,0,o),
(1321,245.039,o),
(1321,518.902,cs),
(1321,738.118,o),
(1186.824,1031.706,o),
(815.137,1017.804,cs)
);
},
{
closed = 1;
nodes = (
(1002.569,409.216,o),
(908.373,340,o),
(814.039,340,cs),
(494.902,340,l),
(566.353,447.412,o),
(689.859,688.345,o),
(825.941,699.188,cs),
(940.859,708.345,o),
(1002.569,626.902,o),
(1002.569,518.902,cs)
);
}
);
width = 1430;
}
);
unicode = 65219;
},
{
glyphname = "tah-arab.medi";
layers = (
{
anchors = (
{
name = "top-arab";
pos = (993,822);
},
{
name = "bottom-arab";
pos = (0,0);
}
);
layerId = m006;
shapes = (
{
closed = 1;
nodes = (
(1240.516,222.614,o),
(1090.503,60,o),
(887.281,60,cs),
(368.405,60,l),
(394.235,139.961,o),
(577.484,751.882,o),
(895.542,763.425,cs),
(1127.085,771.902,o),
(1240.516,595.66,o),
(1240.516,410.993,cs)
);
},
{
closed = 1;
nodes = (
(1249.419,38.751,o),
(1366.922,0,o),
(1505.739,0,cs),
(1636,0,l),
(1636,60,l),
(1505.804,60,l),
(1388.3,60,o),
(1283.963,88.086,o),
(1208.391,151.786,c),
(1265.832,223.365,o),
(1299.078,314.242,o),
(1299.078,410.993,cs),
(1299.078,620.275,o),
(1166.667,831.314,o),
(892.954,821.987,cs),
(679.79,814.191,o),
(525.802,589.367,o),
(429.192,385.656,c),
(429.928,904.771,l),
(430.281,1483,l),
(371.719,1483,l),
(371.011,249.785,l),
(332.21,149.455,o),
(310.919,72.652,o),
(306.843,60.026,c),
(0,60,l),
(-80,54,o),
(-80,6,o),
(0,0,c),
(887.281,0,l),
(999.473,0,o),
(1097.185,42.032,o),
(1169.244,109.519,c)
);
}
);
width = 1636;
},
{
anchors = (
{
name = "top-arab";
pos = (357,1504);
},
{
name = "bottom-arab";
pos = (660,0);
}
);
associatedMasterId = m006;
attr = {
coordinates = (
800,
1
);
};
layerId = m007;
name = ExtraBold;
shapes = (
{
closed = 1;
nodes = (
(1002.569,409.216,o),
(908.373,340,o),
(814.039,340,cs),
(494.902,340,l),
(566.353,447.412,o),
(689.859,688.345,o),
(825.941,699.188,cs),
(940.859,708.345,o),
(1002.569,626.902,o),
(1002.569,518.902,cs)
);
},
{
closed = 1;
nodes = (
(1221.328,53.317,o),
(1325.115,0,o),
(1430.078,0,cs),
(1484,0,l),
(1484,340,l),
(1431.039,340,l),
(1386.375,340,o),
(1333.563,353.114,o),
(1276.537,381.126,c),
(1312.472,411.47,o),
(1321,464.62,o),
(1321,518.902,cs),
(1321,738.118,o),
(1186.824,1031.706,o),
(815.137,1017.804,cs),
(704.255,1013.657,o),
(608.878,947.924,o),
(510.787,821.252,c),
(516.745,1041.569,l),
(516.941,1524,l),
(198.51,1524,l),
(198.314,377.392,l),
(191.765,360.039,o),
(187.471,347.039,o),
(184.49,340,c),
(0,340,l),
(-85,255,o),
(-85,84,o),
(0,0,c),
(814.039,0,l),
(932.723,0,o),
(1039.198,41.069,o),
(1123.563,108.367,c)
);
}
);
width = 1484;
}
);
unicode = 65220;
},
{
glyphname = "ain-arab";
layers = (
{
anchors = (
{
name = "top-arab";
pos = (719,860);
},
{
name = "bottom-arab";
pos = (720,-721);
}
);
layerId = m006;
shapes = (
{
closed = 1;
nodes = (
(1088.451,-721,l),
(1088.451,-661.065,l),
(653.732,-661.065,l),
(452.333,-661.065,o),
(249.562,-549.732,o),
(249.562,-298.333,cs),
(249.562,-96.935,o),
(422.333,65.837,o),
(623.732,65.837,cs),
(1086.359,65.837,l),
(1086.359,125.837,l),
(721.948,125.837,l),
(527,126,o),
(409.301,304.255,o),
(409.301,473.588,cs),
(409.301,676.503,o),
(536.224,839.657,o),
(721.556,840.647,cs),
(831.699,841.235,o),
(936.562,790.719,o),
(1019.157,753.085,c),
(1031.693,816.405,l),
(963.49,843.235,o),
(846.51,901.19,o),
(719.203,900.013,cs),
(502.44,898.01,o),
(350.739,710.765,o),
(350.739,474.523,cs),
(350.739,332.725,o),
(424.32,176.19,o),
(549.072,112.667,c),
(351.405,78.353,o),
(191,-90.706,o),
(191,-298.333,cs),
(191,-581.993,o),
(420.007,-721,o),
(653.732,-721,cs)
);
}
);
width = 1249;
},
{
anchors = (
{
name = "top-arab";
pos = (682,1127);
},
{
name = "bottom-arab";
pos = (710,-538);
}
);
associatedMasterId = m006;
attr = {
coordinates = (
800,
1
);
};
layerId = m007;
name = ExtraBold;
shapes = (
{
closed = 1;
nodes = (
(1130,-678,l),
(1130,-338.98,l),
(655.765,-338.98,l),
(546.784,-338.98,o),
(437.431,-270.98,o),
(437.431,-162,cs),
(437.431,-53.02,o),
(527.118,36.549,o),
(636.098,36.549,cs),
(1129.51,36.549,l),
(1129.51,376.549,l),
(723.333,376.549,l),
(633,377,o),
(584,462,o),
(583.627,544.824,cs),
(583.627,640.549,o),
(646,720.427,o),
(737.451,720.706,cs),
(834,721,o),
(942.549,688.784,o),
(1024.471,648.275,c),
(1081.51,959.078,l),
(1018.471,991.529,o),
(888,1037.015,o),
(732.157,1037.196,cs),
(471,1037.499,o),
(265.196,798.471,o),
(265.196,564.843,cs),
(265.196,477.882,o),
(304.922,319.843,o),
(370.196,249,c),
(219.196,154.294,o),
(119,26.412,o),
(119,-162,cs),
(119,-446.902,o),
(369.882,-678,o),
(655.765,-678,cs)
);
}
);
width = 1250;
}
);
unicode = (1593,65225);
},
{
glyphname = "ain-arab.fina";
layers = (
{
anchors = (
{
name = "top-arab";
pos = (691,785);
},
{
name = "bottom-arab";
pos = (720,0);
}
);
layerId = m006;
shapes = (
{
closed = 1;
nodes = (
(1115,-721,l),
(1115,-661.065,l),
(630.601,-661.065,l),
(418.941,-661.065,o),
(219.562,-558.359,o),
(219.562,-326.608,cs),
(219.562,-166.725,o),
(347.948,-73.601,o),
(571.451,55.843,c),
(601.039,68.647,o),
(621.824,78.516,o),
(649.542,92.516,c),
(738.359,0.987,o),
(786.232,0,o),
(1044.98,0,cs),
(1416.013,0,l),
(1416.013,60,l),
(1043.346,60,l),
(873.127,60,o),
(791.523,61.157,o),
(728.254,95.051,c),
(1109.02,503.601,l),
(1202.033,612.922,o),
(1125.673,785.183,o),
(978.85,785.183,cs),
(243.346,785.183,l),
(218.83,734.118,l),
(617.614,143.654,l),
(303.693,0.83,o),
(161,-146.627,o),
(161,-326.608,cs),
(161,-590.556,o),
(386.68,-721,o),
(630.601,-721,cs)
);
},
{
closed = 1;
nodes = (
(291.046,725.379,l),
(976.235,725.379,l),
(1072.248,725.379,o),
(1126.915,611.458,o),
(1062.725,536.529,c),
(690.255,134.085,l)
);
}
);
width = 1416;
},
{
anchors = (
{
name = "top-arab";
pos = (740,1127);
},
{
name = "bottom-arab";
pos = (0,-538);
}
);
associatedMasterId = m006;
attr = {
coordinates = (
800,
1
);
};
layerId = m007;
name = ExtraBold;
shapes = (
{
closed = 1;
nodes = (
(1151,-678,l),
(1151,-338.98,l),
(681.406,-338.98,l),
(508.504,-338.98,o),
(400.518,-257.675,o),
(417.817,-138.118,cs),
(432.744,-34.959,o),
(547.466,20.758,o),
(623.955,58.647,cs),
(650.348,71.721,o),
(731.543,101.745,o),
(741.327,107.745,c),
(857.582,4.804,o),
(976.386,0,o),
(1098.249,0,cs),
(1400.386,0,l),
(1400.386,340,l),
(1163.739,340,l),
(1092.817,340,o),
(1075.033,340.353,o),
(1054.857,345.482,c),
(1173.484,479.02,l),
(1350.68,690.824,o),
(1199.288,1006.745,o),
(928.935,1006.745,cs),
(292.386,1006.745,l),
(177.12,710.627,l),
(462.406,295.804,l),
(233.582,199.451,o),
(114.221,56.065,o),
(99.386,-138.118,cs),
(76.809,-433.636,o),
(332.582,-678,o),
(681.406,-678,cs)
);
},
{
closed = 1;
nodes = (
(512.539,691.98,l),
(914.214,691.98,l),
(961.748,691.98,o),
(971.209,657.92,o),
(941.83,620.199,c),
(740.83,381.98,l)
);
}
);
width = 1400;
}
);
unicode = 65226;
},
{
glyphname = "ain-arab.init";
layers = (
{
anchors = (
{
name = "top-arab";
pos = (649,795);
},
{
name = "bottom-arab";
pos = (0,0);
}
);
layerId = m006;
shapes = (
{
closed = 1;
nodes = (
(0.294,60,l),
(-80.098,54.314,o),
(-80.098,5.621,o),
(0.294,0,c),
(652,0,l),
(716,0,o),
(887.573,12.28,o),
(994.157,50,c),
(994.157,110,l),
(894.519,70.969,o),
(723.645,59.643,o),
(651.745,60,cs),
(457.196,59.046,o),
(339.098,239.418,o),
(339.098,409.621,cs),
(339.098,612.601,o),
(466.956,775.696,o),
(651.353,776.68,cs),
(761.562,777.268,o),
(868.516,726.752,o),
(951.634,658.333,c),
(961.49,721.503,l),
(893.288,778.333,o),
(776.307,836.353,o),
(649,835.111,cs),
(432.238,832.997,o),
(280.536,646.797,o),
(280.536,409.621,cs),
(280.536,274.092,o),
(349.288,122.366,o),
(467.098,60,c)
);
}
);
width = 1165;
},
{
anchors = (
{
name = "top-arab";
pos = (555,951);
},
{
name = "bottom-arab";
pos = (555,0);
}
);
associatedMasterId = m006;
attr = {
coordinates = (
800,
1
);
};
layerId = m007;
name = ExtraBold;
shapes = (
{
closed = 1;
nodes = (
(0,340,l),
(-85.882,254.706,o),
(-85.882,84.314,o),
(0,0,c),
(596.454,0,l),
(725.272,1.292,o),
(888.669,19.725,o),
(979.941,60,c),
(979.941,380,l),
(889.191,341.22,o),
(697,340,o),
(574.137,340,cs),
(483.804,340.451,o),
(434.804,425.451,o),
(434.431,508.275,cs),
(434.431,604,o),
(496.804,683.878,o),
(588.255,684.157,cs),
(684.804,684.451,o),
(793.353,652.235,o),
(875.275,611.725,c),
(932.314,922.529,l),
(869.275,954.98,o),
(738.804,1000.466,o),
(582.961,1000.647,cs),
(321.804,1000.95,o),
(116,761.922,o),
(116,528.294,cs),
(116,478.819,o),
(128.859,406.336,o),
(151.963,340,c)
);
}
);
width = 1094;
}
);
unicode = 65227;
},
{
glyphname = "ain-arab.medi";
layers = (
{
anchors = (
{
name = "top-arab";
pos = (689,757);
},
{
name = "bottom-arab";
pos = (0,0);
}
);
layerId = m006;
shapes = (
{
closed = 1;
nodes = (
(289.817,706.732,l),
(975.007,706.732,l),
(1071.02,706.732,o),
(1125.752,592.81,o),
(1061.562,517.882,c),
(689.092,135.373,l)
);
},
{
closed = 1;
nodes = (
(0.294,60,l),
(-80.098,54.314,o),
(-80.098,5.621,o),
(0.294,0,c),
(420.137,0,l),
(622.948,0,o),
(656.608,62.157,o),
(688.046,82.941,c),
(719.418,62.157,o),
(753.144,0,o),
(955.954,0,cs),
(1415.131,0,l),
(1415.131,60,l),
(962.529,60,l),
(860.007,60,o),
(768.699,77.804,o),
(750.373,119.281,c),
(1107.856,484.954,l),
(1200.804,594.275,o),
(1124.51,766.536,o),
(977.621,766.536,cs),
(242.118,766.536,l),
(217.601,715.471,l),
(632.174,119.323,l),
(618.946,79.814,o),
(524.203,60,o),
(420.699,60,cs)
);
}
);
width = 1415;
},
{
anchors = (
{
name = "top-arab";
pos = (674,978);
},
{
name = "bottom-arab";
pos = (658,0);
}
);
associatedMasterId = m006;
attr = {
coordinates = (
800,
1
);
};
layerId = m007;
name = ExtraBold;
shapes = (
{
closed = 1;
nodes = (
(427.252,662.784,l),
(826.446,662.784,l),
(873.654,662.784,o),
(884.201,628.859,o),
(855.024,591.288,c),
(655.266,352.784,l)
);
},
{
closed = 1;
nodes = (
(0.412,340,l),
(-85.471,254.706,o),
(-85.471,84.314,o),
(0.412,0,c),
(320.059,0,l),
(532.216,0,o),
(617.118,42.353,o),
(638.686,64.118,c),
(659.275,42.353,o),
(745.157,0,o),
(957.314,0,cs),
(1312.961,0,l),
(1312.961,340,l),
(1027.941,340,l),
(1018.098,340,o),
(992.49,337.059,o),
(985.588,329.216,c),
(1087.843,450.314,l),
(1264.059,662.118,o),
(1113.647,978.039,o),
(842.314,978.039,cs),
(205.765,978.039,l),
(89.363,684.554,l),
(332.614,329.844,l),
(327.195,337.217,o),
(311.04,340,o),
(300.49,340,cs)
);
}
);
width = 1313;
}
);
unicode = 65228;
},
{
glyphname = "dotlessfeh-arab";
layers = (
{
anchors = (
{
name = "top-arab";
pos = (1378,860);
},
{
name = "bottom-arab";
pos = (0,0);
}
);
layerId = m006;
shapes = (
{
closed = 1;
nodes = (
(1551.746,119.131,c),
(1228.511,123.105,o),
(1074.263,361.771,o),
(1073.328,530.059,cs),
(1072.405,696.327,o),
(1215.838,843.837,o),
(1378.106,842.837,cs),
(1525.224,842.837,o),
(1683.818,725.216,o),
(1683.818,511.19,cs),
(1683.818,350.255,o),
(1649.021,179.373,o)
);
},
{
closed = 1;
nodes = (
(508.952,0,l),
(1392.897,0,l),
(1646.302,0,o),
(1742.38,236.739,o),
(1742.38,511.19,cs),
(1742.38,750.758,o),
(1561.335,900.464,o),
(1378.106,900.464,cs),
(1183.642,902.399,o),
(1013.628,728.587,o),
(1014.766,528.993,cs),
(1015.701,365.137,o),
(1133.256,96.124,o),
(1491.433,74,c),
(1435.958,60.133,o),
(1086.481,60.001,o),
(1051.139,60,cs),
(488.952,60,l)
);
},
{
closed = 1;
nodes = (
(329.878,60,o),
(191.845,230.967,o),
(240.845,431.758,cs),
(291.79,624,l),
(234.283,641.765,l),
(183.283,443.948,l),
(122.283,196.614,o),
(297.551,0,o),
(508.603,0,c),
(508.603,60,l)
);
}
);
width = 1903;
},
{
anchors = (
{
name = "top-arab";
pos = (1405,972);
},
{
name = "bottom-arab";
pos = (1057,0);
}
);
associatedMasterId = m006;
attr = {
coordinates = (
800,
1
);
};
layerId = m007;
name = ExtraBold;
shapes = (
{
closed = 1;
nodes = (
(1481.635,364.381,c),
(1311.015,397.673,o),
(1247.501,509.619,o),
(1247.48,594.897,cs),
(1247.46,674.023,o),
(1318.48,747.619,o),
(1399.274,747.619,cs),
(1480.494,747.619,o),
(1551,686.968,o),
(1551,594.973,cs),
(1551,492.978,o),
(1526.644,404.847,o)
);
},
{
closed = 1;
nodes = (
(578,0,l),
(1442,0,l),
(1645,0,o),
(1857,163,o),
(1857,592,cs),
(1857,853,o),
(1661,1049,o),
(1404,1049,cs),
(1161,1050,o),
(951,857,o),
(952,607,cs),
(952,539,o),
(978,392,o),
(1086,340,c),
(1066,340,o),
(1033,340,o),
(1015,340,cs),
(373,340,l)
);
},
{
closed = 1;
nodes = (
(452,340,o),
(426,462,o),
(455,565,cs),
(517,773,l),
(198,861,l),
(141,627,l),
(59,282,o),
(271,0,o),
(579,0,c),
(583,340,l)
);
}
);
width = 1966;
}
);
unicode = (1697,2235);
},
{
glyphname = "dotlessfeh-arab.fina";
layers = (
{
anchors = (
{
name = "top-arab";
pos = (1392,814);
},
{
name = "bottom-arab";
pos = (0,0);
}
);
layerId = m006;
shapes = (
{
closed = 1;
nodes = (
(1391.458,795.098,cs),
(1559.895,795.098,o),
(1700.02,681.503,o),
(1700.02,496.34,cs),
(1700.02,248.059,o),
(1442.503,88.503,o),
(1391.458,61.869,c),
(1340.412,88.503,o),
(1082.895,248.059,o),
(1082.895,496.34,cs),
(1082.895,681.503,o),
(1222.954,795.098,o)
);
},
{
closed = 1;
nodes = (
(508.952,0,l),
(1323.484,0,l),
(1356.359,0,o),
(1390.02,12.157,o),
(1391.458,22.941,c),
(1392.83,12.157,o),
(1426.556,0,o),
(1459.366,0,cs),
(2023.353,0,l),
(2023.353,60,l),
(1490.307,60,l),
(1586.451,122.346,o),
(1758.582,279.556,o),
(1758.582,496.34,cs),
(1758.582,712.261,o),
(1595.183,853.725,o),
(1391.458,853.725,cs),
(1188.601,853.725,o),
(1024.268,712.261,o),
(1024.268,496.34,cs),
(1024.268,279.556,o),
(1196.399,122.346,o),
(1292.542,60,c),
(508.952,60,l)
);
},
{
closed = 1;
nodes = (
(329.878,60,o),
(191.845,230.967,o),
(240.845,431.758,cs),
(291.79,624,l),
(234.283,641.765,l),
(183.283,443.948,l),
(122.283,196.614,o),
(297.551,0,o),
(508.603,0,c),
(508.603,60,l)
);
}
);
width = 2023;
},
{
anchors = (
{
name = "top-arab";
pos = (1417,991);
},
{
name = "bottom-arab";
pos = (941,0);
}
);
associatedMasterId = m006;
attr = {
coordinates = (
800,
1
);
};
layerId = m007;
name = ExtraBold;
shapes = (
{
closed = 1;
nodes = (
(1417,733,cs),
(1501.406,733,o),
(1579,676.763,o),
(1579,580.846,cs),
(1579,462.929,o),
(1478.048,378.303,o),
(1417,324,c),
(1354.875,378.303,o),
(1255,462.929,o),
(1255,580.846,cs),
(1255,676.763,o),
(1332.594,733,o)
);
},
{
closed = 1;
nodes = (
(568.476,0,l),
(1097.255,0,l),
(1310.392,0,o),
(1395.294,42.353,o),
(1416.863,64.118,c),
(1437.451,42.353,o),
(1523.333,0,o),
(1735.49,0,cs),
(2005.294,0,l),
(2005.294,340,l),
(1787.608,340,l),
(1829.765,393.196,o),
(1873.725,497.333,o),
(1873.725,585.098,cs),
(1873.725,845.922,o),
(1672.745,1035.882,o),
(1416.863,1035.882,cs),
(1160.02,1035.882,o),
(959.02,845.922,o),
(959.02,585.098,cs),
(959.02,497.333,o),
(1002.98,393.196,o),
(1045.137,340,c),
(573.277,340,l)
);
},
{
closed = 1;
nodes = (
(452.454,340,o),
(425.964,461.51,o),
(454.964,565.373,cs),
(517.179,772.551,l),
(198.208,861.246,l),
(140.731,627.216,l),
(58.731,282.216,o),
(270.751,0,o),
(578.535,0,c),
(583.336,340,l)
);
}
);
width = 2004;
}
);
},
{
glyphname = "dotlessfeh-arab.init";
layers = (
{
anchors = (
{
name = "top-arab";
pos = (587,860);
},
{
name = "bottom-arab";
pos = (0,0);
}
);
layerId = m006;
shapes = (
{
closed = 1;
nodes = (
(760.608,119.131,c),
(437.373,123.105,o),
(283.124,361.771,o),
(282.19,530.059,cs),
(281.266,696.327,o),
(424.699,843.837,o),
(586.967,842.837,cs),
(734.085,842.837,o),
(892.68,725.216,o),
(892.68,511.19,cs),
(892.68,350.255,o),
(857.882,179.373,o)
);
},
{
closed = 1;
nodes = (
(-80.098,54.314,o),
(-80.098,5.621,o),
(0.294,0,c),
(601.758,0,l),
(855.163,0,o),
(951.242,236.739,o),
(951.242,511.19,cs),
(951.242,750.758,o),
(770.196,900.464,o),
(586.967,900.464,cs),
(392.503,902.399,o),
(222.489,728.587,o),
(223.627,528.993,cs),
(224.562,365.137,o),
(342.118,96.124,o),
(700.294,74,c),
(644.82,60.133,o),
(295.343,60.001,o),
(260,60,cs),
(0.294,60,l)
);
}
);
width = 1112;
},
{
anchors = (
{
name = "top-arab";
pos = (562,972);
},
{
name = "bottom-arab";
pos = (571,0);
}
);
associatedMasterId = m006;
attr = {
coordinates = (
800,
1
);
};
layerId = m007;
name = ExtraBold;
shapes = (
{
closed = 1;
nodes = (
(640.154,364.762,c),
(469.535,398.054,o),
(406.021,510,o),
(405.999,595.278,cs),
(405.979,674.404,o),
(477,748,o),
(557.794,748,cs),
(639.013,748,o),
(709.52,687.349,o),
(709.52,595.354,cs),
(709.52,493.359,o),
(685.164,405.228,o)
);
},
{
closed = 1;
nodes = (
(-85.471,254.706,o),
(-85.471,84.314,o),
(0.412,0,c),
(600.373,0,l),
(803.451,0,o),
(1014.627,163.078,o),
(1014.627,591.843,cs),
(1014.627,853.373,o),
(818.941,1048.961,o),
(562.51,1048.961,cs),
(319.549,1049.98,o),
(109.412,856.824,o),
(110.412,606.902,cs),
(110.431,539.059,o),
(135.765,391.863,o),
(244.137,340,c),
(206.825,340,o),
(130.111,340,o),
(117.039,340,cs),
(0.412,340,l)
);
}
);
width = 1123;
}
);
},
{
glyphname = "dotlessfeh-arab.medi";
layers = (
{
anchors = (
{
name = "top-arab";
pos = (592,814);
},
{
name = "bottom-arab";
pos = (0,0);
}
);
layerId = m006;
shapes = (
{
closed = 1;
nodes = (
(592.19,795.098,cs),
(760.627,795.098,o),
(900.752,681.503,o),
(900.752,496.34,cs),
(900.752,248.059,o),
(643.17,88.503,o),
(592.19,61.869,c),
(541.144,88.503,o),
(283.627,248.059,o),
(283.627,496.34,cs),
(283.627,681.503,o),
(423.686,795.098,o)
);
},
{
closed = 1;
nodes = (
(0.294,60,l),
(-80.098,54.314,o),
(-80.098,5.621,o),
(0.294,0,c),
(524.281,0,l),
(557.092,0,o),
(590.752,12.157,o),
(592.19,22.941,c),
(593.627,12.157,o),
(627.288,0,o),
(660.098,0,cs),
(1224.085,0,l),
(1224.085,60,l),
(691.105,60,l),
(787.183,122.346,o),
(959.314,279.556,o),
(959.314,496.34,cs),
(959.314,712.261,o),
(795.915,853.725,o),
(592.19,853.725,cs),
(389.333,853.725,o),
(225.065,712.261,o),
(225.065,496.34,cs),
(225.065,279.556,o),
(397.131,122.346,o),
(493.275,60,c)
);
}
);
width = 1224;
},
{
anchors = (
{
name = "top-arab";
pos = (588,991);
},
{
name = "bottom-arab";
pos = (588,0);
}
);
associatedMasterId = m006;
attr = {
coordinates = (
800,
1
);
};
layerId = m007;
name = ExtraBold;
shapes = (
{
closed = 1;
nodes = (
(588.431,732.755,cs),
(672.837,732.755,o),
(750.431,676.518,o),
(750.431,580.601,cs),
(750.431,462.684,o),
(649.48,378.058,o),
(588.431,323.755,c),
(526.307,378.058,o),
(426.431,462.684,o),
(426.431,580.601,cs),
(426.431,676.518,o),
(504.026,732.755,o)
);
},
{
closed = 1;
nodes = (
(0,340,l),
(-85.882,254.706,o),
(-85.882,84.314,o),
(0,0,c),
(269.804,0,l),
(481.961,0,o),
(566.863,42.353,o),
(588.431,64.118,c),
(610,42.353,o),
(694.902,0,o),
(907.059,0,cs),
(1176.863,0,l),
(1176.863,340,l),
(960.157,340,l),
(1001.333,393.196,o),
(1045.294,497.333,o),
(1045.294,585.098,cs),
(1045.294,845.922,o),
(844.314,1035.882,o),
(588.431,1035.882,cs),
(331.588,1035.882,o),
(131.569,845.922,o),
(131.569,585.098,cs),
(131.569,497.328,o),
(174.549,393.196,o),
(216.706,340,c)
);
}
);
width = 1177;
}
);
},
{
glyphname = "dotlessqaf-arab";
layers = (
{
anchors = (
{
name = "top-arab";
pos = (1122,726);
},
{
name = "bottom-arab";
pos = (782,-551);
}
);
layerId = m006;
shapes = (
{
closed = 1;
nodes = (
(1414.229,373.32,l),
(1414.229,507.163,o),
(1270.767,707.621,o),
(1121.601,707.621,qs),
(989.266,707.621,o),
(828.974,521.641,o),
(828.974,373.32,qs),
(828.974,216.582,o),
(976.021,60,o),
(1121.601,60,qs),
(1414.229,60,l)
);
},
{
closed = 1;
nodes = (
(1412.182,0,q),
(1121.601,0,l),
(951.225,0,o),
(770.412,189.023,o),
(770.412,373.32,qs),
(770.412,496.535,o),
(862.32,668.676,o),
(1017,766,o),
(1121.601,766.183,qs),
(1279.073,766.183,o),
(1472.791,549.434,o),
(1472.791,373.32,qs),
(1472.731,55.812,l),
(1473.556,-125.681,o),
(1330.21,-382.328,o),
(1090.727,-518.867,o),
(952.699,-528.91,qs),
(697.928,-548.91,l),
(478.901,-566.91,o),
(260.763,-393.225,o),
(157,-130.91,o),
(157,16.927,qs),
(157,164.09,o),
(235.881,392.935,o),
(266.118,470.201,q),
(322.68,445.201,l),
(295.119,383.755,o),
(216,157.09,o),
(215.562,19.803,qs),
(216,-175.91,o),
(424.855,-507.42,o),
(697.928,-488.91,qs),
(952.699,-468.9,l),
(1076.702,-458.9,o),
(1286.114,-340.378,o),
(1401.746,-136.26,o)
);
}
);
width = 1644;
},
{
anchors = (
{
name = "top-arab";
pos = (1213,920);
},
{
name = "bottom-arab";
pos = (932,-539);
}
);
associatedMasterId = m006;
attr = {
coordinates = (
800,
1
);
};
layerId = m007;
name = ExtraBold;
shapes = (
{
closed = 1;
nodes = (
(1345.686,472.061,l),
(1345.686,552.158,o),
(1283.528,669.657,o),
(1199.148,669.657,qs),
(1111.435,669.657,o),
(1043.686,544.411,o),
(1043.686,472.061,qs),
(1043.686,397.105,o),
(1104.131,336.657,o),
(1199.148,336.657,qs),
(1345.686,336.657,l)
);
},
{
closed = 1;
nodes = (
(1308.203,0,q),
(1159.196,0,l),
(926.789,0,o),
(737.353,246.743,o),
(737.353,475.804,qs),
(737.353,615.545,o),
(859.152,843.824,o),
(1070.535,974.745,o),
(1199.196,974.745,qs),
(1396.637,974.745,o),
(1641.039,693.898,o),
(1641.039,475.804,qs),
(1641,0,l),
(1641,-113,o),
(1493.609,-365.923,o),
(1214.008,-529.056,o),
(1022.414,-539.056,qs),
(773.922,-548.056,l),
(559.625,-558.056,o),
(270.409,-366.083,o),
(110,-64.685,o),
(110,64.493,qs),
(110.905,240.766,o),
(162.094,505.811,o),
(220,667.473,q),
(512.431,549.473,l),
(484.086,462.448,o),
(427.811,234.779,o),
(428.431,107.63,qs),
(429.871,-33.888,o),
(572.732,-218.056,o),
(773.922,-208.056,qs),
(1022.412,-199.056,l),
(1132,-195.056,o),
(1251.31,-136.889,o),
(1307.76,-40.648,o)
);
}
);
width = 1773;
}
);
unicode = (1647,2236);
},
{
glyphname = uniE014;
layers = (
{
anchors = (
{
name = "top-arab";
pos = (1122,726);
},
{
name = "bottom-arab";
pos = (783,-551);
}
);
layerId = m006;
shapes = (
{
closed = 1;
nodes = (
(1414.229,373.32,l),
(1414.229,507.163,o),
(1270.767,707.621,o),
(1121.601,707.621,qs),
(989.266,707.621,o),
(828.974,521.641,o),
(828.974,373.32,qs),
(828.974,216.582,o),
(976.021,60,o),
(1121.601,60,qs),
(1414.229,60,l)
);
},
{
closed = 1;
nodes = (
(1472.731,60.035,l),
(1785.473,60.096,l),
(1785.473,0.109,l),
(1471.196,0.019,l),
(1462.252,-145.92,o),
(1330.21,-382.328,o),
(1090.727,-518.867,o),
(952.699,-528.91,qs),
(697.928,-548.91,l),
(478.901,-566.91,o),
(260.763,-393.225,o),
(157,-130.91,o),
(157,16.927,qs),
(157,164.09,o),
(235.881,392.935,o),
(266.118,470.201,q),
(322.68,445.201,l),
(295.119,383.755,o),
(216,157.09,o),
(215.562,19.803,qs),
(216,-175.91,o),
(424.855,-507.42,o),
(697.928,-488.91,qs),
(952.699,-468.9,l),
(1076.702,-458.9,o),
(1286.114,-340.378,o),
(1401.746,-136.26,o),
(1412.182,0,q),
(1121.601,0,l),
(951.225,0,o),
(770.412,189.023,o),
(770.412,373.32,qs),
(770.412,496.535,o),
(862.32,668.676,o),
(1017,766,o),
(1121.601,766.183,qs),
(1279.073,766.183,o),
(1472.791,549.434,o),
(1472.791,373.32,qs)
);
}
);
width = 1785;
},
{
anchors = (
{
name = "top-arab";
pos = (1213,920);
},
{
name = "bottom-arab";
pos = (932,-539);
}
);
associatedMasterId = m006;
attr = {
coordinates = (
800,
1
);
};
layerId = m007;
name = ExtraBold;
shapes = (
{
closed = 1;
nodes = (
(1345.686,472.061,l),
(1345.686,552.158,o),
(1283.528,669.657,o),
(1199.148,669.657,qs),
(1111.435,669.657,o),
(1043.686,544.411,o),
(1043.686,472.061,qs),
(1043.686,397.105,o),
(1104.131,336.657,o),
(1199.148,336.657,qs),
(1345.686,336.657,l)
);
},
{
closed = 1;
nodes = (
(1641.028,340,l),
(1808,340,l),
(1808,0,l),
(1641,0,l),
(1641,-113,o),
(1493.609,-365.923,o),
(1214.008,-529.056,o),
(1022.414,-539.056,qs),
(773.922,-548.056,l),
(559.625,-558.056,o),
(270.409,-366.083,o),
(110,-64.685,o),
(110,64.493,qs),
(110.905,240.766,o),
(162.094,505.811,o),
(220,667.473,q),
(512.431,549.473,l),
(484.086,462.448,o),
(427.811,234.779,o),
(428.431,107.63,qs),
(429.871,-33.888,o),
(572.732,-218.056,o),
(773.922,-208.056,qs),
(1022.412,-199.056,l),
(1132,-195.056,o),
(1251.31,-136.889,o),
(1307.76,-40.648,o),
(1308.203,0,q),
(1159.196,0,l),
(926.789,0,o),
(737.353,246.743,o),
(737.353,475.804,qs),
(737.353,615.545,o),
(859.152,843.824,o),
(1070.535,974.745,o),
(1199.196,974.745,qs),
(1396.637,974.745,o),
(1641.039,693.898,o),
(1641.039,475.804,qs)
);
}
);
width = 1808;
}
);
},
{
glyphname = "keheh-arab";
layers = (
{
anchors = (
{
name = "top-arab";
pos = (477,632);
},
{
name = "bottom-arab";
pos = (0,0);
}
);
layerId = m006;
shapes = (
{
closed = 1;
nodes = (
(508.603,60,l),
(329.878,60,o),
(191.845,230.967,o),
(240.845,431.758,cs),
(291.79,624,l),
(234.283,641.765,l),
(183.283,443.948,l),
(122.283,196.614,o),
(297.551,0,o),
(508.952,0,cs),
(1511.346,0,l),
(1747.144,0,o),
(1865.804,284.039,o),
(1705.033,452.072,cs),
(1086.673,1097.712,l),
(1808.915,1392.444,l),
(1788.379,1447.765,l),
(1025,1137.065,l),
(1025,1077.503,l),
(1661.196,413.699,l),
(1788.529,280.562,o),
(1691.954,60,o),
(1510.039,60,cs)
);
}
);
width = 1960;
},
{
anchors = (
{
name = "top-arab";
pos = (542,796);
},
{
name = "bottom-arab";
pos = (992,0);
}
);
associatedMasterId = m006;
attr = {
coordinates = (
800,
1
);
};
layerId = m007;
name = ExtraBold;
shapes = (
{
closed = 1;
nodes = (
(583.168,340,l),
(452.286,340,o),
(425.796,461.51,o),
(454.796,565.373,cs),
(517.011,772.551,l),
(198.039,861.246,l),
(140.563,627.216,l),
(58.563,282.216,o),
(270.583,0,o),
(578.476,0,cs),
(1440.098,0,l),
(1771.059,0,o),
(1940.961,396.588,o),
(1713.392,635.078,cs),
(1320,1045.686,l),
(1889.627,1274.667,l),
(1787.588,1562.471,l),
(982.902,1247.98,l),
(982.902,938.549,l),
(1461.843,437.49,l),
(1495.843,400.431,o),
(1475.216,340,o),
(1420.49,340,cs)
);
}
);
width = 1937;
}
);
unicode = (1705,64398);
},
{
glyphname = "keheh-arab.fina";
layers = (
{
anchors = (
{
name = "top-arab";
pos = (477,632);
},
{
name = "bottom-arab";
pos = (0,0);
}
);
layerId = m006;
shapes = (
{
closed = 1;
nodes = (
(508.603,60,l),
(329.878,60,o),
(191.845,230.967,o),
(240.845,431.758,cs),
(291.79,624,l),
(234.283,641.765,l),
(183.283,443.948,l),
(122.283,196.614,o),
(297.551,0,o),
(508.952,0,cs),
(1504.288,0,l),
(1680.268,0,o),
(1789.987,156.183,o),
(1767.131,302.242,c),
(1975.477,83.418,l),
(2026.98,29.85,o),
(2096.941,0,o),
(2170.098,0,cs),
(2239.771,0,l),
(2239.771,60,l),
(2170.098,60,l),
(2112.386,60,o),
(2056.608,83.627,o),
(2017.438,124.667,cs),
(1086.673,1097.712,l),
(1808.915,1392.444,l),
(1788.379,1447.765,l),
(1025,1137.065,l),
(1025,1077.503,l),
(1669.608,405.288,l),
(1784.791,271.216,o),
(1688.216,60,o),
(1510.039,60,cs)
);
}
);
width = 2240;
},
{
anchors = (
{
name = "top-arab";
pos = (542,796);
},
{
name = "bottom-arab";
pos = (992,0);
}
);
associatedMasterId = m006;
attr = {
coordinates = (
800,
1
);
};
layerId = m007;
name = ExtraBold;
shapes = (
{
closed = 1;
nodes = (
(583.336,340,l),
(452.454,340,o),
(425.964,461.51,o),
(454.964,565.373,cs),
(517.179,772.551,l),
(198.208,861.246,l),
(140.731,627.216,l),
(58.739,282.247,o),
(270.712,0.052,o),
(578.476,0,cs),
(1334.216,0,l),
(1523.922,0,o),
(1643.706,74.745,o),
(1706.863,179.627,c),
(1766.059,117.275,l),
(1838.608,41.745,o),
(1936.02,0,o),
(2039.373,0,cs),
(2064.471,0,l),
(2064.471,340,l),
(2039.373,340,l),
(2013.686,340,o),
(1989.02,344.412,o),
(1975.471,358,cs),
(1320,1045.686,l),
(1889.627,1274.667,l),
(1787.588,1562.471,l),
(982.902,1247.98,l),
(982.902,938.549,l),
(1462.02,437.314,l),
(1495.765,400.235,o),
(1475.137,340,o),
(1420.49,340,cs)
);
}
);
width = 2063;
}
);
unicode = 64399;
},
{
glyphname = "keheh-arab.init";
layers = (
{
anchors = (
{
name = "top-arab";
pos = (300,1301);
},
{
name = "bottom-arab";
pos = (0,0);
}
);
layerId = m006;
shapes = (
{
closed = 1;
nodes = (
(0.294,60,l),
(-80.098,54.314,o),
(-80.098,5.621,o),
(0.294,0,c),
(629.582,0,l),
(865.379,0,o),
(984.039,284.039,o),
(823.268,452.072,cs),
(204.908,1097.712,l),
(927.15,1392.444,l),
(906.614,1447.765,l),
(143.235,1137.065,l),
(143.235,1077.503,l),
(779.431,413.699,l),
(906.765,280.562,o),
(810.19,60,o),
(628.275,60,cs)
);
}
);
width = 1078;
},
{
anchors = (
{
name = "top-arab";
pos = (340,1335);
},
{
name = "bottom-arab";
pos = (560,0);
}
);
associatedMasterId = m006;
attr = {
coordinates = (
800,
1
);
};
layerId = m007;
name = ExtraBold;
shapes = (
{
closed = 1;
nodes = (
(0.412,340,l),
(-85.471,254.706,o),
(-85.471,84.314,o),
(0.412,0,c),
(591.725,0,l),
(922.686,0,o),
(1092.588,396.588,o),
(865.02,635.078,cs),
(471.627,1045.686,l),
(1041.255,1274.667,l),
(939.216,1562.471,l),
(134.529,1247.98,l),
(134.529,938.549,l),
(613.471,437.49,l),
(647.471,400.431,o),
(626.843,340,o),
(572.118,340,cs)
);
}
);
width = 1085;
}
);
unicode = 64400;
},
{
glyphname = "keheh-arab.medi";
layers = (
{
anchors = (
{
name = "top-arab";
pos = (300,1301);
},
{
name = "bottom-arab";
pos = (0,0);
}
);
layerId = m006;
shapes = (
{
closed = 1;
nodes = (
(0.294,60,l),
(-80.098,54.314,o),
(-80.098,5.621,o),
(0.294,0,c),
(622.523,0,l),
(798.503,0,o),
(908.222,156.183,o),
(885.366,302.242,c),
(1093.712,83.418,l),
(1145.216,29.85,o),
(1215.176,0,o),
(1288.333,0,cs),
(1367.353,0,l),
(1367.353,60,l),
(1288.333,60,l),
(1230.621,60,o),
(1174.843,83.627,o),
(1135.673,124.667,cs),
(204.908,1097.712,l),
(927.15,1392.444,l),
(906.614,1447.765,l),
(143.235,1137.065,l),
(143.235,1077.503,l),
(787.843,405.288,l),
(903.026,271.216,o),
(806.451,60,o),
(628.275,60,cs)
);
}
);
width = 1367;
},
{
anchors = (
{
name = "top-arab";
pos = (340,1335);
},
{
name = "bottom-arab";
pos = (560,0);
}
);
associatedMasterId = m006;
attr = {
coordinates = (
800,
1
);
};
layerId = m007;
name = ExtraBold;
shapes = (
{
closed = 1;
nodes = (
(0.412,340,l),
(-85.471,254.706,o),
(-85.471,84.314,o),
(0.412,0,c),
(485.843,0,l),
(675.549,0,o),
(795.333,74.745,o),
(858.49,179.627,c),
(917.686,117.275,l),
(990.235,41.745,o),
(1087.647,0,o),
(1191,0,cs),
(1216.294,0,l),
(1216.294,340,l),
(1191,340,l),
(1165.314,340,o),
(1140.647,344.412,o),
(1127.098,358,cs),
(471.627,1045.686,l),
(1041.255,1274.667,l),
(939.216,1562.471,l),
(134.529,1247.98,l),
(134.529,938.549,l),
(613.647,437.314,l),
(647.392,400.235,o),
(626.765,340,o),
(572.118,340,cs)
);
}
);
width = 1216;
}
);
unicode = 64401;
},
{
glyphname = uniE021;
layers = (
{
layerId = m006;
shapes = (
{
closed = 1;
nodes = (
(508.603,60,l),
(329.878,60,o),
(191.845,230.967,o),
(240.845,431.758,cs),
(291.79,624,l),
(234.283,641.765,l),
(183.283,443.948,l),
(122.283,196.614,o),
(297.551,0,o),
(508.603,0,cs),
(1416,0,l),
(1596.987,0,o),
(1743.32,145.614,o),
(1743.32,325.948,cs),
(1742.987,1513,l),
(1684.425,1513,l),
(1684.758,328.758,l),
(1684.758,179.967,o),
(1564.725,60,o),
(1416,60,cs)
);
}
);
width = 1964;
},
{
associatedMasterId = m006;
attr = {
coordinates = (
800,
1
);
};
layerId = m007;
name = ExtraBold;
shapes = (
{
closed = 1;
nodes = (
(583.336,340,l),
(452.454,340,o),
(425.964,461.51,o),
(454.964,565.373,cs),
(517.179,772.551,l),
(198.208,861.246,l),
(140.731,627.216,l),
(58.739,282.247,o),
(270.712,0.052,o),
(578.476,0,cs),
(1299.51,0,l),
(1536.314,0,o),
(1729.314,182.216,o),
(1729.314,409.216,cs),
(1729.216,1504,l),
(1410.784,1504,l),
(1410.882,451.373,l),
(1410.882,389.51,o),
(1360.392,340,o),
(1299.51,340,cs)
);
}
);
width = 1865;
}
);
unicode = 57377;
},
{
glyphname = uniE022;
layers = (
{
layerId = m006;
shapes = (
{
closed = 1;
nodes = (
(508.603,60,l),
(329.878,60,o),
(191.845,230.967,o),
(240.845,431.758,cs),
(291.79,624,l),
(234.283,641.765,l),
(183.283,443.948,l),
(122.283,196.614,o),
(297.551,0,o),
(508.603,0,cs),
(1416.294,0,l),
(1553.248,0,o),
(1667.961,83.712,o),
(1714.333,203.098,c),
(1760.706,83.712,o),
(1875.418,0,o),
(2012.373,0,cs),
(2104,0,l),
(2104,60,l),
(2012.373,60,l),
(1863.582,60,o),
(1743.614,179.967,o),
(1743.614,328.758,cs),
(1743.614,1512.941,l),
(1685.052,1512.941,l),
(1685.052,328.758,l),
(1685.052,179.967,o),
(1565.02,60,o),
(1416.294,60,cs)
);
}
);
width = 2104;
},
{
associatedMasterId = m006;
attr = {
coordinates = (
800,
1
);
};
layerId = m007;
name = ExtraBold;
shapes = (
{
closed = 1;
nodes = (
(583.336,340,l),
(452.454,340,o),
(425.964,461.51,o),
(454.964,565.373,cs),
(517.179,772.551,l),
(198.208,861.246,l),
(140.731,627.216,l),
(58.739,282.247,o),
(270.712,0.052,o),
(578.476,0,cs),
(1299.51,0,l),
(1421.824,0,o),
(1504.51,51.686,o),
(1570.098,134.471,c),
(1635.686,51.686,o),
(1718.373,0,o),
(1840.686,0,cs),
(1905.588,0,l),
(1905.588,340,l),
(1840.686,340,l),
(1778.824,340,o),
(1729.314,389.51,o),
(1729.314,451.373,cs),
(1729.216,1504,l),
(1410.784,1504,l),
(1410.882,451.373,l),
(1410.882,389.51,o),
(1360.392,340,o),
(1299.51,340,cs)
);
}
);
width = 1906;
}
);
unicode = 57378;
},
{
glyphname = "lam-arab";
layers = (
{
anchors = (
{
name = "top-arab";
pos = (600,468);
},
{
name = "bottom-arab";
pos = (714,-551);
}
);
layerId = m006;
shapes = (
{
closed = 1;
nodes = (
(1315,1483,l),
(1373.562,1483,l),
(1372.729,44.08,l),
(1373.591,-137.632,o),
(1230.21,-394.341,o),
(990.727,-530.88,o),
(852.699,-540.923,qs),
(697.928,-550.923,l),
(478.901,-560.923,o),
(260.763,-395.239,o),
(157,-132.923,o),
(157,14.914,qs),
(157,162.077,o),
(235.881,390.922,o),
(266.118,468.188,q),
(322.68,443.188,l),
(295.119,381.742,o),
(216,155.077,o),
(215.562,17.79,qs),
(216,-177.923,o),
(424.855,-509.433,o),
(697.928,-490.923,qs),
(852.699,-480.913,l),
(976.702,-470.913,o),
(1186.114,-352.392,o),
(1312.719,-128.903,o),
(1312.719,47.097,qs)
);
}
);
width = 1591;
},
{
anchors = (
{
name = "top-arab";
pos = (470,567);
},
{
name = "bottom-arab";
pos = (817,-539);
}
);
associatedMasterId = m006;
attr = {
coordinates = (
800,
1
);
};
layerId = m007;
name = ExtraBold;
shapes = (
{
closed = 1;
nodes = (
(1195,1523,l),
(1512.755,1523.056,l),
(1513,80,l),
(1511.603,-73.214,o),
(1363.609,-345.923,o),
(1084.008,-529.056,o),
(892.414,-539.056,qs),
(773.922,-548.056,l),
(559.625,-558.056,o),
(270.409,-366.083,o),
(110,-64.685,o),
(110,64.493,qs),
(110.905,240.766,o),
(162.094,505.811,o),
(220,667.473,q),
(512.431,549.473,l),
(484.086,462.448,o),
(427.811,234.779,o),
(428.431,107.63,qs),
(429.871,-33.888,o),
(572.732,-225.056,o),
(773.922,-208.056,qs),
(892.412,-199.056,l),
(992,-192.056,o),
(1116.233,-113.299,o),
(1195.505,16.989,o),
(1195.505,116.437,qs)
);
}
);
width = 1670;
}
);
unicode = (1604,65245);
},
{
glyphname = "lam-arab.fina";
layers = (
{
anchors = (
{
name = "top-arab";
pos = (600,468);
},
{
name = "bottom-arab";
pos = (714,-551);
}
);
layerId = m006;
shapes = (
{
closed = 1;
nodes = (
(1372.885,313.014,l),
(1377.966,210.8,o),
(1529.726,59.065,o),
(1641.281,59.065,qs),
(1733.569,59.065,l),
(1733.569,-0.935,l),
(1641.281,-0.935,l),
(1556.272,-0.935,o),
(1414.032,84.512,o),
(1372.794,155.836,q),
(1372.729,44.08,l),
(1373.591,-137.632,o),
(1230.21,-394.341,o),
(990.727,-530.88,o),
(852.699,-540.923,qs),
(697.928,-550.923,l),
(478.901,-560.923,o),
(260.763,-395.239,o),
(157,-132.923,o),
(157,14.914,qs),
(157,162.077,o),
(235.881,390.922,o),
(266.118,468.188,q),
(322.68,443.188,l),
(295.119,381.742,o),
(216,155.077,o),
(215.562,17.79,qs),
(216,-177.923,o),
(424.855,-509.433,o),
(697.928,-490.923,qs),
(852.699,-480.913,l),
(976.702,-470.913,o),
(1186.114,-352.392,o),
(1312.719,-128.903,o),
(1312.719,47.097,qs),
(1315,1483,l),
(1373.562,1483,l)
);
}
);
width = 1734;
},
{
anchors = (
{
name = "top-arab";
pos = (390,567);
},
{
name = "bottom-arab";
pos = (737,-539);
}
);
associatedMasterId = m006;
attr = {
coordinates = (
800,
1
);
};
layerId = m007;
name = ExtraBold;
shapes = (
{
closed = 1;
nodes = (
(1514.07,450.373,l),
(1514.07,404.144,o),
(1579.611,339,o),
(1625.442,339,qs),
(1689.756,339,l),
(1689.756,-1,l),
(1625.442,-1,l),
(1597.055,-1,o),
(1529.209,31.225,o),
(1512.033,50.204,q),
(1511.954,48.825,l),
(1504.004,-87.217,o),
(1363.609,-345.923,o),
(1084.008,-529.056,o),
(892.414,-539.056,qs),
(773.922,-548.056,l),
(559.625,-558.056,o),
(270.409,-366.083,o),
(110,-64.685,o),
(110,64.493,qs),
(110.905,240.766,o),
(162.094,505.811,o),
(220,667.473,q),
(512.431,549.473,l),
(484.086,462.448,o),
(427.811,234.779,o),
(428.431,107.63,qs),
(429.871,-33.888,o),
(572.732,-225.056,o),
(773.922,-208.056,qs),
(892.412,-199.056,l),
(992,-192.056,o),
(1116.233,-113.299,o),
(1195.505,16.989,o),
(1195.505,116.437,qs),
(1195,1523,l),
(1512.755,1523.056,l)
);
}
);
width = 1690;
}
);
unicode = 65246;
},
{
glyphname = "lam-arab.init";
layers = (
{
anchors = (
{
name = "top-arab";
pos = (401,1482);
},
{
name = "bottom-arab";
pos = (307,50);
}
);
layerId = m006;
shapes = (
{
closed = 1;
nodes = (
(0.294,60,l),
(-80.098,54.314,o),
(-80.098,5.621,o),
(0.294,0,c),
(102.843,0,l),
(283.895,0,o),
(430.163,146.268,o),
(430.163,327.32,cs),
(430.281,1483,l),
(371.719,1483,l),
(371.601,328.758,l),
(371.601,179.967,o),
(251.569,60,o),
(102.843,60,cs)
);
}
);
width = 651;
},
{
anchors = (
{
name = "top-arab";
pos = (389,1504);
},
{
name = "bottom-arab";
pos = (387,92);
}
);
associatedMasterId = m006;
attr = {
coordinates = (
800,
1
);
};
layerId = m007;
name = ExtraBold;
shapes = (
{
closed = 1;
nodes = (
(0,340,l),
(-85.882,254.706,o),
(-85.882,84.314,o),
(0,0,c),
(118.235,0,l),
(356.02,0,o),
(548.039,192.02,o),
(548.039,429.804,cs),
(548.216,1524,l),
(229.784,1524,l),
(229.608,451.373,l),
(229.608,389.51,o),
(179.118,340,o),
(118.235,340,cs)
);
}
);
width = 704;
}
);
unicode = 65247;
},
{
glyphname = "lam-arab.medi";
layers = (
{
anchors = (
{
name = "top-arab";
pos = (401,1483);
},
{
name = "bottom-arab";
pos = (0,0);
}
);
layerId = m006;
shapes = (
{
closed = 1;
nodes = (
(0.294,60,l),
(-80.098,54.314,o),
(-80.098,5.621,o),
(0.294,0,c),
(102.843,0,l),
(239.797,0,o),
(354.51,83.712,o),
(400.882,203.098,c),
(447.255,83.712,o),
(561.967,0,o),
(698.922,0,cs),
(791.209,0,l),
(791.209,60,l),
(698.922,60,l),
(550.196,60,o),
(430.163,179.967,o),
(430.163,328.758,cs),
(430.281,1483,l),
(371.719,1483,l),
(371.601,328.758,l),
(371.601,179.967,o),
(251.569,60,o),
(102.843,60,cs)
);
}
);
width = 791;
},
{
anchors = (
{
name = "top-arab";
pos = (389,1504);
},
{
name = "bottom-arab";
pos = (389,0);
}
);
associatedMasterId = m006;
attr = {
coordinates = (
800,
1
);
};
layerId = m007;
name = ExtraBold;
shapes = (
{
closed = 1;
nodes = (
(0,340,l),
(-85.882,254.706,o),
(-85.882,84.314,o),
(0,0,c),
(118.235,0,l),
(240.549,0,o),
(323.235,51.686,o),
(388.824,134.471,c),
(454.412,51.686,o),
(537.098,0,o),
(659.412,0,cs),
(723.725,0,l),
(723.725,340,l),
(659.412,340,l),
(598.529,340,o),
(548.039,389.51,o),
(548.039,451.373,cs),
(548.216,1524,l),
(229.784,1524,l),
(229.608,451.373,l),
(229.608,389.51,o),
(179.118,340,o),
(118.235,340,cs)
);
}
);
width = 724;
}
);
unicode = 65248;
},
{
glyphname = "meem-arab";
layers = (
{
anchors = (
{
name = "top-arab";
pos = (913,802);
},
{
name = "bottom-arab";
pos = (913,30);
}
);
layerId = m006;
shapes = (
{
closed = 1;
nodes = (
(713.454,822.123,o),
(584.178,626.857,o),
(544.671,393.366,c),
(483.987,112.084,l),
(524.33,95.39,o),
(589.704,62.962,o),
(704.818,37.846,cs),
(804.867,16.017,o),
(888.582,7,o),
(972.814,7,cs),
(1168.022,7,o),
(1244.045,170.697,o),
(1239.914,404.497,cs),
(1235.811,636.655,o),
(1112.347,821.515,o),
(912.901,821.819,cs)
);
},
{
closed = 1;
nodes = (
(243.556,277.072,l),
(171,210.516,l),
(171,-627.843,l),
(229.562,-627.843,l),
(229.556,219.51,l),
(548.992,84.51,l),
(562.173,141.442,l)
);
},
{
closed = 1;
nodes = (
(1184.708,211.487,o),
(1137.572,65.597,o),
(972.77,65.597,cs),
(779.646,65.597,o),
(627.109,106.73,o),
(550.058,147.236,c),
(551.558,157.482,o),
(592.403,344.228,o),
(596.181,364.41,cs),
(641.181,604.778,o),
(738.899,763.483,o),
(912.77,763.222,cs),
(1086.641,762.962,o),
(1178.2,581.645,o),
(1181.316,404.41,cs)
);
}
);
width = 1406;
},
{
anchors = (
{
name = "top-arab";
pos = (766,936);
},
{
name = "bottom-arab";
pos = (994,0);
}
);
associatedMasterId = m006;
attr = {
coordinates = (
800,
1
);
};
layerId = m007;
name = ExtraBold;
shapes = (
{
closed = 1;
nodes = (
(707.784,1024.922,o),
(568.149,822.418,o),
(527.196,533.206,cs),
(490.062,277.105,l),
(476.186,204.837,o),
(550.504,115.861,o),
(669,77,cs),
(728.765,57.4,o),
(889.228,9,o),
(1033.203,9,cs),
(1301.647,9,o),
(1478.165,238.943,o),
(1470.078,543.338,cs),
(1461.992,847.732,o),
(1282.532,1028.564,o),
(1005.157,1026.806,cs)
);
},
{
closed = 1;
nodes = (
(342.333,526.725,l),
(120,322.392,l),
(120,-628,l),
(438.431,-628,l),
(438.333,152.317,l),
(669,77,l),
(747,394.647,l)
);
},
{
closed = 1;
nodes = (
(1157.249,431.993,o),
(1124.639,352.499,o),
(1043.666,352.499,cs),
(962.692,352.499,o),
(853.579,373.107,o),
(801.491,395.525,c),
(814.167,426.975,o),
(830.391,514.335,o),
(838.676,546.475,cs),
(867.281,657.444,o),
(917.628,714.029,o),
(1003.666,713.499,cs),
(1094.692,712.939,o),
(1154.248,641.987,o),
(1155.655,543.523,cs)
);
}
);
width = 1569;
}
);
unicode = (1605,65249);
},
{
glyphname = "meem-arab.fina";
layers = (
{
anchors = (
{
name = "top-arab";
pos = (913,782);
},
{
name = "bottom-arab";
pos = (913,10);
}
);
layerId = m006;
shapes = (
{
closed = 1;
nodes = (
(1509.038,60.031,l),
(1360.395,60.031,o),
(1238.422,181.482,o),
(1239.379,404.169,c),
(1218.494,209.067,l),
(1255.977,82.348,o),
(1375.585,-0.059,o),
(1509.038,0,cs),
(1605.506,0,l),
(1605.506,60.031,l)
);
},
{
closed = 1;
nodes = (
(1184.708,211.487,o),
(1137.572,65.597,o),
(972.77,65.597,cs),
(779.646,65.597,o),
(627.109,106.73,o),
(550.058,147.236,c),
(551.558,157.482,o),
(592.403,344.228,o),
(596.181,364.41,cs),
(641.181,604.778,o),
(738.899,763.483,o),
(912.77,763.222,cs),
(1086.641,762.962,o),
(1178.2,581.645,o),
(1181.316,404.41,cs)
);
},
{
closed = 1;
nodes = (
(713.454,822.123,o),
(584.178,626.857,o),
(544.671,393.366,c),
(483.987,112.084,l),
(524.33,95.39,o),
(589.704,62.962,o),
(704.818,37.846,cs),
(804.867,16.017,o),
(888.582,7,o),
(972.814,7,cs),
(1168.022,7,o),
(1244.045,170.697,o),
(1239.914,404.497,cs),
(1235.811,636.655,o),
(1112.347,821.515,o),
(912.901,821.819,cs)
);
},
{
closed = 1;
nodes = (
(243.556,277.072,l),
(171,210.516,l),
(171,-627.843,l),
(229.562,-627.843,l),
(229.556,219.51,l),
(548.992,84.51,l),
(562.173,141.442,l)
);
}
);
width = 1606;
},
{
anchors = (
{
name = "top-arab";
pos = (893,977);
},
{
name = "bottom-arab";
pos = (1121,0);
}
);
associatedMasterId = m006;
attr = {
coordinates = (
800,
1
);
};
layerId = m007;
name = ExtraBold;
shapes = (
{
closed = 1;
nodes = (
(1581.797,341.236,l),
(1518.319,341.236,o),
(1468.239,387.958,o),
(1470.424,493.338,c),
(1312.155,139.849,l),
(1395.377,45.644,o),
(1471.427,1.25,o),
(1581.797,1.25,cs),
(1644.515,1.25,l),
(1644.515,341.236,l)
);
},
{
closed = 1;
nodes = (
(1157.249,431.993,o),
(1124.639,352.499,o),
(1043.666,352.499,cs),
(962.692,352.499,o),
(853.579,373.107,o),
(801.491,395.525,c),
(814.167,426.975,o),
(830.391,514.335,o),
(838.676,546.475,cs),
(867.281,657.444,o),
(917.628,714.029,o),
(1003.666,713.499,cs),
(1094.692,712.939,o),
(1154.248,641.987,o),
(1155.655,543.523,cs)
);
},
{
closed = 1;
nodes = (
(707.784,1024.922,o),
(568.149,822.418,o),
(527.196,533.206,cs),
(490.062,277.105,l),
(476.186,204.837,o),
(550.504,115.861,o),
(669,77,cs),
(728.765,57.4,o),
(889.228,9,o),
(1033.203,9,cs),
(1301.647,9,o),
(1478.165,238.943,o),
(1470.078,543.338,cs),
(1461.992,847.732,o),
(1282.532,1028.564,o),
(1005.157,1026.806,cs)
);
},
{
closed = 1;
nodes = (
(342.333,526.725,l),
(120,322.392,l),
(120,-628,l),
(438.431,-628,l),
(438.333,152.317,l),
(669,77,l),
(747,394.647,l)
);
}
);
width = 1645;
}
);
unicode = 65250;
},
{
glyphname = "meem-arab.init";
layers = (
{
anchors = (
{
name = "top-arab";
pos = (713,782);
},
{
name = "bottom-arab";
pos = (0,0);
}
);
layerId = m006;
shapes = (
{
closed = 1;
nodes = (
(984.708,221.487,o),
(937.572,55.597,o),
(772.77,55.597,cs),
(579.646,55.597,o),
(453.109,142.73,o),
(368.058,242.236,c),
(369.558,252.482,o),
(393.009,354.124,o),
(396.181,374.41,cs),
(435.181,623.778,o),
(538.899,763.483,o),
(712.77,763.222,cs),
(886.641,762.962,o),
(978.2,591.645,o),
(981.316,414.41,cs)
);
},
{
closed = 1;
nodes = (
(513.454,822.123,o),
(373.801,644.932,o),
(337.671,375.366,cs),
(332.538,340.365,l),
(323.869,280.381,o),
(265.865,59.979,o),
(86.879,60.053,cs),
(-0.675,60.053,l),
(-79.775,54.058,o),
(-79.775,6.016,o),
(-0.675,0.065,c),
(86.879,0.065,l),
(221.432,-0.252,o),
(293.663,99.44,o),
(320.292,146.825,cs),
(330.159,164.383,o),
(338.004,182.055,o),
(343.987,195.084,c),
(449.719,57.864,o),
(614.073,-3,o),
(772.814,-3,cs),
(968.022,-3,o),
(1044.045,180.697,o),
(1039.914,414.497,cs),
(1035.811,646.655,o),
(912.347,821.515,o),
(712.901,821.819,cs)
);
}
);
width = 1206;
},
{
anchors = (
{
name = "top-arab";
pos = (664,997);
},
{
name = "bottom-arab";
pos = (661,0);
}
);
associatedMasterId = m006;
attr = {
coordinates = (
800,
1
);
};
layerId = m007;
name = ExtraBold;
shapes = (
{
closed = 1;
nodes = (
(836,432,o),
(822.984,332.499,o),
(722.011,332.499,cs),
(633.271,332.499,o),
(539.924,365.107,o),
(489.836,411.525,c),
(502.513,434.975,o),
(524.508,510.929,o),
(531.021,543.475,cs),
(551.626,646.444,o),
(595.973,693.976,o),
(692.011,693.499,cs),
(793.038,692.997,o),
(832.594,621.987,o),
(834,543.523,cs)
);
},
{
closed = 1;
nodes = (
(386.129,1004.922,o),
(246.494,802.418,o),
(205.541,513.206,cs),
(199.541,476.296,l),
(194.02,437.68,o),
(163.937,340.105,o),
(83.125,340.105,cs),
(0.407,340.105,l),
(-85.469,254.837,o),
(-85.469,84.432,o),
(0.407,0.12,c),
(93.125,0.12,l),
(214.75,0.12,o),
(299.503,78.765,o),
(338.094,121.688,cs),
(341.539,125.498,o),
(343.007,129.32,o),
(344.499,131.155,c),
(401.801,86.48,o),
(567.573,-11,o),
(711.548,-11,cs),
(979.992,-11,o),
(1156.51,218.943,o),
(1148.424,523.338,cs),
(1140.337,827.732,o),
(960.877,1008.564,o),
(683.503,1006.806,cs)
);
}
);
width = 1248;
}
);
unicode = 65251;
},
{
glyphname = "meem-arab.medi";
layers = (
{
anchors = (
{
name = "top-arab";
pos = (713,782);
},
{
name = "bottom-arab";
pos = (0,0);
}
);
layerId = m006;
shapes = (
{
closed = 1;
nodes = (
(1299.53,60.183,l),
(1150.887,60.183,o),
(1028.914,181.634,o),
(1039.871,414.322,c),
(1000.986,229.219,l),
(1046.47,82.5,o),
(1166.078,0.093,o),
(1299.53,0.152,cs),
(1395.999,0.152,l),
(1395.999,60.183,l)
);
},
{
closed = 1;
nodes = (
(984.708,221.487,o),
(937.572,55.597,o),
(772.77,55.597,cs),
(579.646,55.597,o),
(453.109,142.73,o),
(368.058,242.236,c),
(369.558,252.482,o),
(393.009,354.124,o),
(396.181,374.41,cs),
(435.181,623.778,o),
(538.899,763.483,o),
(712.77,763.222,cs),
(886.641,762.962,o),
(978.2,591.645,o),
(981.316,414.41,cs)
);
},
{
closed = 1;
nodes = (
(513.454,822.123,o),
(373.801,644.932,o),
(337.671,375.366,cs),
(332.538,340.365,l),
(323.869,280.381,o),
(265.865,59.979,o),
(86.879,60.053,cs),
(-0.675,60.053,l),
(-79.775,54.058,o),
(-79.775,6.016,o),
(-0.675,0.065,c),
(86.879,0.065,l),
(221.432,-0.252,o),
(293.663,99.44,o),
(320.292,146.825,cs),
(330.159,164.383,o),
(338.004,182.055,o),
(343.987,195.084,c),
(449.719,57.864,o),
(614.073,-3,o),
(772.814,-3,cs),
(968.022,-3,o),
(1044.045,180.697,o),
(1039.914,414.497,cs),
(1035.811,646.655,o),
(912.347,821.515,o),
(712.901,821.819,cs)
);
}
);
width = 1396;
},
{
anchors = (
{
name = "top-arab";
pos = (663,931);
},
{
name = "bottom-arab";
pos = (661,0);
}
);
associatedMasterId = m006;
attr = {
coordinates = (
800,
1
);
};
layerId = m007;
name = ExtraBold;
shapes = (
{
closed = 1;
nodes = (
(1259.797,340.236,l),
(1196.319,340.236,o),
(1146.239,386.958,o),
(1148.424,523.338,c),
(1008.155,121.849,l),
(1073.377,44.644,o),
(1149.427,0.25,o),
(1259.797,0.25,cs),
(1322.515,0.25,l),
(1322.515,340.236,l)
);
},
{
closed = 1;
nodes = (
(836,432,o),
(822.984,332.499,o),
(722.011,332.499,cs),
(633.271,332.499,o),
(539.924,365.107,o),
(489.836,411.525,c),
(502.513,434.975,o),
(524.508,510.929,o),
(531.021,543.475,cs),
(551.626,646.444,o),
(595.973,693.976,o),
(692.011,693.499,cs),
(793.038,692.997,o),
(832.594,621.987,o),
(834,543.523,cs)
);
},
{
closed = 1;
nodes = (
(386.129,1004.922,o),
(246.494,802.418,o),
(205.541,513.206,cs),
(199.541,476.296,l),
(194.02,437.68,o),
(163.937,340.105,o),
(83.125,340.105,cs),
(0.407,340.105,l),
(-85.469,254.837,o),
(-85.469,84.432,o),
(0.407,0.12,c),
(93.125,0.12,l),
(214.75,0.12,o),
(299.503,78.765,o),
(338.094,121.688,cs),
(341.539,125.498,o),
(343.007,129.32,o),
(344.499,131.155,c),
(401.801,86.48,o),
(567.573,-11,o),
(711.548,-11,cs),
(979.992,-11,o),
(1156.51,218.943,o),
(1148.424,523.338,cs),
(1140.337,827.732,o),
(960.877,1008.564,o),
(683.503,1006.806,cs)
);
}
);
width = 1323;
}
);
unicode = 65252;
},
{
glyphname = "noonghunna-arab";
layers = (
{
anchors = (
{
name = "top-arab";
pos = (600,468);
},
{
name = "bottom-arab";
pos = (764,-551);
}
);
layerId = m006;
shapes = (
{
closed = 1;
nodes = (
(1335.157,632.077,l),
(1393.719,632.077,l),
(1392.729,44.08,l),
(1393.591,-137.632,o),
(1250.21,-394.341,o),
(1010.727,-530.88,o),
(872.699,-540.923,qs),
(697.928,-550.923,l),
(478.901,-560.923,o),
(260.763,-395.239,o),
(157,-132.923,o),
(157,14.914,qs),
(157,162.077,o),
(235.881,390.922,o),
(266.118,468.188,q),
(322.68,443.188,l),
(295.119,381.742,o),
(216,155.077,o),
(215.562,17.79,qs),
(216,-177.923,o),
(424.855,-509.433,o),
(697.928,-490.923,qs),
(872.699,-480.913,l),
(996.702,-470.913,o),
(1206.114,-352.392,o),
(1332.719,-128.903,o),
(1332.719,47.097,qs)
);
}
);
width = 1561;
},
{
anchors = (
{
name = "top-arab";
pos = (540,557);
},
{
name = "bottom-arab";
pos = (777,-539);
}
);
associatedMasterId = m006;
attr = {
coordinates = (
800,
1
);
};
layerId = m007;
name = ExtraBold;
shapes = (
{
closed = 1;
nodes = (
(1215.245,815.944,l),
(1533,816,l),
(1533,80,l),
(1531.603,-73.214,o),
(1383.609,-345.923,o),
(1104.008,-529.056,o),
(912.414,-539.056,qs),
(773.922,-548.056,l),
(559.625,-558.056,o),
(270.409,-366.083,o),
(110,-64.685,o),
(110,64.493,qs),
(110.905,240.766,o),
(162.094,505.811,o),
(220,667.473,q),
(512.431,549.473,l),
(484.086,462.448,o),
(427.811,234.779,o),
(428.431,107.63,qs),
(429.871,-33.888,o),
(572.732,-218.056,o),
(773.922,-208.056,qs),
(912.412,-199.056,l),
(1012,-195.056,o),
(1136.233,-113.299,o),
(1215.505,16.989,o),
(1215.505,116.437,qs)
);
}
);
width = 1657;
}
);
unicode = (1722,2237,64414);
},
{
glyphname = "noonghunna-arab.fina";
layers = (
{
anchors = (
{
name = "top-arab";
pos = (600,468);
},
{
name = "bottom-arab";
pos = (764,-551);
}
);
layerId = m006;
shapes = (
{
closed = 1;
nodes = (
(1393.174,308.055,l),
(1399.768,208.997,o),
(1549.726,59.065,o),
(1661.281,59.065,qs),
(1753.569,59.065,l),
(1753.569,-0.935,l),
(1661.281,-0.935,l),
(1576.272,-0.935,o),
(1434.171,84.429,o),
(1392.917,155.624,q),
(1392.729,44.08,l),
(1393.591,-137.632,o),
(1250.21,-394.341,o),
(1010.727,-530.88,o),
(872.699,-540.923,qs),
(697.928,-550.923,l),
(478.901,-560.923,o),
(260.763,-395.239,o),
(157,-132.923,o),
(157,14.914,qs),
(157,162.077,o),
(235.881,390.922,o),
(266.118,468.188,q),
(322.68,443.188,l),
(295.119,381.742,o),
(216,155.077,o),
(215.562,17.79,qs),
(216,-177.923,o),
(424.855,-509.433,o),
(697.928,-490.923,qs),
(872.699,-480.913,l),
(996.702,-470.913,o),
(1206.114,-352.392,o),
(1332.719,-128.903,o),
(1332.719,47.097,qs),
(1335.157,632.077,l),
(1393.719,632.077,l)
);
}
);
width = 1754;
},
{
anchors = (
{
name = "top-arab";
pos = (540,557);
},
{
name = "bottom-arab";
pos = (777,-539);
}
);
associatedMasterId = m006;
attr = {
coordinates = (
800,
1
);
};
layerId = m007;
name = ExtraBold;
shapes = (
{
closed = 1;
nodes = (
(1534.07,450.373,l),
(1534.07,404.144,o),
(1599.611,339,o),
(1645.442,339,qs),
(1709.756,339,l),
(1709.756,-1,l),
(1645.442,-1,l),
(1617.055,-1,o),
(1549.209,31.225,o),
(1532.033,50.204,q),
(1531.969,49.091,l),
(1524.069,-87.097,o),
(1383.609,-345.923,o),
(1104.008,-529.056,o),
(912.414,-539.056,qs),
(773.922,-548.056,l),
(559.625,-558.056,o),
(270.409,-366.083,o),
(110,-64.685,o),
(110,64.493,qs),
(110.905,240.766,o),
(162.094,505.811,o),
(220,667.473,q),
(512.431,549.473,l),
(484.086,462.448,o),
(427.811,234.779,o),
(428.431,107.63,qs),
(429.871,-33.888,o),
(572.732,-218.056,o),
(773.922,-208.056,qs),
(912.412,-199.056,l),
(1012,-195.056,o),
(1136.233,-113.299,o),
(1215.505,16.989,o),
(1215.505,116.437,qs),
(1215.245,815.944,l),
(1533,816,l)
);
}
);
width = 1710;
}
);
unicode = 64415;
},
{
glyphname = "waw-arab";
layers = (
{
anchors = (
{
name = "top-arab";
pos = (524,726);
},
{
name = "bottom-arab";
pos = (524,-591);
}
);
layerId = m006;
shapes = (
{
closed = 1;
nodes = (
(813.01,-263.532,o),
(613.85,-475.259,o),
(368.771,-501.042,cs),
(100.719,-532.042,l),
(106.719,-589.042,l),
(368.771,-561.042,l),
(648.17,-531.042,o),
(874.915,-294.82,o),
(874.915,4.513,cs),
(875.288,373.32,l),
(875.288,608.111,o),
(734.085,766.183,o),
(524.098,766.183,cs),
(317.242,766.183,o),
(172.908,604.111,o),
(172.908,373.32,cs),
(172.908,125.529,o),
(301.516,0,o),
(524.098,0,cs),
(816.311,0,l)
);
},
{
closed = 1;
nodes = (
(816.367,60,l),
(524.098,60,l),
(335.869,60,o),
(231.536,159.621,o),
(231.536,373.32,cs),
(231.536,569.34,o),
(346.15,707.621,o),
(524.098,707.621,cs),
(740.843,707.621,o),
(816.725,526.915,o),
(816.725,373.32,cs)
);
}
);
width = 1046;
},
{
anchors = (
{
name = "top-arab";
pos = (566,920);
},
{
name = "bottom-arab";
pos = (414,-538);
}
);
associatedMasterId = m006;
attr = {
coordinates = (
800,
1
);
};
layerId = m007;
name = ExtraBold;
shapes = (
{
closed = 1;
nodes = (
(689.294,-133.51,o),
(587.627,-211.137,o),
(436.569,-225.137,cs),
(59.784,-254.137,l),
(89.235,-580,l),
(494.02,-550,l),
(747,-536,o),
(1007.725,-280.804,o),
(1007.725,15.196,cs),
(1008,475.804,l),
(1008,763.667,o),
(831.961,974.745,o),
(566.157,974.745,cs),
(305.314,974.745,o),
(104.314,759.667,o),
(104.314,475.804,cs),
(104.314,194.941,o),
(197.431,0,o),
(526.157,0,cs),
(689.307,-0.173,l)
);
},
{
closed = 1;
nodes = (
(712.647,336.657,l),
(566.109,336.657,l),
(432.729,336.657,o),
(410.647,378.81,o),
(410.647,472.061,cs),
(410.647,538.593,o),
(432.966,669.657,o),
(566.109,669.657,cs),
(692.618,669.657,o),
(712.647,552.388,o),
(712.647,472.061,cs)
);
}
);
width = 1138;
}
);
unicode = (1608,65261);
},
{
glyphname = "waw-arab.fina";
layers = (
{
anchors = (
{
name = "top-arab";
pos = (524,726);
},
{
name = "bottom-arab";
pos = (524,-591);
}
);
layerId = m006;
shapes = (
{
closed = 1;
nodes = (
(813.01,-263.532,o),
(613.85,-475.259,o),
(368.771,-501.042,cs),
(100.719,-532.042,l),
(106.719,-589.042,l),
(368.771,-561.042,l),
(646.763,-531.194,o),
(872.63,-296.893,o),
(874.898,0,c),
(1141.431,0,l),
(1141.431,60,l),
(875.288,60,l),
(875.288,373.32,l),
(875.288,608.111,o),
(734.085,766.183,o),
(524.098,766.183,cs),
(317.242,766.183,o),
(172.908,604.111,o),
(172.908,373.32,cs),
(172.908,125.529,o),
(301.516,0,o),
(524.098,0,cs),
(816.311,0,l)
);
},
{
closed = 1;
nodes = (
(816.367,60,l),
(524.098,60,l),
(335.869,60,o),
(231.536,159.621,o),
(231.536,373.32,cs),
(231.536,569.34,o),
(346.15,707.621,o),
(524.098,707.621,cs),
(740.843,707.621,o),
(816.725,526.915,o),
(816.725,373.32,cs)
);
}
);
width = 1141;
},
{
anchors = (
{
name = "top-arab";
pos = (566,920);
},
{
name = "bottom-arab";
pos = (414,-538);
}
);
associatedMasterId = m006;
attr = {
coordinates = (
800,
1
);
};
layerId = m007;
name = ExtraBold;
shapes = (
{
closed = 1;
nodes = (
(689.294,-133.51,o),
(587.627,-211.137,o),
(436.569,-225.137,cs),
(60,-254,l),
(89,-580,l),
(494.02,-550,l),
(747.382,-536.481,o),
(1001.268,-289.37,o),
(1007.561,0,c),
(1170,0,l),
(1170,340,l),
(1007.919,340,l),
(1008,475.804,l),
(1008,763.667,o),
(831.961,974.745,o),
(566.157,974.745,cs),
(305.314,974.745,o),
(104.314,759.667,o),
(104.314,475.804,cs),
(104.314,194.941,o),
(197.431,0,o),
(526.157,0,cs),
(689.307,-0.173,l)
);
},
{
closed = 1;
nodes = (
(712.647,336.657,l),
(566.109,336.657,l),
(432.729,336.657,o),
(410.647,378.81,o),
(410.647,472.061,cs),
(410.647,538.593,o),
(432.966,669.657,o),
(566.109,669.657,cs),
(692.618,669.657,o),
(712.647,552.388,o),
(712.647,472.061,cs)
);
}
);
width = 1170;
}
);
unicode = 65262;
},
{
glyphname = "heh-arab";
layers = (
{
anchors = (
{
name = "top-arab";
pos = (518,960);
},
{
name = "bottom-arab";
pos = (0,0);
}
);
layerId = m006;
shapes = (
{
closed = 1;
nodes = (
(522.732,814.261,c),
(704.569,626.66,o),
(806.752,463.085,o),
(806.752,335.275,cs),
(806.752,150.68,o),
(656.654,52.582,o),
(513.19,52.582,cs),
(372.203,52.582,o),
(219.627,153.007,o),
(219.627,335.275,cs),
(219.627,522.739,o),
(408.484,714.098,o)
);
},
{
closed = 1;
nodes = (
(482.314,854.699,l),
(428.288,809.261,o),
(161,560.294,o),
(161,335.275,cs),
(161,118.595,o),
(341.634,-6.111,o),
(513.19,-6.111,cs),
(686.719,-6.111,o),
(865.379,113.699,o),
(865.379,335.275,cs),
(865.379,505.366,o),
(718.379,713.15,o),
(444.34,972.686,c),
(402.575,931.307,l)
);
}
);
width = 1021;
},
{
anchors = (
{
name = "top-arab";
pos = (533,1142);
},
{
name = "bottom-arab";
pos = (562,0);
}
);
associatedMasterId = m006;
attr = {
coordinates = (
800,
1
);
};
layerId = m007;
name = ExtraBold;
shapes = (
{
closed = 1;
nodes = (
(562.111,691.824,c),
(655.921,601.635,o),
(717.961,496.78,o),
(717.961,427.062,cs),
(717.961,337.062,o),
(636.961,282.824,o),
(561.961,282.824,cs),
(486.961,282.824,o),
(405.961,337.062,o),
(405.961,427.062,cs),
(405.961,532.074,o),
(505.209,634.312,o)
);
},
{
closed = 1;
nodes = (
(356.824,884.49,l),
(268.431,812.922,o),
(109.118,634.412,o),
(109.118,423.118,cs),
(109.118,168.922,o),
(312.627,-21.667,o),
(561.961,-21.667,cs),
(784.902,-21.667,o),
(1014.804,137.49,o),
(1014.804,423.118,cs),
(1014.804,622.49,o),
(877.804,851.255,o),
(539.216,1182.294,c),
(287.745,965.608,l)
);
}
);
width = 1119;
}
);
unicode = (1607,1749,65257);
},
{
glyphname = "heh-arab.fina";
layers = (
{
anchors = (
{
name = "top-arab";
pos = (677,1048);
},
{
name = "bottom-arab";
pos = (555,76);
}
);
layerId = m006;
shapes = (
{
closed = 1;
nodes = (
(874.085,213.431,c),
(910.83,87.582,o),
(1024.503,0.935,o),
(1155.654,0,cs),
(1234.797,0,l),
(1234.797,60,l),
(1155.523,60,l),
(1037.013,60.935,o),
(936.588,146.948,o),
(919.438,264.523,cs),
(800.569,1069.281,l),
(742.203,1061.601,l),
(770.484,872.242,l),
(329.569,888.536,o),
(140.412,647.405,o),
(157,345.686,cs),
(173.458,45.359,o),
(579.797,-31.412,o)
);
},
{
closed = 1;
nodes = (
(779.098,813.745,c),
(859.288,271.157,l),
(547.464,16.725,o),
(226.974,126.412,o),
(215.497,349.255,cs),
(200.758,627.843,o),
(377.922,831.739,o)
);
}
);
width = 1235;
},
{
anchors = (
{
name = "top-arab";
pos = (673,1189);
},
{
name = "bottom-arab";
pos = (541,97);
}
);
associatedMasterId = m006;
attr = {
coordinates = (
800,
1
);
};
layerId = m007;
name = ExtraBold;
shapes = (
{
closed = 1;
nodes = (
(830.112,191.471,c),
(905.288,53.725,o),
(1014.386,0.02,o),
(1133.641,0,cs),
(1238.798,0,l),
(1238.798,340,l),
(1131.68,340,l),
(1090.033,340.02,o),
(1053.661,370.216,o),
(1048.406,411.843,cs),
(929.484,1227.51,l),
(613.994,1182.314,l),
(634.21,1030.922,l),
(310.367,980.039,o),
(81.014,737.078,o),
(105.837,425.294,cs),
(128.7,120.392,o),
(503.798,-23.176,o)
);
},
{
closed = 1;
nodes = (
(689.59,748.49,c),
(733.854,441.404,l),
(563.164,339.764,o),
(410.262,398.002,o),
(404.657,506.805,cs),
(397.873,638.512,o),
(505.767,741.601,o)
);
}
);
width = 1239;
}
);
unicode = 65258;
},
{
glyphname = "heh-arab.init";
layers = (
{
anchors = (
{
name = "top-arab";
pos = (682,844);
},
{
name = "bottom-arab";
pos = (0,0);
}
);
layerId = m006;
shapes = (
{
closed = 1;
nodes = (
(582.19,785.098,cs),
(750.627,785.098,o),
(880.752,671.503,o),
(880.752,496.34,cs),
(880.752,248.059,o),
(633.17,88.503,o),
(582.19,61.869,c),
(531.144,88.503,o),
(283.627,248.059,o),
(283.627,496.34,cs),
(283.627,671.503,o),
(413.686,785.098,o)
);
},
{
closed = 1;
nodes = (
(650.098,0,cs),
(1150.835,0.137,l),
(1365.045,0.137,o),
(1500.966,249.327,o),
(1364.045,430.49,cs),
(1008.58,898,l),
(961.875,862.693,l),
(1317.273,395.248,l),
(1418.979,262.176,o),
(1329,59,o),
(1151,59,cs),
(680.432,58.699,l),
(777.183,122.346,o),
(939.314,279.556,o),
(939.314,496.34,cs),
(939.314,702.261,o),
(785.915,843.725,o),
(582.19,843.725,cs),
(379.333,843.725,o),
(225.065,702.261,o),
(225.065,496.34,cs),
(225.065,279.556,o),
(387.131,122.346,o),
(483.275,60,c),
(0.294,60,l),
(-80.098,54.314,o),
(-80.098,5.621,o),
(0.294,0,c),
(514.281,0,l),
(547.092,0,o),
(580.752,12.157,o),
(582.19,22.941,c),
(583.627,12.157,o),
(617.288,0,o)
);
}
);
width = 1575;
},
{
anchors = (
{
name = "top-arab";
pos = (690,1030);
},
{
name = "bottom-arab";
pos = (588,0);
}
);
associatedMasterId = m006;
attr = {
coordinates = (
800,
1
);
};
layerId = m007;
name = ExtraBold;
shapes = (
{
closed = 1;
nodes = (
(588.431,732.755,cs),
(672.837,732.755,o),
(750.431,676.518,o),
(750.431,580.601,cs),
(750.431,462.684,o),
(649.48,378.058,o),
(588.431,323.755,c),
(526.307,378.058,o),
(426.431,462.684,o),
(426.431,580.601,cs),
(426.431,676.518,o),
(504.026,732.755,o)
);
},
{
closed = 1;
nodes = (
(907.059,0,cs),
(1251.58,0.059,l),
(1552.717,0.059,o),
(1743.541,349.902,o),
(1551.717,603.353,cs),
(1147.757,1134,l),
(907.168,951.392,l),
(1268.149,477.725,l),
(1311.737,421.647,o),
(1279,340,o),
(1205,340,cs),
(960.265,340.14,l),
(1001.376,393.345,o),
(1045.294,497.411,o),
(1045.294,585.098,cs),
(1045.294,845.922,o),
(844.314,1035.882,o),
(588.431,1035.882,cs),
(331.588,1035.882,o),
(131.569,845.922,o),
(131.569,585.098,cs),
(131.569,497.328,o),
(174.549,393.196,o),
(216.706,340,c),
(0,340,l),
(-85.882,254.706,o),
(-85.882,84.314,o),
(0,0,c),
(269.804,0,l),
(481.961,0,o),
(566.863,42.353,o),
(588.431,64.118,c),
(610,42.353,o),
(694.902,0,o)
);
}
);
width = 1733;
}
);
unicode = 65259;
},
{
glyphname = "heh-arab.medi";
layers = (
{
anchors = (
{
name = "top-arab";
pos = (583,771);
},
{
name = "bottom-arab";
pos = (572,-535);
}
);
layerId = m006;
shapes = (
{
closed = 1;
nodes = (
(285,58.562,l),
(284.935,393.556,l),
(285,603.235,o),
(382.863,752.614,o),
(583.366,752.484,cs),
(783.399,752.353,o),
(880.124,629.987,o),
(880.124,434.837,cs),
(880.124,225.837,o),
(760.503,58.562,o),
(542.105,58.562,cs)
);
},
{
closed = 1;
nodes = (
(0.294,60,l),
(-80.098,54.314,o),
(-80.098,5.621,o),
(0.294,0,c),
(226.438,0,l),
(226.438,-270.619,o),
(308,-535,o),
(759.137,-534.889,cs),
(809,-535,l),
(967.961,-235.024,l),
(1041.711,-82,o),
(1144.574,0,o),
(1265.719,0,cs),
(1335.392,0,l),
(1335.392,60,l),
(1265.719,60,l),
(1120.086,60,o),
(1007.35,-45.645,o),
(915.949,-213.924,cs),
(779,-476,l),
(758,-476,l),
(430,-476,o),
(285,-308.816,o),
(285,0,c),
(542.105,0,l),
(791.784,0,o),
(939.024,193.66,o),
(938.752,435.033,cs),
(938.49,666.647,o),
(813.588,810.784,o),
(583.693,811.046,cs),
(351.817,811.438,o),
(226.503,632.105,o),
(226.373,393.556,cs),
(226.438,60,l)
);
}
);
width = 1335;
},
{
anchors = (
{
name = "top-arab";
pos = (611,921);
},
{
name = "bottom-arab";
pos = (578,-519);
}
);
associatedMasterId = m006;
attr = {
coordinates = (
800,
1
);
};
layerId = m007;
name = ExtraBold;
shapes = (
{
closed = 1;
nodes = (
(437,340,l),
(435.464,480.208,l),
(436.541,597.871,o),
(486.759,703.787,o),
(596.345,702.33,cs),
(728.695,700.571,o),
(760.413,592.927,o),
(760.413,514.472,cs),
(760.413,428.999,o),
(696.821,340,o),
(558.447,340,cs)
);
},
{
closed = 1;
nodes = (
(0.412,340,l),
(-85.471,254.706,o),
(-85.471,84.314,o),
(0.412,0,c),
(132.569,0,l),
(132.569,-368.367,o),
(434.767,-519.007,o),
(719.059,-519.333,cs),
(854.255,-519.333,l),
(1015.29,-266.148,l),
(1138.438,-77.967,o),
(1203.838,0,o),
(1271.784,0,cs),
(1316.882,0,l),
(1316.882,340,l),
(1251.784,340,l),
(1080.012,340,o),
(931.325,116.421,o),
(823.75,-45.268,cs),
(719.059,-212.078,l),
(668,-212,l),
(512,-212,o),
(451,-125.508,o),
(451,20,c),
(561.569,20,l),
(858.765,20,o),
(1067.996,234.9,o),
(1065.275,515.49,cs),
(1062.553,796.081,o),
(887.802,1000.523,o),
(601.392,1005.686,cs),
(309.243,1010.953,o),
(133.549,755.569,o),
(131.588,481.333,cs),
(132.569,340,l)
);
}
);
width = 1317;
}
);
unicode = 65260;
},
{
glyphname = "hehgoal-arab.fina";
layers = (
{
anchors = (
{
name = "top-arab";
pos = (595,682);
},
{
name = "bottom-arab";
pos = (0,0);
}
);
layerId = m006;
shapes = (
{
closed = 1;
nodes = (
(239.431,-3.046,l),
(274.412,279.471,l),
(290.758,404.026,o),
(376.817,509.366,o),
(496.503,549.928,cs),
(784.235,645.484,l),
(815.928,297.667,l),
(830.32,128.941,o),
(971.588,0,o),
(1141.314,0,cs),
(1224.471,0,l),
(1224.471,60,l),
(1141.314,60,l),
(1002.131,60,o),
(886.033,164.183,o),
(873.49,303.366,cs),
(838.752,687.882,l),
(800.529,712.856,l),
(477.621,605.575,l),
(337.072,557.66,o),
(235.242,434.438,o),
(215.98,286.824,cs),
(181,4.242,l)
);
}
);
width = 1224;
},
{
anchors = (
{
name = "top-arab";
pos = (552,814);
},
{
name = "bottom-arab";
pos = (600,0);
}
);
associatedMasterId = m006;
attr = {
coordinates = (
800,
1
);
};
layerId = m007;
name = ExtraBold;
shapes = (
{
closed = 1;
nodes = (
(425.588,-17.686,l),
(474.294,370.059,l),
(481.49,432.392,o),
(526.373,486.49,o),
(585.667,506.922,cs),
(687.647,540.255,l),
(701.039,391,l),
(720.922,170.118,o),
(907.941,0,o),
(1129.824,0,cs),
(1183.176,0,l),
(1183.176,340,l),
(1129.824,340,l),
(1072.078,340,o),
(1024.608,362.745,o),
(1018.471,420.49,cs),
(987.392,770.235,l),
(778.059,906.843,l),
(484.431,809.627,l),
(308.196,748.902,o),
(180.745,594.569,o),
(157.824,410.353,cs),
(109.118,21.627,l)
);
}
);
width = 1183;
}
);
unicode = 64423;
},
{
glyphname = "hehgoal-arab.medi";
layers = (
{
anchors = (
{
name = "top-arab";
pos = (470,519);
},
{
name = "bottom-arab";
pos = (618,-596);
}
);
layerId = m006;
shapes = (
{
closed = 1;
nodes = (
(0.294,60,l),
(-80.098,54.314,o),
(-80.098,5.621,o),
(0.294,0,c),
(311.863,0,l),
(317.673,-434.183,o),
(534.327,-596.078,o),
(877.026,-596.078,c),
(906.373,-566.078,l),
(906.294,-80,l),
(906.294,-30,o),
(936.294,0,o),
(986.294,0,cs),
(1163.889,0,l),
(1163.889,60,l),
(986.294,60,l),
(907.294,60,o),
(847.294,0,o),
(847.745,-79.742,cs),
(847.745,-535.948,l),
(543.928,-528.118,o),
(371.771,-376.17,o),
(369.837,13.412,cs),
(369.837,518.601,l),
(311.275,518.601,l),
(311.275,60,l)
);
}
);
width = 1164;
},
{
anchors = (
{
name = "top-arab";
pos = (483,671);
},
{
name = "bottom-arab";
pos = (575,-541);
}
);
associatedMasterId = m006;
attr = {
coordinates = (
800,
1
);
};
layerId = m007;
name = ExtraBold;
shapes = (
{
closed = 1;
nodes = (
(0,340,l),
(-85.882,254.706,o),
(-85.882,84.314,o),
(0,0,c),
(173.529,0,l),
(218.686,-352.745,o),
(444.49,-541.176,o),
(810.98,-541.176,c),
(971.176,-341.176,l),
(971,-30,l),
(971,-14,o),
(984.744,-0.105,o),
(1000.519,0,cs),
(1133.922,0,l),
(1133.922,340,l),
(892,340,l),
(742,340,o),
(652,250,o),
(652,100,cs),
(651.765,-199.216,l),
(546.51,-165.765,o),
(484.157,-70.549,o),
(483.137,145.176,cs),
(483.137,671.02,l),
(164.706,671.02,l),
(164.706,340,l)
);
}
);
width = 1134;
}
);
unicode = 64425;
},
{
glyphname = "hehgoal-arab.init";
layers = (
{
anchors = (
{
name = "top-arab";
pos = (266,632);
},
{
name = "bottom-arab";
pos = (307,-648);
}
);
layerId = m006;
shapes = (
{
closed = 1;
nodes = (
(416.621,-576.157,cs),
(416.621,-507.954,o),
(335.641,-462.758,o),
(250.542,-528.575,c),
(250.542,-501.248,l),
(249.608,-399.477,o),
(323.621,-311.987,o),
(425.458,-294.902,c),
(438.634,-293.268,l),
(430.869,-240.588,l),
(421.399,-242.765,l),
(291.673,-263.549,o),
(196.993,-375.621,o),
(197.928,-504.255,cs),
(197.928,-566.81,l),
(197.928,-625.275,o),
(246.327,-672.954,o),
(306.948,-672.954,cs),
(367.503,-672.954,o),
(416.621,-635.556,o)
);
},
{
closed = 1;
nodes = (
(0.294,60,l),
(-80.098,54.314,o),
(-80.098,5.621,o),
(0.294,0,c),
(168,0,l),
(349.052,0,o),
(495.32,145.614,o),
(495.32,325.948,cs),
(495.32,631.765,l),
(436.758,631.765,l),
(436.758,328.758,l),
(436.758,179.967,o),
(316.725,60,o),
(168,60,cs)
);
}
);
width = 666;
},
{
anchors = (
{
name = "top-arab";
pos = (453,816);
},
{
name = "bottom-arab";
pos = (296,-888);
}
);
associatedMasterId = m006;
attr = {
coordinates = (
800,
1
);
};
layerId = m007;
name = ExtraBold;
shapes = (
{
closed = 1;
nodes = (
(540.902,-706.353,cs),
(540.902,-593.314,o),
(446.196,-545.373,o),
(289.725,-552.627,c),
(289.725,-520.725,l),
(289.706,-492.157,o),
(307.902,-467.804,o),
(337.451,-463.529,cs),
(507.098,-439.02,l),
(474.627,-208.824,l),
(374.569,-227.471,l),
(192.686,-259.235,o),
(60.49,-414.314,o),
(60.51,-565.824,cs),
(60.51,-706.157,l),
(60.51,-813.118,o),
(156.49,-898.314,o),
(295.804,-898.314,cs),
(434.137,-898.314,o),
(540.902,-813.333,o)
);
},
{
closed = 1;
nodes = (
(0,340,l),
(-85.882,254.706,o),
(-85.882,84.314,o),
(0,0,c),
(184.706,0,l),
(422.49,0,o),
(614.51,182.216,o),
(614.51,409.216,cs),
(614.51,816.471,l),
(296.078,816.471,l),
(296.078,451.373,l),
(296.078,389.51,o),
(245.588,340,o),
(184.706,340,cs)
);
}
);
width = 735;
}
);
unicode = 64424;
},
{
glyphname = "hehdoachashmee-arab";
layers = (
{
anchors = (
{
name = "top-arab";
pos = (592,844);
},
{
name = "bottom-arab";
pos = (0,0);
}
);
layerId = m006;
shapes = (
{
closed = 1;
nodes = (
(493.124,785.098,cs),
(661.562,785.098,o),
(791.686,671.503,o),
(791.686,496.34,cs),
(791.686,248.059,o),
(544.105,88.503,o),
(493.124,61.869,c),
(442.078,88.503,o),
(194.562,248.059,o),
(194.562,496.34,cs),
(194.562,671.503,o),
(324.621,785.098,o)
);
},
{
closed = 1;
nodes = (
(1061.77,0.137,l),
(1275.979,0.137,o),
(1411.901,249.327,o),
(1274.979,430.49,cs),
(919.515,898,l),
(872.809,862.693,l),
(1228.208,395.248,l),
(1329.914,262.176,o),
(1239.62,58.699,o),
(1061.77,58.699,cs),
(591.367,58.699,l),
(688.118,122.346,o),
(850.248,279.556,o),
(850.248,496.34,cs),
(850.248,702.261,o),
(696.85,843.725,o),
(493.124,843.725,cs),
(290.268,843.725,o),
(136,702.261,o),
(136,496.34,cs),
(136,239.556,o),
(417.935,0,o),
(492.935,0,cs)
);
}
);
width = 1456;
},
{
anchors = (
{
name = "top-arab";
pos = (543,991);
},
{
name = "bottom-arab";
pos = (607,0);
}
);
associatedMasterId = m006;
attr = {
coordinates = (
800,
1
);
};
layerId = m007;
name = ExtraBold;
shapes = (
{
closed = 1;
nodes = (
(571,733,cs),
(655.406,733,o),
(733,676.763,o),
(733,580.846,cs),
(733,462.929,o),
(632.048,378.303,o),
(571,324,c),
(508.875,378.303,o),
(409,462.929,o),
(409,580.846,cs),
(409,676.763,o),
(486.594,733,o)
);
},
{
closed = 1;
nodes = (
(1234.011,0.059,l),
(1535.149,0.059,o),
(1725.972,349.902,o),
(1534.149,603.353,cs),
(1130.188,1134,l),
(877.6,940.392,l),
(1263.58,432.725,l),
(1291.168,396.647,o),
(1266.757,340.49,o),
(1217.011,340.49,cs),
(942.697,340.14,l),
(983.807,393.345,o),
(1027.725,497.411,o),
(1027.725,585.098,cs),
(1027.725,845.922,o),
(826.745,1035.882,o),
(570.863,1035.882,cs),
(314.02,1035.882,o),
(114,845.922,o),
(114,585.098,cs),
(114,115.237,o),
(459.127,0,o),
(570.431,0,cs)
);
}
);
width = 1715;
}
);
unicode = (1726,64426);
},
{
glyphname = "hehdoachashmee-arab.fina";
layers = (
{
anchors = (
{
name = "top-arab";
pos = (592,844);
},
{
name = "bottom-arab";
pos = (0,0);
}
);
layerId = m006;
shapes = (
{
closed = 1;
nodes = (
(493.124,785.098,cs),
(661.562,785.098,o),
(791.686,671.503,o),
(791.686,496.34,cs),
(791.686,248.059,o),
(544.105,88.503,o),
(493.124,61.869,c),
(442.078,88.503,o),
(194.562,248.059,o),
(194.562,496.34,cs),
(194.562,671.503,o),
(324.621,785.098,o)
);
},
{
closed = 1;
nodes = (
(1570,0,l),
(1570,60,l),
(1229.577,60,l),
(1333.312,144.961,o),
(1370.396,304.243,o),
(1274.979,430.49,cs),
(919.515,898,l),
(872.809,862.693,l),
(1228.208,395.248,l),
(1329.914,262.176,o),
(1239.62,58.699,o),
(1061.77,58.699,cs),
(591.367,58.699,l),
(688.118,122.346,o),
(850.248,279.556,o),
(850.248,496.34,cs),
(850.248,702.261,o),
(696.85,843.725,o),
(493.124,843.725,cs),
(290.268,843.725,o),
(136,702.261,o),
(136,496.34,cs),
(136,239.556,o),
(417.935,0,o),
(492.935,0,cs)
);
}
);
width = 1570;
},
{
anchors = (
{
name = "top-arab";
pos = (561,996);
},
{
name = "bottom-arab";
pos = (625,0);
}
);
associatedMasterId = m006;
attr = {
coordinates = (
800,
1
);
};
layerId = m007;
name = ExtraBold;
shapes = (
{
closed = 1;
nodes = (
(571,733,cs),
(655.406,733,o),
(733,676.763,o),
(733,580.846,cs),
(733,462.929,o),
(632.048,378.303,o),
(571,324,c),
(508.875,378.303,o),
(409,462.929,o),
(409,580.846,cs),
(409,676.763,o),
(486.594,733,o)
);
},
{
closed = 1;
nodes = (
(1726,0,l),
(1726,340,l),
(1609.167,340,l),
(1618.587,427.709,o),
(1596.734,520.661,o),
(1534.149,603.353,cs),
(1130.188,1134,l),
(877.6,940.392,l),
(1263.58,432.725,l),
(1291.168,396.647,o),
(1266.757,340.49,o),
(1217.011,340.49,cs),
(942.697,340.14,l),
(983.807,393.345,o),
(1027.725,497.411,o),
(1027.725,585.098,cs),
(1027.725,845.922,o),
(826.745,1035.882,o),
(570.863,1035.882,cs),
(314.02,1035.882,o),
(114,845.922,o),
(114,585.098,cs),
(114,115.237,o),
(459.127,0,o),
(570.431,0,cs)
);
}
);
width = 1726;
}
);
unicode = 64427;
},
{
glyphname = "hehdoachashmee-arab.medi";
layers = (
{
anchors = (
{
name = "top-arab";
pos = (682,844);
},
{
name = "bottom-arab";
pos = (0,0);
}
);
layerId = m006;
shapes = (
{
closed = 1;
nodes = (
(582.19,785.098,cs),
(750.627,785.098,o),
(880.752,671.503,o),
(880.752,496.34,cs),
(880.752,248.059,o),
(633.17,88.503,o),
(582.19,61.869,c),
(531.144,88.503,o),
(283.627,248.059,o),
(283.627,496.34,cs),
(283.627,671.503,o),
(413.686,785.098,o)
);
},
{
closed = 1;
nodes = (
(1659,0,l),
(1659,60,l),
(1318.642,60,l),
(1422.377,144.961,o),
(1459.461,304.243,o),
(1364.045,430.49,cs),
(1008.58,898,l),
(961.875,862.693,l),
(1317.273,395.248,l),
(1418.979,262.176,o),
(1328.685,58.699,o),
(1150.835,58.699,cs),
(680.432,58.699,l),
(777.183,122.346,o),
(939.314,279.556,o),
(939.314,496.34,cs),
(939.314,702.261,o),
(785.915,843.725,o),
(582.19,843.725,cs),
(379.333,843.725,o),
(225.065,702.261,o),
(225.065,496.34,cs),
(225.065,279.556,o),
(387.131,122.346,o),
(483.275,60,c),
(0.294,60,l),
(-80.098,54.314,o),
(-80.098,5.621,o),
(0.294,0,c),
(514.281,0,l),
(547.092,0,o),
(580.752,12.157,o),
(582.19,22.941,c),
(583.627,12.157,o),
(617.288,0,o),
(650.098,0,cs)
);
}
);
width = 1659;
},
{
anchors = (
{
name = "top-arab";
pos = (588,991);
},
{
name = "bottom-arab";
pos = (588,0);
}
);
associatedMasterId = m006;
attr = {
coordinates = (
800,
1
);
};
layerId = m007;
name = ExtraBold;
shapes = (
{
closed = 1;
nodes = (
(588,733,cs),
(672.406,733,o),
(750,676.763,o),
(750,580.846,cs),
(750,462.929,o),
(649.048,378.303,o),
(588,324,c),
(525.875,378.303,o),
(426,462.929,o),
(426,580.846,cs),
(426,676.763,o),
(503.594,733,o)
);
},
{
closed = 1;
nodes = (
(1744,0,l),
(1744,340,l),
(1626.735,340,l),
(1636.155,427.709,o),
(1614.302,520.661,o),
(1551.717,603.353,cs),
(1147.757,1134,l),
(895.168,940.392,l),
(1281.149,432.725,l),
(1308.737,396.647,o),
(1284.325,340.49,o),
(1234.58,340.49,cs),
(960.265,340.14,l),
(1001.376,393.345,o),
(1045.294,497.411,o),
(1045.294,585.098,cs),
(1045.294,845.922,o),
(844.314,1035.882,o),
(588.431,1035.882,cs),
(331.588,1035.882,o),
(131.569,845.922,o),
(131.569,585.098,cs),
(131.569,497.328,o),
(174.549,393.196,o),
(216.706,340,c),
(0,340,l),
(-85.882,254.706,o),
(-85.882,84.314,o),
(0,0,c),
(269.804,0,l),
(481.961,0,o),
(566.863,42.353,o),
(588.431,64.118,c),
(610,42.353,o),
(694.902,0,o),
(907.059,0,cs)
);
}
);
width = 1744;
}
);
unicode = 64429;
},
{
glyphname = "alefmaksura-arab";
layers = (
{
anchors = (
{
name = "top-arab";
pos = (500,468);
},
{
name = "bottom-arab";
pos = (804,-579);
}
);
layerId = m006;
shapes = (
{
closed = 1;
nodes = (
(877,-481,l),
(1016.475,-470.665,o),
(1333.993,-299.683,o),
(1353.961,-118.105,qs),
(1369.164,2.534,o),
(1255,102,o),
(1126,108,qs),
(765.072,126,l),
(780.366,435.098,l),
(790.366,580.305,o),
(981.537,776.503,o),
(1126.771,781.503,qs),
(1398.608,791.503,l),
(1401.608,732.876,l),
(1126.771,722.876,l),
(1005.765,717.876,o),
(850,556.425,o),
(840,435.431,qs),
(823,182,l),
(1126.941,166.667,l),
(1282,161,o),
(1439.47,21.985,o),
(1412.588,-126.078,qs),
(1382.336,-313.958,o),
(1059.185,-530.576,o),
(876.627,-541,qs),
(707.928,-551,l),
(488.901,-561,o),
(270.763,-395.316,o),
(167,-133,o),
(167,14.837,qs),
(167,192,o),
(225.881,390.845,o),
(256.118,468.111,q),
(312.68,443.111,l),
(285.119,381.665,o),
(226,185,o),
(225.562,17.712,qs),
(226,-178,o),
(434.855,-509.51,o),
(707.928,-491,qs)
);
}
);
width = 1614;
},
{
anchors = (
{
name = "top-arab";
pos = (770,731);
},
{
name = "bottom-arab";
pos = (844,-539);
}
);
associatedMasterId = m006;
attr = {
coordinates = (
800,
1
);
};
layerId = m007;
name = ExtraBold;
shapes = (
{
closed = 1;
nodes = (
(913.745,-218.863,l),
(1047.069,-218.863,o),
(1212.038,-131.094,o),
(1228.647,-31.569,qs),
(1238.994,27.677,o),
(1178.412,78,o),
(1130.412,82,qs),
(704.314,120,l),
(728.726,518.471,l),
(744.612,759.661,o),
(984.287,964.549,o),
(1204.804,974.549,qs),
(1518.353,984.549,l),
(1527.353,665.137,l),
(1214.804,655.137,l),
(1138.412,653,o),
(1062,574,o),
(1057.157,508.471,qs),
(1050.157,397,l),
(1205,380,l),
(1384.691,363.579,o),
(1572.436,200.35,o),
(1548.059,-11.176,qs),
(1509.83,-289.383,o),
(1105.663,-538.49,o),
(914.414,-538.862,q),
(735,-544,l),
(530.625,-539,o),
(261.409,-367.026,o),
(111,-65.629,o),
(111,63.549,qs),
(111.905,239.823,o),
(153.094,504.867,o),
(211,666.529,q),
(503.431,548.529,l),
(475.086,461.504,o),
(428.612,233.905,o),
(429.431,106.686,qs),
(430.871,-34.832,o),
(543.732,-219,o),
(735,-224,q)
);
}
);
width = 1687;
}
);
unicode = (1609,1740,64508,65263);
},
{
glyphname = "farsiyeh-arab.fina";
layers = (
{
anchors = (
{
name = "top-arab";
pos = (500,468);
},
{
name = "bottom-arab";
pos = (816,-579);
}
);
layerId = m006;
shapes = (
{
closed = 1;
nodes = (
(707.928,-551,l),
(488.901,-561,o),
(270.763,-395.316,o),
(167,-133,o),
(167,14.837,qs),
(167,192,o),
(225.881,390.845,o),
(256.118,468.111,q),
(312.68,443.111,l),
(285.119,381.665,o),
(226,185,o),
(225.562,17.712,qs),
(226,-178,o),
(434.855,-503.51,o),
(707.928,-491,qs),
(933.105,-481,l),
(1110.66,-471,o),
(1394.307,-330.317,o),
(1394.307,-150,qs),
(1394.307,-86.88,o),
(1316.796,0.348,o),
(1261.98,1.438,qs),
(812,1.438,l),
(812,60,l),
(1755,60,l),
(1755,0,l),
(1380.451,0,l),
(1452.338,-57.332,o),
(1452.484,-149.804,qs),
(1450.769,-262.762,o),
(1336.033,-434.888,o),
(1101.059,-531,o),
(933.105,-541,qs)
);
}
);
width = 1755;
},
{
anchors = (
{
name = "top-arab";
pos = (468,567);
},
{
name = "bottom-arab";
pos = (884,-539);
}
);
associatedMasterId = m006;
attr = {
coordinates = (
800,
1
);
};
layerId = m007;
name = ExtraBold;
shapes = (
{
closed = 1;
nodes = (
(773.922,-548.056,l),
(559.625,-558.056,o),
(270.409,-366.083,o),
(110,-64.685,o),
(110,64.493,qs),
(110.905,240.766,o),
(162.094,505.811,o),
(220,667.473,q),
(512.431,549.473,l),
(484.086,462.448,o),
(427.811,234.779,o),
(428.431,107.63,qs),
(429.871,-33.888,o),
(572.732,-218.056,o),
(773.922,-208.056,qs),
(1052.412,-199.056,l),
(1179,-192.056,o),
(1278.505,-123.011,o),
(1278.412,-49,qs),
(1278.412,-11.736,o),
(1234.094,21.006,o),
(1196.51,21.569,qs),
(772.804,21.569,l),
(772.804,340,l),
(1762.412,340,l),
(1762.412,0,l),
(1585.569,0,l),
(1588.15,-13.447,o),
(1588.059,-37.059,qs),
(1589.387,-125.655,o),
(1493.609,-345.923,o),
(1234.008,-529.056,o),
(1052.414,-539.056,qs)
);
}
);
width = 1762;
}
);
unicode = (64509,65264);
},
{
glyphname = "yehbarree-arab";
layers = (
{
anchors = (
{
name = "top-arab";
pos = (658,814);
},
{
name = "bottom-arab";
pos = (0,0);
}
);
layerId = m006;
shapes = (
{
closed = 1;
nodes = (
(1421.784,0,l),
(1421.784,58.562,l),
(537.928,58.562,l),
(366.333,58.562,o),
(229.562,185.399,o),
(229.562,366.928,cs),
(229.562,548.523,o),
(376.333,695.294,o),
(557.928,725.294,cs),
(770.085,765.294,l),
(759.465,821.919,l),
(557.928,783.922,l),
(344.072,743.922,o),
(171,580.784,o),
(171,366.928,cs),
(171,153.072,o),
(334.072,0,o),
(537.928,0,cs)
);
}
);
width = 1593;
},
{
anchors = (
{
name = "top-arab";
pos = (704,989);
},
{
name = "bottom-arab";
pos = (704,0);
}
);
associatedMasterId = m006;
attr = {
coordinates = (
800,
1
);
};
layerId = m007;
name = ExtraBold;
shapes = (
{
closed = 1;
nodes = (
(1521.863,0,l),
(1521.863,318.431,l),
(584.02,318.431,l),
(502.098,318.431,o),
(438.529,372.98,o),
(438.529,463.922,cs),
(438.529,555.843,o),
(512.098,636.412,o),
(604.02,649.412,cs),
(846.373,679.412,l),
(823.715,996.954,l),
(604.02,968.824,l),
(336.176,938.824,o),
(120.098,731.765,o),
(120.098,463.922,cs),
(120.098,196.078,o),
(326.176,0,o),
(584.02,0,cs)
);
}
);
width = 1642;
}
);
unicode = (1746,64430);
},
{
glyphname = "yehbarree-arab.fina";
layers = (
{
anchors = (
{
name = "top-arab";
pos = (658,60);
},
{
name = "bottom-arab";
pos = (665,-516);
}
);
layerId = m006;
shapes = (
{
closed = 1;
nodes = (
(912.046,-516.078,l),
(912.046,-457.516,l),
(498.32,-457.516,l),
(349.595,-457.516,o),
(229.562,-367.484,o),
(229.562,-228.758,cs),
(229.562,-90.033,o),
(349.595,0,o),
(498.32,0,cs),
(1135.706,0,l),
(1135.706,60,l),
(498.32,60,l),
(317.268,60,o),
(171,-56.987,o),
(171,-228.758,cs),
(171,-400.529,o),
(317.268,-516.078,o),
(498.32,-516.078,cs)
);
}
);
width = 1136;
},
{
anchors = (
{
name = "top-arab";
pos = (704,340);
},
{
name = "bottom-arab";
pos = (651,-491);
}
);
associatedMasterId = m006;
attr = {
coordinates = (
800,
1
);
};
layerId = m007;
name = ExtraBold;
shapes = (
{
closed = 1;
nodes = (
(855.784,-491.176,l),
(855.784,-192.745,l),
(529.902,-192.745,l),
(469.02,-192.745,o),
(418.529,-162.255,o),
(418.529,-101.373,cs),
(418.529,-40.49,o),
(469.02,0,o),
(549.902,0,cs),
(1090.686,0,l),
(1090.686,340,l),
(549.902,340,l),
(292.118,340,o),
(100.098,137.196,o),
(100.098,-101.373,cs),
(100.098,-339.941,o),
(292.118,-491.176,o),
(529.902,-491.176,cs)
);
}
);
width = 1091;
}
);
unicode = 64431;
},
{
glyphname = "yehbarree-arab.2.fina";
layers = (
{
anchors = (
{
name = "top-arab";
pos = (665,60);
},
{
name = "bottom-arab";
pos = (665,-516);
}
);
layerId = m006;
shapes = (
{
closed = 1;
nodes = (
(1012.046,-516.078,l),
(1012.046,-457.516,l),
(498.32,-457.516,l),
(349.595,-457.516,o),
(229.562,-367.484,o),
(229.562,-228.758,cs),
(229.562,-90.033,o),
(349.595,0,o),
(498.32,0,cs),
(965.706,0,l),
(965.706,60,l),
(498.32,60,l),
(317.268,60,o),
(171,-56.987,o),
(171,-228.758,cs),
(171,-400.529,o),
(317.268,-516.078,o),
(498.32,-516.078,cs)
);
}
);
width = 965;
},
{
anchors = (
{
name = "top-arab";
pos = (651,340);
},
{
name = "bottom-arab";
pos = (651,-491);
}
);
associatedMasterId = m006;
attr = {
coordinates = (
800,
1
);
};
layerId = m007;
name = ExtraBold;
shapes = (
{
closed = 1;
nodes = (
(1055.784,-491.176,l),
(1055.784,-192.745,l),
(529.902,-192.745,l),
(469.02,-192.745,o),
(418.529,-162.255,o),
(418.529,-101.373,cs),
(418.529,-40.49,o),
(469.02,0,o),
(549.902,0,cs),
(981.686,0,l),
(981.686,340,l),
(549.902,340,l),
(292.118,340,o),
(100.098,137.196,o),
(100.098,-101.373,cs),
(100.098,-339.941,o),
(292.118,-491.176,o),
(529.902,-491.176,cs)
);
}
);
width = 981;
}
);
},
{
glyphname = "alef_lam-arab.init";
layers = (
{
anchors = (
{
name = "top-arab";
pos = (978,1483);
},
{
name = "top-arab";
pos = (250,1310);
},
{
name = "bottom-arab";
pos = (0,0);
},
{
name = "bottom-arab";
pos = (0,0);
}
);
layerId = m006;
shapes = (
{
closed = 1;
nodes = (
(281.518,300.025,l),
(340,303.09,l),
(286.963,1309.975,l),
(228.481,1306.91,l)
);
},
{
closed = 1;
nodes = (
(680.418,60,cs),
(211.268,60,l),
(211.268,0,l),
(680.418,0,l),
(861.471,0,o),
(1007.804,146.268,o),
(1007.804,327.32,cs),
(1007.536,1482.987,l),
(948.908,1482.987,l),
(949.176,328.758,l),
(949.176,179.967,o),
(829.209,60,o)
);
}
);
width = 1229;
},
{
anchors = (
{
name = "top-arab";
pos = (933,1504);
},
{
name = "top-arab";
pos = (315,1340);
},
{
name = "bottom-arab";
pos = (932,0);
},
{
name = "bottom-arab";
pos = (315,0);
}
);
associatedMasterId = m006;
attr = {
coordinates = (
800,
1
);
};
layerId = m007;
name = ExtraBold;
shapes = (
{
closed = 1;
nodes = (
(194.005,443,l),
(502,459.665,l),
(455.77,1341.788,l),
(147.775,1325.123,l)
);
},
{
closed = 1;
nodes = (
(713.255,340,cs),
(146,340,l),
(146,0,l),
(713.255,0,l),
(951.039,0,o),
(1144.039,192.02,o),
(1144.039,429.804,cs),
(1144.039,1524.118,l),
(824.627,1524.118,l),
(824.627,451.373,l),
(824.627,389.51,o),
(775.118,340,o)
);
}
);
width = 1300;
}
);
},
{
glyphname = "alef_lam-arab.medi";
layers = (
{
anchors = (
{
name = "top-arab";
pos = (978,1483);
},
{
name = "top-arab";
pos = (250,1310);
},
{
name = "bottom-arab";
pos = (0,0);
},
{
name = "bottom-arab";
pos = (0,0);
}
);
layerId = m006;
shapes = (
{
closed = 1;
nodes = (
(1369.216,0,l),
(1369.216,60,l),
(1276.928,60,l),
(1128.137,60,o),
(1008.17,179.967,o),
(1008.17,328.758,cs),
(1007.902,1482.987,l),
(949.275,1482.987,l),
(949.542,328.758,l),
(949.542,179.967,o),
(829.575,60,o),
(680.784,60,cs),
(211.268,60,l),
(211.268,0,l),
(680.784,0,l),
(817.804,0,o),
(932.516,84.647,o),
(978.889,203.098,c),
(1025.196,84.647,o),
(1139.974,0,o),
(1276.928,0,cs)
);
},
{
closed = 1;
nodes = (
(281.518,300.025,l),
(340,303.09,l),
(286.963,1309.975,l),
(228.481,1306.91,l)
);
}
);
width = 1369;
},
{
anchors = (
{
name = "top-arab";
pos = (933,1504);
},
{
name = "top-arab";
pos = (315,1340);
},
{
name = "bottom-arab";
pos = (932,0);
},
{
name = "bottom-arab";
pos = (315,0);
}
);
associatedMasterId = m006;
attr = {
coordinates = (
800,
1
);
};
layerId = m007;
name = ExtraBold;
shapes = (
{
closed = 1;
nodes = (
(1319.725,0,l),
(1319.725,340,l),
(1255.412,340,l),
(1193.549,340,o),
(1144.039,389.51,o),
(1144.039,451.373,cs),
(1144.039,1524.118,l),
(824.627,1524.118,l),
(824.627,451.373,l),
(824.627,389.51,o),
(775.118,340,o),
(713.255,340,cs),
(146,340,l),
(146,0,l),
(713.255,0,l),
(836.549,0,o),
(919.235,51.706,o),
(984.824,134.471,c),
(1049.431,51.706,o),
(1133.098,0,o),
(1255.412,0,cs)
);
},
{
closed = 1;
nodes = (
(194.005,443,l),
(502,459.665,l),
(455.77,1341.788,l),
(147.775,1325.123,l)
);
}
);
width = 1320;
}
);
},
{
glyphname = "lamalef-arab.isol";
layers = (
{
anchors = (
{
name = "top-arab";
pos = (978,1483);
},
{
name = "top-arab";
pos = (250,1454);
},
{
name = "bottom-arab";
pos = (0,0);
},
{
name = "bottom-arab";
pos = (0,0);
}
);
layerId = m006;
shapes = (
{
closed = 1;
nodes = (
(680.307,60,cs),
(211.268,60,l),
(211.268,0,l),
(680.307,0,l),
(861.359,0,o),
(1007.693,146.268,o),
(1007.693,327.32,cs),
(1007.425,1483,l),
(948.797,1483,l),
(949.065,328.758,l),
(949.065,179.967,o),
(829.098,60,o)
);
},
{
closed = 1;
nodes = (
(281.984,299.997,l),
(340.466,303.062,l),
(278.846,1453.722,l),
(220.433,1449.369,l)
);
}
);
width = 1229;
},
{
anchors = (
{
name = "top-arab";
pos = (984,1524);
},
{
name = "top-arab";
pos = (315,1502);
},
{
name = "bottom-arab";
pos = (932,0);
},
{
name = "bottom-arab";
pos = (315,0);
}
);
associatedMasterId = m006;
attr = {
coordinates = (
800,
1
);
};
layerId = m007;
name = ExtraBold;
shapes = (
{
closed = 1;
nodes = (
(713.255,340,cs),
(146,340,l),
(146,0,l),
(713.255,0,l),
(951.039,0,o),
(1144.039,192.02,o),
(1144.039,429.804,cs),
(1144.039,1524.118,l),
(824.627,1524.118,l),
(824.627,451.373,l),
(824.627,389.51,o),
(775.118,340,o)
);
},
{
closed = 1;
nodes = (
(193.52,443.167,l),
(501.515,459.832,l),
(446.911,1501.735,l),
(138.916,1485.07,l)
);
}
);
width = 1300;
}
);
unicode = 65275;
},
{
glyphname = "lamalef-arab.fina";
layers = (
{
anchors = (
{
name = "top-arab";
pos = (978,1483);
},
{
name = "top-arab";
pos = (250,1454);
},
{
name = "bottom-arab";
pos = (0,0);
},
{
name = "bottom-arab";
pos = (0,0);
}
);
layerId = m006;
shapes = (
{
closed = 1;
nodes = (
(680.784,60,cs),
(211.268,60,l),
(211.268,0,l),
(680.784,0,l),
(817.804,0,o),
(932.516,84.647,o),
(978.889,203.098,c),
(1025.196,84.647,o),
(1139.974,0,o),
(1276.928,0,cs),
(1369.216,0,l),
(1369.216,60,l),
(1276.928,60,l),
(1128.137,60,o),
(1008.17,179.967,o),
(1008.17,328.758,cs),
(1007.902,1483,l),
(949.275,1483,l),
(949.542,328.758,l),
(949.542,179.967,o),
(829.575,60,o)
);
},
{
closed = 1;
nodes = (
(281.984,299.997,l),
(340.466,303.062,l),
(278.846,1453.722,l),
(220.433,1449.369,l)
);
}
);
width = 1369;
},
{
anchors = (
{
name = "top-arab";
pos = (984,1524);
},
{
name = "top-arab";
pos = (315,1502);
},
{
name = "bottom-arab";
pos = (932,0);
},
{
name = "bottom-arab";
pos = (315,0);
}
);
associatedMasterId = m006;
attr = {
coordinates = (
800,
1
);
};
layerId = m007;
name = ExtraBold;
shapes = (
{
closed = 1;
nodes = (
(713.255,340,cs),
(146,340,l),
(146,0,l),
(713.255,0,l),
(836.549,0,o),
(919.235,51.706,o),
(984.824,134.471,c),
(1049.431,51.706,o),
(1133.098,0,o),
(1255.412,0,cs),
(1319.725,0,l),
(1319.725,340,l),
(1255.412,340,l),
(1193.549,340,o),
(1144.039,389.51,o),
(1144.039,451.373,cs),
(1144.039,1524.118,l),
(824.627,1524.118,l),
(824.627,451.373,l),
(824.627,389.51,o),
(775.118,340,o)
);
},
{
closed = 1;
nodes = (
(193.52,443.167,l),
(501.515,459.832,l),
(446.911,1501.735,l),
(138.916,1485.07,l)
);
}
);
width = 1320;
}
);
unicode = 65276;
},
{
glyphname = "extendedarabicindiczero-arab";
layers = (
{
layerId = m006;
shapes = (
{
closed = 1;
nodes = (
(157,464.706,cs),
(157,276.373,o),
(309.484,123.889,o),
(497.817,123.889,cs),
(686.085,123.889,o),
(838.569,276.373,o),
(838.569,464.706,cs),
(838.569,652.974,o),
(686.085,805.458,o),
(497.817,805.458,cs),
(309.484,805.458,o),
(157,652.974,o)
);
},
{
closed = 1;
nodes = (
(216.32,464.706,cs),
(216.32,619.301,o),
(342.222,747.072,o),
(498.209,746.137,cs),
(653.346,746.137,o),
(779.248,620.235,o),
(779.248,464.706,cs),
(779.248,309.111,o),
(653.346,183.209,o),
(497.817,183.209,cs),
(342.222,183.209,o),
(216.32,309.111,o)
);
}
);
width = 996;
},
{
associatedMasterId = m006;
attr = {
coordinates = (
800,
1
);
};
layerId = m007;
name = ExtraBold;
shapes = (
{
closed = 1;
nodes = (
(100,530.621,cs),
(100,279.889,o),
(299.791,80.098,o),
(550.523,80.098,cs),
(800.209,80.098,o),
(1000,279.889,o),
(1000,530.621,cs),
(1000,780.307,o),
(800.209,980.098,o),
(550.523,980.098,cs),
(299.791,980.098,o),
(100,780.307,o)
);
},
{
closed = 1;
nodes = (
(415,530.651,cs),
(415,603.739,o),
(476.366,665.171,o),
(550.221,665.049,cs),
(623.634,665.149,o),
(685,603.761,o),
(685,530.651,cs),
(685,456.438,o),
(623.634,395.049,o),
(550.552,395.049,cs),
(476.366,395.049,o),
(415,456.438,o)
);
}
);
width = 1100;
}
);
unicode = 1776;
},
{
glyphname = "extendedarabicindicone-arab";
layers = (
{
layerId = m006;
shapes = (
{
closed = 1;
nodes = (
(299.784,0,l),
(299.892,681,l),
(299.892,849.281,o),
(280.088,1113.386,o),
(237.219,1299.405,cs),
(230.062,1328.882,l),
(170.108,1315.438,l),
(177.33,1285.026,l),
(219.676,1104.837,o),
(238.48,845.235,o),
(238.48,681,cs),
(238.373,0,l)
);
}
);
width = 471;
},
{
associatedMasterId = m006;
attr = {
coordinates = (
800,
1
);
};
layerId = m007;
name = ExtraBold;
shapes = (
{
closed = 1;
nodes = (
(519.294,0,l),
(519.294,761.275,l),
(519.294,919.49,o),
(502.235,1157.059,o),
(461.196,1329.353,cs),
(423.843,1491.51,l),
(98.529,1415.843,l),
(136.863,1253.667,l),
(170.059,1112.824,o),
(186.118,900.804,o),
(186.118,761.275,cs),
(186.118,0,l)
);
}
);
width = 639;
}
);
unicode = 1777;
},
{
glyphname = "extendedarabicindictwo-arab";
layers = (
{
layerId = m006;
shapes = (
{
closed = 1;
nodes = (
(289.037,927.415,c),
(279.139,1054.825,o),
(261.959,1190.695,o),
(236.869,1299.622,cs),
(229.712,1329.099,l),
(169.758,1315.655,l),
(176.98,1285.243,l),
(219.327,1105.053,o),
(238.131,845.452,o),
(238.131,681.217,cs),
(238.373,0,l),
(299.784,0,l),
(299.542,676,l),
(299.524,722.755,o),
(297.911,777.826,o),
(294.61,836.299,c),
(324.325,774.243,o),
(417.014,732.633,o),
(512.51,744.694,cs),
(683.908,766.151,o),
(791.111,878.419,o),
(796.242,1042.426,cs),
(800.242,1157.537,o),
(786.046,1234.341,o),
(766.477,1336.707,c),
(706.392,1325.047,l),
(722.961,1237.681,o),
(738.765,1159.511,o),
(734.83,1044.145,cs),
(731.026,911.681,o),
(645.013,822.256,o),
(504.026,805.04,cs),
(385,790.352,o),
(327.648,859.317,o)
);
}
);
width = 963;
},
{
associatedMasterId = m006;
attr = {
coordinates = (
800,
1
);
};
layerId = m007;
name = ExtraBold;
shapes = (
{
closed = 1;
nodes = (
(502.674,1069.906,c),
(493.301,1160.771,o),
(479.684,1251.716,o),
(461.196,1329.353,cs),
(423.843,1491.51,l),
(98.529,1415.843,l),
(136.863,1253.667,l),
(170.059,1112.824,o),
(186.118,900.804,o),
(186.118,761.275,cs),
(186.118,0,l),
(519.294,0,l),
(519.294,683.022,l),
(519.021,687.802,o),
(519.089,699.639,o),
(519.191,707.545,c),
(545.211,680.041,o),
(598.684,668.078,o),
(671.804,677.431,cs),
(890.784,705.294,o),
(1052.824,863.314,o),
(1059.784,1069.412,cs),
(1063.784,1200.078,o),
(1046.843,1274.137,o),
(1005.314,1493.627,c),
(678.039,1430.725,l),
(716.569,1226.235,o),
(729.627,1173.686,o),
(726.608,1081.196,cs),
(725.549,1040.235,o),
(685.353,1014.863,o),
(628.549,1008.627,cs),
(563.008,999.975,o),
(512.465,1033.465,o)
);
}
);
width = 1158;
}
);
unicode = 1778;
},
{
glyphname = "extendedarabicindicthree-arab";
layers = (
{
layerId = m006;
shapes = (
{
closed = 1;
nodes = (
(1273.947,1045.558,cs),
(1278.009,1161.519,o),
(1262.826,1237.599,o),
(1244.247,1339.727,c),
(1183.199,1328.205,l),
(1202.752,1225.971,o),
(1216.544,1161.45,o),
(1212.612,1048.104,cs),
(1207.878,920.39,o),
(1113.459,826.363,o),
(969.743,808.123,cs),
(885.678,797.56,o),
(810.864,835.201,o),
(767.275,918.571,c),
(785.28,957.1,o),
(794.986,999.01,o),
(795.754,1041.562,cs),
(799.751,1156.654,o),
(785.567,1233.472,o),
(765.974,1335.837,c),
(705.884,1324.143,l),
(722.48,1236.805,o),
(738.27,1158.624,o),
(734.339,1043.28,cs),
(730.539,910.816,o),
(644.588,821.351,o),
(503.609,804.151,cs),
(384.513,789.47,o),
(327.799,858.443,o),
(289.252,926.532,c),
(279.384,1053.906,o),
(262.177,1189.801,o),
(237.103,1298.736,cs),
(229.95,1328.195,l),
(169.991,1314.759,l),
(177.209,1284.365,l),
(219.558,1104.174,o),
(238.346,844.559,o),
(238.346,680.348,cs),
(238.354,0,l),
(299.77,0,l),
(299.761,676,l),
(299.761,722.567,o),
(298.137,777.022,o),
(294.808,835.13,c),
(324.472,773.147,o),
(417.062,731.949,o),
(512.022,743.8,cs),
(610.124,756.125,o),
(686.828,798.309,o),
(734.985,863.129,c),
(792.568,774.074,o),
(883.554,735.779,o),
(978.01,747.797,cs),
(1152.184,770.21,o),
(1268.821,887.067,o)
);
}
);
width = 1440;
},
{
associatedMasterId = m006;
attr = {
coordinates = (
800,
1
);
};
layerId = m007;
name = ExtraBold;
shapes = (
{
closed = 1;
nodes = (
(1592.265,1073.051,cs),
(1597.245,1202.756,o),
(1579.304,1279.737,o),
(1537.795,1496.285,c),
(1209.522,1435.344,l),
(1251.051,1217.815,o),
(1262.109,1174.363,o),
(1259.09,1083.873,cs),
(1258.011,1043.012,o),
(1217.639,1018.522,o),
(1161.757,1011.286,cs),
(1126.154,1007.305,o),
(1087.966,1014.262,o),
(1047.725,1048.567,c),
(1048.531,1055.31,o),
(1049.035,1062.153,o),
(1049.226,1069.051,cs),
(1053.226,1199.717,o),
(1036.285,1273.776,o),
(994.755,1493.266,c),
(667.48,1430.364,l),
(706.01,1225.874,o),
(719.069,1173.325,o),
(716.049,1080.835,cs),
(714.99,1039.874,o),
(675.775,1014.501,o),
(618.971,1008.266,cs),
(552.921,999.669,o),
(511.973,1032.684,o),
(502.97,1068.859,c),
(493.596,1159.953,o),
(479.956,1251.159,o),
(461.422,1328.991,cs),
(424.069,1491.148,l),
(98.755,1415.481,l),
(137.088,1253.305,l),
(170.284,1112.462,o),
(186.343,900.442,o),
(186.343,760.913,cs),
(186.121,0,l),
(519.297,0,l),
(519.519,695.701,l),
(519.519,697.297,o),
(519.485,699.843,o),
(519.416,701.846,c),
(545.375,678.207,o),
(596.612,668.365,o),
(661.245,677.07,cs),
(744.428,688.022,o),
(827.995,717.518,o),
(887.499,761.212,c),
(955.811,720.086,o),
(1086.39,665,o),
(1203.049,681.07,cs),
(1422.088,708.952,o),
(1585.304,866.089,o)
);
}
);
width = 1692;
}
);
unicode = 1779;
},
{
glyphname = "extendedarabicindicfour-arab";
layers = (
{
layerId = m006;
shapes = (
{
closed = 1;
nodes = (
(288.455,933.611,c),
(278.657,1058.711,o),
(261.745,1192.145,o),
(237.111,1299.155,cs),
(229.954,1328.636,l),
(170,1315.193,l),
(177.228,1284.777,l),
(219.576,1104.588,o),
(238.379,844.988,o),
(238.379,680.753,cs),
(238.379,0,l),
(299.778,0,l),
(299.778,677.458,l),
(299.778,725.323,o),
(298.074,781.63,o),
(294.589,841.501,c),
(351.905,752.979,o),
(483.688,635.018,o),
(850.857,635.018,cs),
(967.165,635.018,o),
(1086.159,681.712,o),
(1186.747,771.575,c),
(1157.05,820.723,l),
(1061.436,738.794,o),
(952.049,696.299,o),
(850.056,696.429,cs),
(741.328,697.494,o),
(556.345,749.01,o),
(555.74,972.598,cs),
(555.936,1147.819,o),
(676.051,1278.61,o),
(854.275,1281.809,cs),
(913.921,1281.94,o),
(975.634,1266.656,o),
(1039.145,1226.181,c),
(1066.476,1279.482,l),
(999.739,1323.173,o),
(925.191,1343.285,o),
(855.581,1342.481,cs),
(646.49,1341.134,o),
(495.962,1185.108,o),
(496.57,974.467,cs),
(496.561,836.909,o),
(560.369,754.226,o),
(639.856,708.541,c),
(409.538,743.635,o),
(324.532,869.621,o)
);
}
);
width = 1329;
},
{
associatedMasterId = m006;
attr = {
coordinates = (
800,
1
);
};
layerId = m007;
name = ExtraBold;
shapes = (
{
closed = 1;
nodes = (
(490.086,1170.919,c),
(482.226,1226.574,o),
(472.643,1280.49,o),
(461.069,1329.046,cs),
(423.709,1491.264,l),
(98.401,1415.626,l),
(136.826,1253.388,l),
(170.035,1112.546,o),
(186.079,900.55,o),
(186.079,761.02,cs),
(186.246,0,l),
(519.238,0,l),
(519.072,711.6,l),
(519.072,715.207,o),
(519.036,721.647,o),
(518.963,725.566,c),
(580.059,676.394,o),
(712.615,621,o),
(1015.261,621,cs),
(1149.873,621,o),
(1226.79,649.409,o),
(1335.599,695.351,c),
(1282.158,1012.565,l),
(1149.937,973.636,o),
(1077.134,952.204,o),
(1017.243,954.163,cs),
(954.32,956.141,o),
(895.58,972.872,o),
(900.501,1064.699,cs),
(903.439,1131.016,o),
(941.171,1174.883,o),
(1010.528,1180.861,cs),
(1037.21,1182.82,o),
(1066.912,1177.566,o),
(1193.569,1144.44,c),
(1267.543,1453.958,l),
(1204.48,1479.327,o),
(1094.261,1515.003,o),
(1030.117,1516.943,cs),
(791.751,1524.739,o),
(591.825,1340.347,o),
(586.947,1064.738,cs),
(586.819,1051.433,o),
(588.285,1039.492,o),
(590.421,1028.498,c),
(541.854,1057.579,o),
(501.362,1137.209,o)
);
}
);
width = 1434;
}
);
unicode = 1780;
},
{
glyphname = "extendedarabicindicfive-arab";
layers = (
{
layerId = m006;
shapes = (
{
closed = 1;
nodes = (
(620.876,1303.872,c),
(582.922,1255.501,l),
(620.175,1226.662,o),
(656.573,1198.647,o),
(691.87,1171.123,c),
(410.486,942.332,o),
(159,624.332,o),
(159,334.012,cs),
(159,144.437,o),
(281.702,-1.613,o),
(448.821,-1.613,cs),
(564.294,-1.613,o),
(650.788,46.653,o),
(698.915,130.802,c),
(751.345,48.725,o),
(846.034,-1.654,o),
(940.469,-1.654,cs),
(1106.332,-1.654,o),
(1247.25,152.289,o),
(1247.25,333.972,cs),
(1247.25,746.791,o),
(952.767,1024.977,o)
);
},
{
closed = 1;
nodes = (
(940.469,59.868,cs),
(846.644,59.868,o),
(763.803,120.507,o),
(729.029,197.06,c),
(741.507,236.223,o),
(747.643,277.431,o),
(747.183,318.387,cs),
(747.195,391.488,l),
(688.59,391.488,l),
(688.59,314.039,l),
(688.59,152.27,o),
(597.159,59.787,o),
(448.821,59.787,cs),
(316.077,59.787,o),
(220.497,179.418,o),
(220.497,333.931,cs),
(220.497,604.393,o),
(465.872,949.739,o),
(740.475,1132.431,c),
(997.96,908.585,o),
(1185.956,653.909,o),
(1185.956,333.931,cs),
(1185.835,172.271,o),
(1055.995,59.868,o)
);
}
);
width = 1407;
},
{
associatedMasterId = m006;
attr = {
coordinates = (
800,
1
);
};
layerId = m007;
name = ExtraBold;
shapes = (
{
closed = 1;
nodes = (
(660.362,1557.354,c),
(445.93,1303.962,l),
(473.219,1281.255,o),
(499.847,1259.349,o),
(525.776,1238.125,c),
(288.839,1023.223,o),
(77.735,743.601,o),
(77.735,445.609,cs),
(77.735,191.981,o),
(252.617,-10.803,o),
(491.088,-10.803,cs),
(609.826,-10.803,o),
(682.476,27.826,o),
(736.658,95.704,c),
(778.77,31.541,o),
(842.987,-10.804,o),
(978.186,-10.804,cs),
(1211.809,-10.804,o),
(1407.559,198.48,o),
(1407.559,445.608,cs),
(1407.559,925.177,o),
(1008.793,1258.216,o)
);
},
{
closed = 1;
nodes = (
(973.186,323.354,cs),
(928.186,323.354,o),
(916.371,332.305,o),
(892.205,422.461,c),
(892.51,445.163,o),
(892.694,471.446,o),
(892.698,490.975,cs),
(892.872,595.626,l),
(601.853,595.626,l),
(601.853,427.567,l),
(601.853,355.292,o),
(546,323,o),
(501,323,cs),
(466,323,o),
(410.914,364.254,o),
(410.914,445.607,cs),
(410.914,630.005,o),
(585.094,899.614,o),
(766.523,1039.048,c),
(958.766,872.986,o),
(1074.385,645.421,o),
(1074,445,cs),
(1074,364,o),
(1008.186,323.354,o)
);
}
);
width = 1485;
}
);
unicode = 1781;
},
